SplineFontDB: 3.0
FontName: Peel-Bold
FullName: Peel Bold
FamilyName: Peel
Weight: Bold
Copyright: Vernon Adams
Version: 
FONDName: Peel Normal Normal
ItalicAngle: 0
UnderlinePosition: 0
UnderlineWidth: 0
Ascent: 1638
Descent: 410
UFOAscent: 1638
UFODescent: -410
LayerCount: 2
Layer: 0 0 "Back"  1
Layer: 1 0 "Fore"  0
FSType: 1
OS2Version: 0
OS2_WeightWidthSlopeOnly: 0
OS2_UseTypoMetrics: 0
CreationTime: 1336844993
ModificationTime: 1336845452
PfmFamily: 0
TTFWeight: 400
TTFWidth: 1
LineGap: 0
VLineGap: 0
Panose: 2 0 5 3 0 0 0 0 0 0
OS2TypoAscent: 1695
OS2TypoAOffset: 0
OS2TypoDescent: -482
OS2TypoDOffset: 0
OS2TypoLinegap: 0
OS2WinAscent: 1695
OS2WinAOffset: 0
OS2WinDescent: 482
OS2WinDOffset: 0
HheadAscent: 0
HheadAOffset: 1
HheadDescent: 0
HheadDOffset: 1
OS2SubXSize: 1331
OS2SubYSize: 1433
OS2SubXOff: 0
OS2SubYOff: 286
OS2SupXSize: 1331
OS2SupYSize: 1433
OS2SupXOff: 0
OS2SupYOff: 983
OS2StrikeYSize: 102
OS2StrikeYPos: 530
OS2Vendor: 'newt'
OS2CodePages: 00000001.00000000
OS2UnicodeRanges: 8000006f.40000000.00000000.00000000
Lookup: 258 0 0 "'kern' Horizontal Kerning in Latin lookup 0"  {"'kern' Horizontal Kerning in Latin lookup 0 subtable"  } ['kern' ('latn' <'dflt' > ) ]
MarkAttachClasses: 1
DEI: 91125
LangName: 1033 "" "" "" "" "" "Version " "" "" "" "Vernon Adams" 
PickledData: "(dp1
S'org.robofab.glyphOrder'
p2
(S'.notdef'
S'space'
S'exclam'
S'quotedbl'
S'dollar'
S'percent'
S'quotesingle'
S'parenleft'
S'parenright'
S'plus'
S'comma'
S'hyphen'
S'period'
S'slash'
S'zero'
S'one'
S'two'
S'three'
S'four'
S'five'
S'six'
S'seven'
S'eight'
S'nine'
S'colon'
S'semicolon'
S'less'
S'equal'
S'greater'
S'question'
S'A'
S'B'
S'C'
S'D'
S'E'
S'F'
S'G'
S'H'
S'I'
S'J'
S'K'
S'L'
S'M'
S'N'
S'O'
S'P'
S'Q'
S'R'
S'S'
S'T'
S'U'
S'V'
S'W'
S'X'
S'Y'
S'Z'
S'bracketleft'
S'backslash'
S'bracketright'
S'asciicircum'
S'grave'
S'a'
S'b'
S'c'
S'd'
S'e'
S'f'
S'g'
S'h'
S'i'
S'j'
S'k'
S'l'
S'm'
S'n'
S'o'
S'p'
S'q'
S'r'
S's'
S't'
S'u'
S'v'
S'w'
S'x'
S'y'
S'z'
S'braceleft'
S'bar'
S'braceright'

StartChar: .notdef
Encoding: 65536 -1 0
Width: 1326
VWidth: 0
Flags: HW
LayerCount: 2
Fore
SplineSet
315 1181 m 1
 315 233 l 1
 1011 233 l 1
 1011 1181 l 1
 315 1181 l 1
1245 0 m 1
 81 0 l 1
 81 1414 l 1
 1245 1414 l 1
 1245 0 l 1
EndSplineSet
EndChar

StartChar: A
Encoding: 65 65 1
Width: 1527
VWidth: 0
Flags: HW
LayerCount: 2
Fore
SplineSet
640 1516 m 1
 851 1516 l 1
 1524 48 l 1
 1488 0 l 1
 1244 0 l 1
 1031 436 l 1
 494 436 l 1
 292 0 l 1
 -16 0 l 1
 640 1516 l 1
606 713 m 1
 913 713 l 1
 753 1121 l 1
 606 713 l 1
EndSplineSet
EndChar

StartChar: AE
Encoding: 198 198 2
Width: 1642
VWidth: 0
Flags: HW
LayerCount: 2
Fore
SplineSet
633 713 m 1
 760 713 l 1
 760 1013 l 1
 633 713 l 1
698 1516 m 1
 1594 1516 l 1
 1594 1237 l 1
 1053 1237 l 1
 1053 907 l 1
 1580 907 l 1
 1580 631 l 1
 1053 631 l 1
 1053 279 l 1
 1606 279 l 1
 1606 0 l 1
 760 0 l 1
 760 436 l 1
 517 436 l 1
 297 0 l 1
 -31 0 l 1
 698 1516 l 1
EndSplineSet
EndChar

StartChar: Aacute
Encoding: 193 193 3
Width: 1527
VWidth: 0
Flags: HW
LayerCount: 2
Fore
SplineSet
567 1632 m 0
 567 1643 568 1653 572 1666 c 2
 669 2028 l 1
 692 2110 752 2152 816 2152 c 0
 884 2152 958 2100 958 2014 c 0
 958 1975 942 1936 914 1898 c 2
 694 1609 l 1
 678 1585 664 1566 628 1566 c 0
 578 1566 567 1617 567 1632 c 0
640 1515 m 1
 851 1515 l 1
 1530 34 l 1
 1478 0 l 1
 1244 0 l 1
 1031 436 l 1
 494 436 l 1
 292 0 l 1
 -16 0 l 1
 640 1515 l 1
606 713 m 1
 913 713 l 1
 753 1121 l 1
 606 713 l 1
EndSplineSet
EndChar

StartChar: Abreve
Encoding: 258 258 4
Width: 1527
VWidth: 0
Flags: HW
LayerCount: 2
Fore
SplineSet
1046 1907 m 1
 1044 1854 l 2
 1038 1666 899 1566 763 1566 c 0
 625 1566 487 1666 480 1854 c 2
 478 1907 l 1
 680 1907 l 1
 686 1862 l 2
 693 1804 729 1783 762 1783 c 0
 795 1783 832 1805 838 1862 c 2
 843 1907 l 1
 1046 1907 l 1
640 1515 m 1
 851 1515 l 1
 1526 42 l 1
 1484 0 l 1
 1244 0 l 1
 1031 435 l 1
 494 435 l 1
 292 0 l 1
 -16 0 l 1
 640 1515 l 1
606 713 m 1
 913 713 l 1
 753 1121 l 1
 606 713 l 1
EndSplineSet
EndChar

StartChar: Acircumflex
Encoding: 194 194 5
Width: 1527
VWidth: 0
Flags: HW
LayerCount: 2
Fore
SplineSet
409 1620 m 0
 409 1621 407 1626 415 1645 c 1
 686 2062 l 1
 704 2080 729 2096 763 2096 c 0
 792 2096 827 2086 845 2058 c 2
 1117 1638 l 1
 1117 1620 l 2
 1117 1589 1095 1567 1064 1567 c 0
 1057 1567 1042 1571 1036 1573 c 1
 763 1763 l 1
 491 1573 l 1
 484 1571 477 1567 464 1567 c 0
 464 1567 462 1567 459 1567 c 0
 445 1567 409 1571 409 1620 c 0
640 1516 m 1
 851 1516 l 1
 1526 42 l 1
 1484 0 l 1
 1244 0 l 1
 1031 436 l 1
 494 436 l 1
 292 0 l 1
 -16 0 l 1
 640 1516 l 1
606 713 m 1
 913 713 l 1
 753 1121 l 1
 606 713 l 1
EndSplineSet
EndChar

StartChar: Adieresis
Encoding: 196 196 6
Width: 1527
VWidth: 0
Flags: HW
LayerCount: 2
Fore
SplineSet
950 1565 m 0
 872 1565 782 1622 782 1730 c 0
 782 1839 869 1901 950 1901 c 0
 1033 1901 1118 1838 1118 1730 c 0
 1118 1622 1030 1565 950 1565 c 0
574 1565 m 0
 494 1565 407 1623 407 1730 c 0
 407 1838 492 1901 574 1901 c 0
 656 1901 743 1839 743 1730 c 0
 743 1621 653 1565 574 1565 c 0
640 1516 m 1
 851 1516 l 1
 1530 34 l 1
 1478 0 l 1
 1244 0 l 1
 1031 436 l 1
 494 436 l 1
 292 0 l 1
 -16 0 l 1
 640 1516 l 1
606 712 m 1
 913 712 l 1
 753 1120 l 1
 606 712 l 1
EndSplineSet
EndChar

StartChar: Agrave
Encoding: 192 192 7
Width: 1527
VWidth: 0
Flags: HW
LayerCount: 2
Fore
SplineSet
716 2164 m 0
 779 2164 836 2120 861 2040 c 1
 946 1665 l 1
 952 1649 951 1636 951 1631 c 0
 951 1614 943 1566 892 1566 c 0
 861 1566 838 1585 822 1609 c 2
 615 1912 l 1
 587 1948 572 1986 572 2024 c 0
 572 2110 646 2164 716 2164 c 0
640 1515 m 1
 851 1515 l 1
 1526 42 l 1
 1484 0 l 1
 1244 0 l 1
 1031 437 l 1
 494 437 l 1
 292 0 l 1
 -16 0 l 1
 640 1515 l 1
606 713 m 1
 913 713 l 1
 753 1121 l 1
 606 713 l 1
EndSplineSet
EndChar

StartChar: Amacron
Encoding: 256 256 8
Width: 1527
VWidth: 0
Flags: HW
LayerCount: 2
Fore
SplineSet
1070 1566 m 1
 454 1566 l 1
 454 1820 l 1
 1070 1820 l 1
 1070 1566 l 1
640 1516 m 1
 851 1516 l 1
 1526 42 l 1
 1484 0 l 1
 1244 0 l 1
 1031 436 l 1
 494 436 l 1
 292 0 l 1
 -16 0 l 1
 640 1516 l 1
606 713 m 1
 913 713 l 1
 753 1121 l 1
 606 713 l 1
EndSplineSet
EndChar

StartChar: Aogonek
Encoding: 260 260 9
Width: 1527
VWidth: 0
Flags: HW
LayerCount: 2
Fore
SplineSet
640 1516 m 1
 851 1516 l 1
 1526 42 l 1
 1484 0 l 1
 1310 0 l 1
 1298 -5 1289 -9 1280 -15 c 0
 1249 -35 1240 -58 1240 -72 c 0
 1240 -97 1266 -147 1376 -147 c 2
 1443 -147 l 1
 1389 -366 l 1
 1358 -373 l 2
 1339 -377 1321 -378 1305 -378 c 0
 1136 -378 1018 -248 1018 -108 c 0
 1018 -15 1072 81 1184 116 c 1
 1031 436 l 1
 494 436 l 1
 292 0 l 1
 -16 0 l 1
 640 1516 l 1
606 713 m 1
 913 713 l 1
 753 1121 l 1
 606 713 l 1
EndSplineSet
EndChar

StartChar: Aring
Encoding: 197 197 10
Width: 1527
VWidth: 0
Flags: HW
LayerCount: 2
Fore
SplineSet
748 1734 m 0
 704 1734 673 1711 673 1670 c 0
 673 1631 706 1606 749 1606 c 0
 790 1606 819 1628 819 1670 c 0
 819 1713 790 1734 748 1734 c 0
749 1938 m 0
 887 1938 1036 1849 1036 1670 c 0
 1036 1560 970 1483 887 1446 c 1
 1526 42 l 1
 1484 0 l 1
 1244 0 l 1
 1031 436 l 1
 494 436 l 1
 292 0 l 1
 -16 0 l 1
 606 1448 l 1
 522 1487 459 1564 459 1672 c 0
 459 1850 611 1938 749 1938 c 0
606 713 m 1
 913 713 l 1
 753 1121 l 1
 606 713 l 1
EndSplineSet
EndChar

StartChar: Atilde
Encoding: 195 195 11
Width: 1527
VWidth: 0
Flags: HW
LayerCount: 2
Fore
SplineSet
880 1566 m 0
 762 1566 625 1654 534 1654 c 0
 501 1654 501 1609 429 1609 c 0
 395 1609 364 1636 364 1673 c 0
 364 1685 372 1707 379 1717 c 1
 434 1808 509 1884 626 1884 c 0
 770 1884 935 1796 992 1796 c 0
 1031 1796 1022 1841 1099 1841 c 0
 1133 1841 1162 1807 1162 1777 c 0
 1162 1757 1156 1744 1149 1734 c 0
 1087 1641 1003 1566 880 1566 c 0
640 1515 m 1
 851 1515 l 1
 1526 42 l 1
 1484 0 l 1
 1244 0 l 1
 1031 437 l 1
 494 437 l 1
 292 0 l 1
 -16 0 l 1
 640 1515 l 1
606 713 m 1
 913 713 l 1
 753 1121 l 1
 606 713 l 1
EndSplineSet
EndChar

StartChar: B
Encoding: 66 66 12
Width: 1192
VWidth: 0
Flags: HW
LayerCount: 2
Fore
SplineSet
580 1245 m 2
 370 1245 l 1
 370 911 l 1
 602 911 l 2
 714 911 781 996 781 1087 c 0
 781 1168 723 1245 580 1245 c 2
537 275 m 2
 692 275 832 296 832 455 c 0
 832 548 777 654 632 654 c 2
 370 654 l 1
 370 275 l 1
 537 275 l 2
550 0 m 2
 78 0 l 1
 78 1516 l 1
 559 1516 l 2
 888 1516 1064 1309 1064 1096 c 0
 1064 994 1014 882 913 814 c 1
 1112 707 1134 511 1134 449 c 0
 1134 151 926 0 550 0 c 2
EndSplineSet
EndChar

StartChar: C
Encoding: 67 67 13
Width: 1511
VWidth: 0
Flags: HW
LayerCount: 2
Fore
SplineSet
55 759 m 0
 55 1239 458 1536 920 1536 c 0
 1076 1536 1252 1497 1411 1429 c 2
 1442 1416 l 1
 1442 1082 l 1
 1368 1121 l 2
 1207 1204 1053 1249 922 1249 c 0
 629 1249 376 1065 376 756 c 0
 376 419 630 263 916 263 c 0
 1066 263 1232 316 1359 416 c 2
 1442 481 l 1
 1442 135 l 1
 1415 121 l 2
 1233 24 1069 -19 905 -19 c 0
 404 -19 55 328 55 759 c 0
EndSplineSet
EndChar

StartChar: Cacute
Encoding: 262 262 14
Width: 1511
VWidth: 0
Flags: HW
LayerCount: 2
Fore
SplineSet
549 1632 m 0
 549 1643 551 1653 554 1666 c 2
 650 2029 l 1
 673 2110 734 2153 797 2153 c 0
 866 2153 940 2101 940 2015 c 0
 940 1974 922 1935 894 1899 c 2
 675 1611 l 1
 661 1586 640 1566 607 1566 c 0
 547 1566 549 1626 549 1632 c 0
55 759 m 0
 55 1240 458 1536 920 1536 c 0
 1075 1536 1252 1498 1411 1428 c 2
 1442 1414 l 1
 1442 1081 l 1
 1367 1120 l 2
 1206 1204 1053 1249 922 1249 c 0
 629 1249 376 1065 376 755 c 0
 376 418 630 263 916 263 c 0
 1065 263 1233 317 1360 416 c 2
 1442 481 l 1
 1442 134 l 1
 1415 120 l 2
 1233 24 1069 -20 905 -20 c 0
 404 -20 55 328 55 759 c 0
EndSplineSet
EndChar

StartChar: Ccaron
Encoding: 268 268 15
Width: 1511
VWidth: 0
Flags: HW
LayerCount: 2
Fore
SplineSet
743 1898 m 1
 838 1964 929 2031 1026 2094 c 0
 1027 2094 1040 2096 1041 2096 c 0
 1064 2096 1098 2090 1098 2041 c 0
 1098 2040 1083 2003 1081 2001 c 2
 821 1605 l 1
 821 1605 752 1565 743 1565 c 0
 714 1565 682 1575 662 1605 c 2
 390 2023 l 1
 390 2041 l 1
 390 2041 389 2046 389 2053 c 0
 389 2069 396 2096 443 2096 c 0
 446 2096 477 2085 483 2079 c 1
 569 2019 657 1958 743 1898 c 1
55 759 m 0
 55 1239 458 1536 920 1536 c 0
 1076 1536 1252 1497 1411 1429 c 2
 1442 1416 l 1
 1442 1079 l 1
 1367 1119 l 2
 1206 1204 1053 1248 922 1248 c 0
 629 1248 376 1064 376 754 c 0
 376 419 630 262 916 262 c 0
 1065 262 1233 316 1360 416 c 2
 1442 481 l 1
 1442 135 l 1
 1415 121 l 2
 1232 23 1069 -19 905 -19 c 0
 404 -19 55 329 55 759 c 0
EndSplineSet
EndChar

StartChar: Ccedilla
Encoding: 199 199 16
Width: 1511
VWidth: 0
Flags: HW
LayerCount: 2
Fore
SplineSet
727 -445 m 0
 641 -445 559 -422 503 -388 c 1
 499 -384 l 1
 499 -384 472 -386 472 -334 c 0
 472 -281 514 -277 530 -277 c 0
 533 -277 535 -277 536 -277 c 0
 579 -277 635 -295 690 -295 c 0
 748 -295 751 -281 751 -278 c 1
 731 -263 643 -260 618 -260 c 2
 547 -260 l 1
 642 19 l 1
 284 117 55 412 55 761 c 0
 55 1239 458 1537 920 1537 c 0
 1076 1537 1252 1498 1411 1428 c 2
 1442 1414 l 1
 1442 1079 l 1
 1367 1119 l 2
 1206 1204 1053 1249 922 1249 c 0
 629 1249 376 1064 376 754 c 0
 376 419 630 262 916 262 c 0
 1065 262 1232 317 1359 417 c 2
 1442 482 l 1
 1442 136 l 1
 1415 122 l 2
 1232 24 1069 -18 905 -18 c 0
 874 -18 843 -17 814 -14 c 1
 807 -37 l 1
 912 -60 985 -138 985 -241 c 0
 985 -398 838 -445 727 -445 c 0
EndSplineSet
EndChar

StartChar: Ccircumflex
Encoding: 264 264 17
Width: 1511
VWidth: 0
Flags: HW
LayerCount: 2
Fore
SplineSet
55 759 m 0
 55 1239 458 1536 920 1536 c 0
 1076 1536 1252 1497 1411 1429 c 2
 1442 1416 l 1
 1442 1079 l 1
 1367 1119 l 2
 1206 1204 1053 1248 922 1248 c 0
 629 1248 376 1064 376 754 c 0
 376 419 630 262 916 262 c 0
 1065 262 1233 316 1360 416 c 2
 1442 481 l 1
 1442 135 l 1
 1415 121 l 2
 1232 23 1069 -19 905 -19 c 0
 404 -19 55 329 55 759 c 0
744 1761 m 1
 466 1569 l 2
 465 1569 446 1565 445 1565 c 0
 413 1565 390 1588 390 1620 c 0
 390 1662 403 1655 403 1655 c 1
 664 2057 l 2
 682 2084 713 2096 744 2096 c 0
 774 2096 806 2085 824 2057 c 2
 1098 1637 l 1
 1098 1620 l 2
 1098 1574 1063 1565 1042 1565 c 2
 1042 1565 1041 1565 1040 1565 c 0
 1036 1565 1028 1565 1018 1570 c 1
 744 1761 l 1
EndSplineSet
EndChar

StartChar: Cdotaccent
Encoding: 266 266 18
Width: 1511
VWidth: 0
Flags: HW
LayerCount: 2
Fore
SplineSet
744 1566 m 0
 658 1566 563 1624 563 1743 c 0
 563 1863 655 1928 744 1928 c 0
 831 1928 923 1862 923 1743 c 0
 923 1624 828 1566 744 1566 c 0
55 758 m 0
 55 1240 458 1535 920 1535 c 0
 1075 1535 1252 1497 1411 1427 c 2
 1442 1413 l 1
 1442 1081 l 1
 1368 1120 l 2
 1207 1204 1052 1249 922 1249 c 0
 629 1249 376 1064 376 755 c 0
 376 417 630 262 916 262 c 0
 1065 262 1233 316 1360 415 c 2
 1442 480 l 1
 1442 135 l 1
 1415 121 l 2
 1232 23 1069 -20 905 -20 c 0
 404 -20 55 327 55 758 c 0
EndSplineSet
EndChar

StartChar: D
Encoding: 68 68 19
Width: 1557
VWidth: 0
Flags: HW
LayerCount: 2
Fore
SplineSet
713 1235 m 2
 370 1235 l 1
 370 279 l 1
 664 279 l 2
 983 279 1191 435 1191 760 c 0
 1191 1132 986 1235 713 1235 c 2
1503 763 m 0
 1503 361 1214 0 706 0 c 2
 77 0 l 1
 77 1516 l 1
 739 1516 l 2
 1234 1516 1503 1199 1503 763 c 0
EndSplineSet
EndChar

StartChar: Dcaron
Encoding: 270 270 20
Width: 1557
VWidth: 0
Flags: HW
LayerCount: 2
Fore
SplineSet
1143 2043 m 0
 1143 2042 1145 2037 1137 2018 c 1
 867 1603 l 1
 845 1575 815 1567 788 1567 c 0
 761 1567 731 1575 709 1603 c 1
 435 2025 l 1
 435 2043 l 2
 435 2074 457 2096 488 2096 c 2
 489 2096 l 2
 492 2096 502 2096 516 2090 c 1
 607 2027 700 1961 788 1900 c 1
 852 1945 915 1988 978 2032 c 2
 1053 2084 l 2
 1067 2095 1078 2097 1084 2097 c 0
 1087 2097 1089 2096 1089 2096 c 1
 1105 2096 1143 2083 1143 2043 c 0
713 1235 m 2
 370 1235 l 1
 370 279 l 1
 664 279 l 2
 983 279 1191 436 1191 761 c 0
 1191 1133 986 1235 713 1235 c 2
1503 764 m 0
 1503 360 1214 0 706 0 c 2
 77 0 l 1
 77 1516 l 1
 739 1516 l 2
 1234 1516 1503 1199 1503 764 c 0
EndSplineSet
EndChar

StartChar: Dcroat
Encoding: 272 272 21
Width: 1553
VWidth: 0
Flags: HW
LayerCount: 2
Fore
SplineSet
711 1235 m 2
 369 1235 l 1
 369 880 l 1
 669 880 l 1
 669 630 l 1
 369 630 l 1
 369 279 l 1
 663 279 l 2
 982 279 1191 435 1191 760 c 0
 1191 1132 985 1235 711 1235 c 2
1501 763 m 0
 1501 361 1214 0 704 0 c 2
 76 0 l 1
 76 630 l 1
 -51 630 l 1
 -51 880 l 1
 76 880 l 1
 76 1516 l 1
 738 1516 l 2
 1232 1516 1501 1199 1501 763 c 0
EndSplineSet
EndChar

StartChar: E
Encoding: 69 69 22
Width: 1060
VWidth: 0
Flags: HW
LayerCount: 2
Fore
SplineSet
77 1516 m 1
 1011 1516 l 1
 1011 1237 l 1
 370 1237 l 1
 370 907 l 1
 997 907 l 1
 997 631 l 1
 370 631 l 1
 370 279 l 1
 1024 279 l 1
 1024 0 l 1
 77 0 l 1
 77 1516 l 1
EndSplineSet
EndChar

StartChar: Eacute
Encoding: 201 201 23
Width: 1060
VWidth: 0
Flags: HW
LayerCount: 2
Fore
SplineSet
350 1632 m 0
 350 1644 351 1653 355 1667 c 2
 450 2028 l 1
 474 2109 532 2152 598 2152 c 0
 667 2152 739 2100 739 2014 c 0
 739 1977 725 1936 695 1898 c 2
 475 1609 l 1
 462 1588 443 1566 408 1566 c 0
 348 1566 350 1626 350 1632 c 0
77 1515 m 1
 1011 1515 l 1
 1011 1237 l 1
 370 1237 l 1
 370 907 l 1
 997 907 l 1
 997 629 l 1
 370 629 l 1
 370 278 l 1
 1024 278 l 1
 1024 0 l 1
 77 0 l 1
 77 1515 l 1
EndSplineSet
EndChar

StartChar: Ecaron
Encoding: 282 282 24
Width: 1060
VWidth: 0
Flags: HW
LayerCount: 2
Fore
SplineSet
810 2085 m 1
 842 2096 l 2
 842 2096 844 2096 847 2096 c 0
 861 2096 897 2092 897 2043 c 0
 897 2042 898 2035 893 2022 c 1
 622 1605 l 1
 622 1605 599 1567 541 1567 c 0
 515 1567 484 1574 463 1605 c 2
 188 2025 l 1
 188 2043 l 2
 188 2090 211 2099 227 2099 c 0
 237 2099 244 2096 244 2096 c 1
 245 2096 l 2
 248 2096 257 2096 272 2090 c 1
 541 1900 l 1
 810 2085 l 1
77 1516 m 1
 1011 1516 l 1
 1011 1237 l 1
 370 1237 l 1
 370 907 l 1
 997 907 l 1
 997 631 l 1
 370 631 l 1
 370 279 l 1
 1024 279 l 1
 1024 0 l 1
 77 0 l 1
 77 1516 l 1
EndSplineSet
EndChar

StartChar: Ecircumflex
Encoding: 202 202 25
Width: 1060
VWidth: 0
Flags: HW
LayerCount: 2
Fore
SplineSet
625 2109 m 2
 897 1689 l 1
 897 1683 897 1677 897 1671 c 0
 897 1620 860 1618 846 1618 c 2
 843 1618 l 2
 843 1618 831 1618 816 1625 c 1
 545 1814 l 1
 280 1630 l 1
 246 1618 l 1
 246 1618 236 1613 225 1613 c 0
 208 1613 188 1623 188 1671 c 1
 188 1671 192 1695 213 1721 c 1
 465 2110 l 1
 486 2138 515 2147 545 2147 c 0
 570 2147 604 2142 625 2109 c 2
1011 1516 m 1
 1011 1423 1011 1330 1011 1237 c 1
 370 1237 l 1
 370 907 l 1
 997 907 l 1
 997 631 l 1
 370 631 l 1
 370 279 l 1
 1024 279 l 1
 1024 0 l 1
 77 0 l 1
 77 1516 l 1
 388 1516 700 1516 1011 1516 c 1
EndSplineSet
EndChar

StartChar: Edieresis
Encoding: 203 203 26
Width: 1060
VWidth: 0
Flags: HW
LayerCount: 2
Fore
SplineSet
733 1565 m 0
 653 1565 563 1622 563 1730 c 0
 563 1839 651 1901 733 1901 c 0
 815 1901 901 1838 901 1730 c 0
 901 1621 812 1565 733 1565 c 0
355 1565 m 0
 276 1565 187 1622 187 1730 c 0
 187 1838 273 1901 355 1901 c 0
 438 1901 525 1839 525 1730 c 0
 525 1621 435 1565 355 1565 c 0
77 1516 m 1
 1011 1516 l 1
 1011 1236 l 1
 370 1236 l 1
 370 908 l 1
 997 908 l 1
 997 631 l 1
 370 631 l 1
 370 277 l 1
 1024 277 l 1
 1024 0 l 1
 77 0 l 1
 77 1516 l 1
EndSplineSet
EndChar

StartChar: Edotaccent
Encoding: 278 278 27
Width: 1060
VWidth: 0
Flags: HW
LayerCount: 2
Fore
SplineSet
545 1566 m 0
 458 1566 364 1627 364 1745 c 0
 364 1864 456 1929 545 1929 c 0
 632 1929 724 1863 724 1745 c 0
 724 1627 630 1566 545 1566 c 0
77 1515 m 1
 1011 1515 l 1
 1011 1237 l 1
 370 1237 l 1
 370 907 l 1
 997 907 l 1
 997 631 l 1
 370 631 l 1
 370 278 l 1
 1024 278 l 1
 1024 0 l 1
 77 0 l 1
 77 1515 l 1
EndSplineSet
EndChar

StartChar: Egrave
Encoding: 200 200 28
Width: 1060
VWidth: 0
Flags: HW
LayerCount: 2
Fore
SplineSet
498 2164 m 0
 561 2164 619 2120 643 2040 c 1
 729 1663 l 2
 733 1646 733 1637 733 1631 c 0
 733 1616 721 1566 673 1566 c 0
 642 1566 621 1584 603 1610 c 2
 396 1913 l 1
 370 1948 355 1986 355 2024 c 0
 355 2109 427 2164 498 2164 c 0
77 1515 m 1
 1011 1515 l 1
 1011 1237 l 1
 370 1237 l 1
 370 907 l 1
 997 907 l 1
 997 631 l 1
 370 631 l 1
 370 278 l 1
 1024 278 l 1
 1024 0 l 1
 77 0 l 1
 77 1515 l 1
EndSplineSet
EndChar

StartChar: Emacron
Encoding: 274 274 29
Width: 1060
VWidth: 0
Flags: HW
LayerCount: 2
Fore
SplineSet
852 1566 m 1
 236 1566 l 1
 236 1820 l 1
 852 1820 l 1
 852 1566 l 1
77 1516 m 1
 1011 1516 l 1
 1011 1236 l 1
 370 1236 l 1
 370 908 l 1
 997 908 l 1
 997 631 l 1
 370 631 l 1
 370 279 l 1
 1024 279 l 1
 1024 0 l 1
 77 0 l 1
 77 1516 l 1
EndSplineSet
EndChar

StartChar: Eogonek
Encoding: 280 280 30
Width: 1060
VWidth: 0
Flags: HW
LayerCount: 2
Fore
SplineSet
77 1516 m 1
 1011 1516 l 1
 1011 1238 l 1
 370 1238 l 1
 370 907 l 1
 997 907 l 1
 997 631 l 1
 370 631 l 1
 370 279 l 1
 1024 279 l 1
 1024 0 l 1
 646 0 l 1
 651 -9 l 1
 590 -30 l 2
 526 -51 507 -88 507 -107 c 0
 507 -131 534 -180 643 -180 c 2
 710 -180 l 1
 655 -403 l 1
 621 -407 l 2
 607 -409 590 -412 572 -412 c 0
 403 -412 286 -281 286 -141 c 0
 286 -92 299 -42 324 0 c 1
 77 0 l 1
 77 1516 l 1
EndSplineSet
EndChar

StartChar: Eth
Encoding: 208 208 31
Width: 1564
VWidth: 0
Flags: HW
LayerCount: 2
Fore
SplineSet
710 0 m 2
 77 0 l 1
 77 657 l 1
 -12 657 l 1
 -12 912 l 1
 77 912 l 1
 77 1520 l 1
 745 1520 l 2
 1241 1520 1512 1203 1512 767 c 0
 1512 362 1225 0 710 0 c 2
604 657 m 1
 392 657 l 1
 392 283 l 1
 667 283 l 2
 989 283 1197 439 1197 763 c 0
 1197 1132 992 1235 716 1235 c 2
 392 1235 l 1
 392 912 l 1
 604 912 l 1
 604 657 l 1
EndSplineSet
EndChar

StartChar: F
Encoding: 70 70 32
Width: 1045
VWidth: 0
Flags: HW
LayerCount: 2
Fore
SplineSet
77 1516 m 1
 1012 1516 l 1
 1012 1237 l 1
 370 1237 l 1
 370 898 l 1
 993 898 l 1
 993 622 l 1
 370 622 l 1
 370 0 l 1
 77 0 l 1
 77 1516 l 1
EndSplineSet
EndChar

StartChar: G
Encoding: 71 71 33
Width: 1543
VWidth: 0
Flags: HW
LayerCount: 2
Fore
SplineSet
55 735 m 0
 55 1206 442 1536 921 1536 c 0
 1086 1536 1252 1493 1411 1402 c 2
 1437 1387 l 1
 1437 1100 l 1
 1359 1148 l 2
 1219 1234 1071 1274 936 1274 c 0
 617 1274 354 1075 354 734 c 0
 354 466 560 247 886 247 c 0
 973 247 1073 262 1177 295 c 1
 1177 506 l 1
 902 506 l 1
 902 782 l 1
 1472 782 l 1
 1472 115 l 1
 1441 102 l 2
 1225 16 1035 -19 870 -19 c 0
 314 -19 55 394 55 735 c 0
EndSplineSet
EndChar

StartChar: Gbreve
Encoding: 286 286 34
Width: 1543
VWidth: 0
Flags: HW
LayerCount: 2
Fore
SplineSet
1043 1907 m 1
 1041 1854 l 2
 1033 1668 895 1567 760 1567 c 0
 621 1567 484 1667 477 1854 c 2
 475 1907 l 1
 678 1907 l 1
 683 1862 l 2
 689 1806 726 1783 759 1783 c 0
 790 1783 828 1805 833 1861 c 2
 838 1907 l 1
 1043 1907 l 1
55 735 m 0
 55 1207 442 1537 921 1537 c 0
 1086 1537 1253 1493 1411 1402 c 2
 1437 1387 l 1
 1437 1097 l 1
 1359 1146 l 2
 1219 1234 1071 1275 936 1275 c 0
 618 1275 354 1076 354 734 c 0
 354 466 560 247 886 247 c 0
 973 247 1072 263 1177 296 c 1
 1177 507 l 1
 902 507 l 1
 902 782 l 1
 1472 782 l 1
 1472 114 l 1
 1441 101 l 2
 1225 16 1035 -19 870 -19 c 0
 314 -19 55 394 55 735 c 0
EndSplineSet
EndChar

StartChar: Gcircumflex
Encoding: 284 284 35
Width: 1543
VWidth: 0
Flags: HW
LayerCount: 2
Fore
SplineSet
55 735 m 0
 55 1205 442 1536 921 1536 c 0
 1086 1536 1253 1492 1411 1402 c 2
 1437 1388 l 1
 1437 1097 l 1
 1359 1146 l 2
 1219 1234 1071 1273 936 1273 c 0
 617 1273 354 1075 354 733 c 0
 354 464 560 247 886 247 c 0
 973 247 1072 263 1177 296 c 1
 1177 506 l 1
 902 506 l 1
 902 781 l 1
 1472 781 l 1
 1472 113 l 1
 1441 100 l 2
 1225 15 1035 -19 870 -19 c 0
 314 -19 55 394 55 735 c 0
759 1761 m 1
 481 1569 l 2
 480 1569 461 1565 460 1565 c 0
 428 1565 405 1588 405 1620 c 0
 405 1662 418 1655 418 1655 c 1
 679 2057 l 2
 697 2084 728 2096 759 2096 c 0
 789 2096 821 2085 839 2057 c 2
 1113 1637 l 1
 1113 1620 l 2
 1113 1574 1078 1565 1057 1565 c 2
 1057 1565 1056 1565 1055 1565 c 0
 1051 1565 1043 1565 1033 1570 c 1
 759 1761 l 1
EndSplineSet
EndChar

StartChar: Gcommaaccent
Encoding: 290 290 36
Width: 1543
VWidth: 0
Flags: HW
LayerCount: 2
Fore
SplineSet
658 -623 m 2
 636 -623 l 1
 561 -544 l 1
 600 -509 l 2
 644 -469 661 -439 667 -395 c 1
 601 -361 569 -299 569 -239 c 0
 569 -119 660 -48 752 -48 c 0
 844 -48 946 -115 946 -245 c 0
 946 -397 811 -623 658 -623 c 2
55 736 m 0
 55 1207 442 1537 921 1537 c 0
 1086 1537 1252 1494 1411 1403 c 2
 1437 1388 l 1
 1437 1100 l 1
 1359 1148 l 2
 1218 1234 1071 1275 936 1275 c 0
 617 1275 354 1076 354 735 c 0
 354 467 560 247 886 247 c 0
 973 247 1073 263 1177 296 c 1
 1177 507 l 1
 902 507 l 1
 902 783 l 1
 1472 783 l 1
 1472 115 l 1
 1441 102 l 2
 1225 17 1035 -18 870 -18 c 0
 314 -18 55 395 55 736 c 0
EndSplineSet
EndChar

StartChar: Gdotaccent
Encoding: 288 288 37
Width: 1543
VWidth: 0
Flags: HW
LayerCount: 2
Fore
SplineSet
759 1566 m 0
 673 1566 578 1624 578 1743 c 0
 578 1863 670 1928 759 1928 c 0
 846 1928 938 1862 938 1743 c 0
 938 1624 843 1566 759 1566 c 0
55 735 m 0
 55 1205 442 1535 921 1535 c 0
 1086 1535 1252 1493 1411 1402 c 2
 1437 1387 l 1
 1437 1099 l 1
 1359 1147 l 2
 1219 1233 1071 1273 936 1273 c 0
 617 1273 354 1075 354 732 c 0
 354 465 560 247 886 247 c 0
 973 247 1074 262 1177 295 c 1
 1177 505 l 1
 902 505 l 1
 902 780 l 1
 1472 780 l 1
 1472 114 l 1
 1441 101 l 2
 1225 16 1035 -20 870 -20 c 0
 314 -20 55 393 55 735 c 0
EndSplineSet
EndChar

StartChar: H
Encoding: 72 72 38
Width: 1486
VWidth: 0
Flags: HW
LayerCount: 2
Fore
SplineSet
371 636 m 1
 371 0 l 1
 76 0 l 1
 76 1516 l 1
 371 1516 l 1
 371 905 l 1
 1115 905 l 1
 1115 1516 l 1
 1410 1516 l 1
 1410 0 l 1
 1115 0 l 1
 1115 636 l 1
 371 636 l 1
EndSplineSet
EndChar

StartChar: Hbar
Encoding: 294 294 39
Width: 1480
VWidth: 0
Flags: HW
LayerCount: 2
Fore
SplineSet
1112 1068 m 1
 368 1068 l 1
 368 905 l 1
 1112 905 l 1
 1112 1068 l 1
368 636 m 1
 368 0 l 1
 73 0 l 1
 73 1048 l 1
 -51 1048 l 1
 -51 1278 l 1
 73 1278 l 1
 73 1516 l 1
 368 1516 l 1
 368 1262 l 1
 1112 1262 l 1
 1112 1516 l 1
 1407 1516 l 1
 1407 1278 l 1
 1531 1278 l 1
 1531 1048 l 1
 1407 1048 l 1
 1407 0 l 1
 1112 0 l 1
 1112 636 l 1
 368 636 l 1
EndSplineSet
EndChar

StartChar: Hcircumflex
Encoding: 292 292 40
Width: 1486
VWidth: 0
Flags: HW
LayerCount: 2
Fore
SplineSet
473 1577 m 1
 472 1578 442 1567 442 1567 c 2
 442 1567 440 1567 437 1567 c 0
 423 1567 387 1571 387 1620 c 0
 387 1621 385 1626 393 1645 c 1
 663 2061 l 1
 681 2082 706 2096 741 2096 c 0
 772 2096 807 2083 823 2058 c 2
 1095 1638 l 1
 1095 1620 l 2
 1095 1589 1073 1567 1042 1567 c 0
 1040 1567 1019 1570 1010 1575 c 1
 741 1763 l 1
 473 1577 l 1
371 635 m 1
 371 0 l 1
 76 0 l 1
 76 1516 l 1
 371 1516 l 1
 371 905 l 1
 1115 905 l 1
 1115 1516 l 1
 1410 1516 l 1
 1410 0 l 1
 1115 0 l 1
 1115 635 l 1
 371 635 l 1
EndSplineSet
EndChar

StartChar: I
Encoding: 73 73 41
Width: 428
VWidth: 0
Flags: HW
LayerCount: 2
Fore
SplineSet
69 1516 m 1
 362 1516 l 1
 362 0 l 1
 69 0 l 1
 69 1516 l 1
EndSplineSet
EndChar

StartChar: IJ
Encoding: 306 306 42
Width: 1036
VWidth: 0
Flags: HW
LayerCount: 2
Fore
SplineSet
221 62 m 2
 221 1514 l 1
 514 1514 l 1
 514 7 l 2
 514 -271 341 -393 8 -394 c 2
 -43 -394 l 1
 -43 -138 l 1
 8 -138 l 2
 219 -138 221 -113 221 62 c 2
676 1514 m 1
 970 1514 l 1
 970 0 l 1
 676 0 l 1
 676 1514 l 1
EndSplineSet
EndChar

StartChar: Iacute
Encoding: 205 205 43
Width: 429
VWidth: 0
Flags: HW
LayerCount: 2
Fore
SplineSet
19 1632 m 0
 19 1643 20 1653 24 1666 c 2
 121 2028 l 1
 144 2110 204 2152 268 2152 c 0
 336 2152 410 2100 410 2014 c 0
 410 1975 394 1936 366 1898 c 2
 146 1609 l 1
 130 1585 116 1566 80 1566 c 0
 30 1566 19 1617 19 1632 c 0
68 1515 m 1
 362 1515 l 1
 362 0 l 1
 68 0 l 1
 68 1515 l 1
EndSplineSet
EndChar

StartChar: Ibreve
Encoding: 300 300 44
Width: 429
VWidth: 0
Flags: HW
LayerCount: 2
Fore
SplineSet
499 1907 m 1
 497 1854 l 2
 490 1666 352 1566 215 1566 c 0
 77 1566 -61 1666 -68 1854 c 2
 -70 1907 l 1
 134 1907 l 1
 139 1862 l 2
 145 1805 181 1783 214 1783 c 0
 247 1783 284 1805 290 1862 c 2
 295 1907 l 1
 499 1907 l 1
68 1515 m 1
 362 1515 l 1
 362 0 l 1
 68 0 l 1
 68 1515 l 1
EndSplineSet
EndChar

StartChar: Icircumflex
Encoding: 206 206 45
Width: 429
VWidth: 0
Flags: HW
LayerCount: 2
Fore
SplineSet
-139 1620 m 0
 -139 1621 -141 1626 -133 1645 c 1
 138 2062 l 1
 156 2080 181 2096 215 2096 c 0
 245 2096 272 2087 295 2061 c 1
 569 1638 l 1
 569 1620 l 2
 569 1589 547 1567 516 1567 c 0
 509 1567 494 1571 488 1573 c 1
 215 1763 l 1
 -57 1573 l 1
 -64 1571 -71 1567 -84 1567 c 0
 -84 1567 -86 1567 -89 1567 c 0
 -103 1567 -139 1571 -139 1620 c 0
68 1516 m 1
 362 1516 l 1
 362 0 l 1
 68 0 l 1
 68 1516 l 1
EndSplineSet
EndChar

StartChar: Idieresis
Encoding: 207 207 46
Width: 429
VWidth: 0
Flags: HW
LayerCount: 2
Fore
SplineSet
403 1565 m 0
 324 1565 234 1622 234 1730 c 0
 234 1839 321 1901 403 1901 c 0
 485 1901 570 1838 570 1730 c 0
 570 1622 482 1565 403 1565 c 0
26 1565 m 0
 -54 1565 -141 1623 -141 1730 c 0
 -141 1838 -56 1901 26 1901 c 0
 108 1901 195 1839 195 1730 c 0
 195 1621 105 1565 26 1565 c 0
68 1516 m 1
 362 1516 l 1
 362 0 l 1
 68 0 l 1
 68 1516 l 1
EndSplineSet
EndChar

StartChar: Idotaccent
Encoding: 304 304 47
Width: 428
VWidth: 0
Flags: HW
LayerCount: 2
Fore
SplineSet
214 1566 m 0
 128 1566 35 1627 35 1745 c 0
 35 1864 126 1929 214 1929 c 0
 302 1929 395 1863 395 1745 c 0
 395 1627 300 1566 214 1566 c 0
67 1515 m 1
 361 1515 l 1
 361 0 l 1
 67 0 l 1
 67 1515 l 1
EndSplineSet
EndChar

StartChar: Igrave
Encoding: 204 204 48
Width: 429
VWidth: 0
Flags: HW
LayerCount: 2
Fore
SplineSet
169 2164 m 0
 231 2164 289 2120 313 2040 c 1
 399 1663 l 2
 403 1646 403 1637 403 1631 c 0
 403 1619 396 1566 344 1566 c 0
 312 1566 291 1586 275 1609 c 2
 67 1913 l 1
 39 1949 25 1986 25 2024 c 0
 25 2110 98 2164 169 2164 c 0
68 1515 m 1
 363 1515 l 1
 363 0 l 1
 68 0 l 1
 68 1515 l 1
EndSplineSet
EndChar

StartChar: Imacron
Encoding: 298 298 49
Width: 429
VWidth: 0
Flags: HW
LayerCount: 2
Fore
SplineSet
522 1566 m 1
 -93 1566 l 1
 -93 1820 l 1
 522 1820 l 1
 522 1566 l 1
68 1516 m 1
 362 1516 l 1
 362 0 l 1
 68 0 l 1
 68 1516 l 1
EndSplineSet
EndChar

StartChar: Iogonek
Encoding: 302 302 50
Width: 429
VWidth: 0
Flags: HW
LayerCount: 2
Fore
SplineSet
69 1516 m 1
 362 1516 l 1
 362 0 l 1
 319 0 l 1
 324 -9 l 1
 261 -29 l 2
 198 -50 179 -88 179 -107 c 0
 179 -131 206 -180 315 -180 c 2
 381 -180 l 1
 328 -403 l 1
 293 -407 l 2
 278 -409 261 -412 243 -412 c 0
 74 -412 -42 -281 -42 -141 c 0
 -42 -63 -6 18 69 64 c 1
 69 1516 l 1
EndSplineSet
EndChar

StartChar: Itilde
Encoding: 296 296 51
Width: 429
VWidth: 0
Flags: HW
LayerCount: 2
Fore
SplineSet
332 1566 m 0
 214 1566 77 1654 -14 1654 c 0
 -47 1654 -47 1609 -119 1609 c 0
 -153 1609 -184 1636 -184 1673 c 0
 -184 1685 -176 1707 -169 1717 c 1
 -114 1808 -39 1884 78 1884 c 0
 222 1884 387 1796 444 1796 c 0
 483 1796 474 1841 551 1841 c 0
 585 1841 614 1807 614 1777 c 0
 614 1757 608 1744 601 1734 c 0
 539 1641 455 1566 332 1566 c 0
68 1515 m 1
 362 1515 l 1
 362 0 l 1
 68 0 l 1
 68 1515 l 1
EndSplineSet
EndChar

StartChar: J
Encoding: 74 74 52
Width: 607
VWidth: 0
Flags: HW
LayerCount: 2
Fore
SplineSet
221 62 m 2
 221 1514 l 1
 514 1514 l 1
 514 7 l 2
 514 -271 339 -393 7 -394 c 2
 -44 -394 l 1
 -44 -138 l 1
 7 -138 l 2
 217 -138 221 -112 221 62 c 2
EndSplineSet
EndChar

StartChar: Jcircumflex
Encoding: 308 308 53
Width: 607
VWidth: 0
Flags: HW
LayerCount: 2
Fore
SplineSet
-37 1573 m 1
 -44 1571 -51 1567 -64 1567 c 0
 -64 1567 -66 1567 -69 1567 c 0
 -83 1567 -119 1571 -119 1620 c 0
 -119 1662 -106 1655 -106 1655 c 1
 157 2061 l 1
 175 2081 202 2096 235 2096 c 0
 261 2096 292 2090 316 2060 c 1
 589 1637 l 1
 589 1620 l 2
 589 1589 567 1567 536 1567 c 0
 529 1567 514 1571 508 1573 c 1
 235 1762 l 1
 -37 1573 l 1
221 63 m 2
 221 1515 l 1
 514 1515 l 1
 514 9 l 2
 514 -271 339 -391 7 -392 c 2
 -44 -392 l 1
 -44 -137 l 1
 7 -137 l 2
 217 -137 221 -111 221 63 c 2
EndSplineSet
EndChar

StartChar: K
Encoding: 75 75 54
Width: 1326
VWidth: 0
Flags: HW
LayerCount: 2
Fore
SplineSet
979 0 m 1
 371 662 l 1
 371 0 l 1
 77 0 l 1
 77 1516 l 1
 371 1516 l 1
 371 907 l 1
 910 1516 l 1
 1219 1516 l 1
 1219 1441 l 1
 614 788 l 1
 1311 74 l 1
 1311 0 l 1
 979 0 l 1
EndSplineSet
EndChar

StartChar: Kcommaaccent
Encoding: 310 310 55
Width: 1326
VWidth: 0
Flags: HW
LayerCount: 2
Fore
SplineSet
592 -604 m 2
 570 -604 l 1
 496 -524 l 1
 534 -489 l 2
 578 -449 595 -419 601 -375 c 1
 535 -342 502 -279 502 -218 c 0
 502 -97 595 -30 685 -30 c 0
 778 -30 879 -95 879 -227 c 0
 879 -378 744 -604 592 -604 c 2
979 0 m 1
 371 663 l 1
 371 0 l 1
 77 0 l 1
 77 1517 l 1
 371 1517 l 1
 371 908 l 1
 910 1517 l 1
 1219 1517 l 1
 1219 1442 l 1
 614 788 l 1
 1311 75 l 1
 1311 0 l 1
 979 0 l 1
EndSplineSet
EndChar

StartChar: L
Encoding: 76 76 56
Width: 1027
VWidth: 0
Flags: HW
LayerCount: 2
Fore
SplineSet
997 0 m 1
 77 0 l 1
 77 1516 l 1
 371 1516 l 1
 371 281 l 1
 997 281 l 1
 997 0 l 1
EndSplineSet
EndChar

StartChar: Lacute
Encoding: 313 313 57
Width: 1027
VWidth: 0
Flags: HW
LayerCount: 2
Fore
SplineSet
332 1632 m 0
 332 1641 334 1658 341 1672 c 1
 435 2027 l 1
 458 2108 517 2152 582 2152 c 0
 651 2152 723 2100 723 2014 c 0
 723 1977 709 1936 679 1898 c 2
 459 1607 l 1
 459 1607 421 1566 393 1566 c 0
 346 1566 332 1606 332 1632 c 0
997 0 m 1
 77 0 l 1
 77 1515 l 1
 371 1515 l 1
 371 280 l 1
 997 280 l 1
 997 0 l 1
EndSplineSet
EndChar

StartChar: Lcaron
Encoding: 317 317 58
Width: 1029
VWidth: 0
Flags: HW
LayerCount: 2
Fore
SplineSet
1153 960 m 1
 1148 966 1142 971 1137 977 c 2
 1081 1038 l 1
 1119 1073 l 2
 1163 1114 1177 1143 1183 1189 c 1
 1118 1223 1087 1285 1087 1346 c 0
 1087 1466 1179 1534 1270 1534 c 0
 1362 1534 1464 1469 1464 1337 c 0
 1464 1186 1328 960 1175 960 c 2
 1153 960 l 1
998 0 m 1
 77 0 l 1
 77 1515 l 1
 372 1515 l 1
 372 279 l 1
 998 279 l 1
 998 0 l 1
EndSplineSet
EndChar

StartChar: Lcommaaccent
Encoding: 315 315 59
Width: 1027
VWidth: 0
Flags: HW
LayerCount: 2
Fore
SplineSet
430 -604 m 2
 408 -604 l 1
 334 -524 l 1
 372 -489 l 2
 416 -449 433 -419 439 -375 c 1
 372 -342 341 -279 341 -218 c 0
 341 -98 432 -30 524 -30 c 0
 616 -30 718 -95 718 -227 c 0
 718 -378 583 -604 430 -604 c 2
997 0 m 1
 77 0 l 1
 77 1517 l 1
 371 1517 l 1
 371 282 l 1
 997 282 l 1
 997 0 l 1
EndSplineSet
EndChar

StartChar: M
Encoding: 77 77 60
Width: 1613
VWidth: 0
Flags: HW
LayerCount: 2
Fore
SplineSet
1536 1516 m 1
 1536 0 l 1
 1243 0 l 1
 1243 1095 l 1
 850 605 l 1
 767 605 l 1
 370 1108 l 1
 370 0 l 1
 77 0 l 1
 77 1516 l 1
 327 1516 l 1
 809 908 l 1
 1283 1516 l 1
 1536 1516 l 1
EndSplineSet
EndChar

StartChar: N
Encoding: 78 78 61
Width: 1595
VWidth: 0
Flags: HW
LayerCount: 2
Fore
SplineSet
359 1103 m 1
 359 0 l 1
 75 0 l 1
 75 1516 l 1
 304 1516 l 1
 1233 401 l 1
 1233 1516 l 1
 1520 1516 l 1
 1520 0 l 1
 1281 0 l 1
 359 1103 l 1
EndSplineSet
EndChar

StartChar: Nacute
Encoding: 323 323 62
Width: 1595
VWidth: 0
Flags: HW
LayerCount: 2
Fore
SplineSet
602 1632 m 0
 602 1643 603 1653 607 1666 c 2
 704 2028 l 1
 727 2110 787 2152 851 2152 c 0
 920 2152 993 2100 993 2014 c 0
 993 1975 977 1936 949 1898 c 2
 729 1609 l 1
 713 1585 699 1566 663 1566 c 0
 613 1566 602 1617 602 1632 c 0
359 1103 m 1
 359 0 l 1
 75 0 l 1
 75 1515 l 1
 304 1515 l 1
 1233 400 l 1
 1233 1515 l 1
 1520 1515 l 1
 1520 0 l 1
 1281 0 l 1
 359 1103 l 1
EndSplineSet
EndChar

StartChar: Ncaron
Encoding: 327 327 63
Width: 1595
VWidth: 0
Flags: HW
LayerCount: 2
Fore
SplineSet
1151 2043 m 0
 1151 2042 1153 2037 1145 2018 c 1
 875 1603 l 1
 853 1575 823 1567 796 1567 c 0
 769 1567 739 1575 717 1603 c 1
 443 2025 l 1
 443 2043 l 2
 443 2074 465 2096 496 2096 c 0
 504 2096 524 2091 531 2086 c 2
 796 1900 l 1
 1064 2086 l 2
 1072 2092 1080 2096 1097 2096 c 0
 1113 2096 1151 2083 1151 2043 c 0
359 1103 m 1
 359 0 l 1
 75 0 l 1
 75 1516 l 1
 304 1516 l 1
 1233 401 l 1
 1233 1516 l 1
 1520 1516 l 1
 1520 0 l 1
 1281 0 l 1
 359 1103 l 1
EndSplineSet
EndChar

StartChar: Ncommaaccent
Encoding: 325 325 64
Width: 1595
VWidth: 0
Flags: HW
LayerCount: 2
Fore
SplineSet
697 -604 m 2
 674 -604 l 1
 602 -523 l 1
 640 -489 l 2
 684 -449 700 -419 706 -375 c 1
 640 -341 609 -278 609 -218 c 0
 609 -98 700 -30 793 -30 c 0
 884 -30 984 -95 984 -227 c 0
 984 -378 849 -604 697 -604 c 2
359 1104 m 1
 359 0 l 1
 75 0 l 1
 75 1517 l 1
 304 1517 l 1
 1233 402 l 1
 1233 1517 l 1
 1520 1517 l 1
 1520 0 l 1
 1281 0 l 1
 359 1104 l 1
EndSplineSet
EndChar

StartChar: Ntilde
Encoding: 209 209 65
Width: 1595
VWidth: 0
Flags: HW
LayerCount: 2
Fore
SplineSet
914 1566 m 0
 796 1566 659 1654 568 1654 c 0
 533 1654 536 1609 463 1609 c 0
 429 1609 398 1636 398 1673 c 0
 398 1685 406 1707 413 1717 c 1
 468 1807 542 1884 660 1884 c 0
 804 1884 969 1796 1026 1796 c 0
 1065 1796 1056 1841 1133 1841 c 0
 1167 1841 1196 1807 1196 1777 c 0
 1196 1757 1190 1744 1183 1734 c 0
 1121 1641 1037 1566 914 1566 c 0
359 1103 m 1
 359 0 l 1
 75 0 l 1
 75 1515 l 1
 304 1515 l 1
 1233 401 l 1
 1233 1515 l 1
 1520 1515 l 1
 1520 0 l 1
 1281 0 l 1
 359 1103 l 1
EndSplineSet
EndChar

StartChar: O
Encoding: 79 79 66
Width: 1757
VWidth: 0
Flags: HW
LayerCount: 2
Fore
SplineSet
1701 759 m 0
 1701 331 1329 -19 877 -19 c 0
 423 -19 54 331 54 759 c 0
 54 1189 424 1536 877 1536 c 0
 1329 1536 1701 1189 1701 759 c 0
1400 759 m 0
 1400 1033 1162 1254 877 1254 c 0
 592 1254 356 1033 356 759 c 0
 356 485 592 265 877 265 c 0
 1162 265 1400 485 1400 759 c 0
EndSplineSet
EndChar

StartChar: OE
Encoding: 338 338 67
Width: 2297
VWidth: 0
Flags: HW
LayerCount: 2
Fore
SplineSet
1314 759 m 0
 1314 1036 1093 1254 836 1254 c 0
 512 1254 347 1014 347 758 c 0
 347 503 511 265 836 265 c 0
 1093 265 1314 482 1314 759 c 0
1314 1516 m 1
 2249 1516 l 1
 2249 1237 l 1
 1608 1237 l 1
 1608 907 l 1
 2235 907 l 1
 2235 631 l 1
 1608 631 l 1
 1608 279 l 1
 2262 279 l 1
 2262 0 l 1
 1314 0 l 1
 1314 188 l 1
 1187 60 1019 -19 836 -19 c 0
 315 -19 53 377 53 760 c 0
 53 1144 314 1536 836 1536 c 0
 1019 1536 1187 1457 1314 1331 c 1
 1314 1516 l 1
EndSplineSet
EndChar

StartChar: Oacute
Encoding: 211 211 68
Width: 1757
VWidth: 0
Flags: HW
LayerCount: 2
Fore
SplineSet
680 1632 m 0
 680 1643 682 1653 685 1666 c 2
 781 2029 l 1
 806 2110 865 2153 929 2153 c 0
 997 2153 1071 2101 1071 2015 c 0
 1071 1974 1053 1935 1025 1899 c 2
 807 1611 l 1
 793 1589 774 1566 739 1566 c 0
 683 1566 680 1623 680 1632 c 0
1701 759 m 0
 1701 330 1330 -20 877 -20 c 0
 423 -20 54 330 54 759 c 0
 54 1188 424 1536 877 1536 c 0
 1329 1536 1701 1188 1701 759 c 0
1400 759 m 0
 1400 1033 1162 1254 877 1254 c 0
 592 1254 356 1033 356 759 c 0
 356 484 592 264 877 264 c 0
 1162 264 1400 484 1400 759 c 0
EndSplineSet
EndChar

StartChar: Obreve
Encoding: 334 334 69
Width: 1757
VWidth: 0
Flags: HW
LayerCount: 2
Fore
SplineSet
1159 1907 m 1
 1157 1854 l 2
 1149 1668 1012 1567 876 1567 c 0
 738 1567 600 1667 593 1854 c 2
 591 1907 l 1
 793 1907 l 1
 799 1862 l 2
 806 1805 842 1783 875 1783 c 0
 907 1783 944 1806 950 1862 c 2
 955 1907 l 1
 1159 1907 l 1
1701 760 m 0
 1701 330 1329 -19 877 -19 c 0
 423 -19 54 330 54 760 c 0
 54 1188 424 1537 877 1537 c 0
 1329 1537 1701 1188 1701 760 c 0
1400 760 m 0
 1400 1034 1162 1254 877 1254 c 0
 592 1254 356 1034 356 760 c 0
 356 485 592 264 877 264 c 0
 1162 264 1400 485 1400 760 c 0
EndSplineSet
EndChar

StartChar: Ocircumflex
Encoding: 212 212 70
Width: 1757
VWidth: 0
Flags: HW
LayerCount: 2
Fore
SplineSet
876 1761 m 1
 598 1569 l 2
 597 1569 578 1565 577 1565 c 0
 545 1565 522 1588 522 1620 c 0
 522 1662 535 1655 535 1655 c 2
 798 2060 l 1
 816 2081 840 2096 876 2096 c 0
 909 2096 942 2081 958 2057 c 2
 1230 1637 l 1
 1230 1620 l 2
 1230 1620 1230 1618 1230 1615 c 0
 1230 1601 1226 1565 1177 1565 c 0
 1176 1565 1158 1565 1141 1577 c 2
 876 1761 l 1
1701 759 m 0
 1701 330 1329 -19 877 -19 c 0
 423 -19 54 330 54 759 c 0
 54 1187 424 1536 877 1536 c 0
 1329 1536 1701 1187 1701 759 c 0
1400 759 m 0
 1400 1033 1162 1254 877 1254 c 0
 592 1254 356 1033 356 759 c 0
 356 485 592 263 877 263 c 0
 1162 263 1400 485 1400 759 c 0
EndSplineSet
EndChar

StartChar: Odieresis
Encoding: 214 214 71
Width: 1757
VWidth: 0
Flags: HW
LayerCount: 2
Fore
SplineSet
1063 1565 m 0
 985 1565 895 1620 895 1730 c 0
 895 1838 982 1901 1063 1901 c 0
 1146 1901 1231 1837 1231 1730 c 0
 1231 1619 1141 1565 1063 1565 c 0
687 1565 m 0
 607 1565 520 1621 520 1730 c 0
 520 1836 603 1901 687 1901 c 0
 770 1901 855 1837 855 1730 c 0
 855 1619 765 1565 687 1565 c 0
1701 758 m 0
 1701 330 1329 -20 877 -20 c 0
 423 -20 54 330 54 758 c 0
 54 1187 424 1535 877 1535 c 0
 1329 1535 1701 1187 1701 758 c 0
1400 758 m 0
 1400 1032 1162 1253 877 1253 c 0
 592 1253 356 1032 356 758 c 0
 356 484 592 263 877 263 c 0
 1162 263 1400 484 1400 758 c 0
EndSplineSet
EndChar

StartChar: Ograve
Encoding: 210 210 72
Width: 1757
VWidth: 0
Flags: HW
LayerCount: 2
Fore
SplineSet
829 2164 m 0
 892 2164 949 2118 974 2040 c 1
 1060 1662 l 2
 1064 1648 1063 1634 1063 1630 c 0
 1063 1618 1056 1565 1004 1565 c 0
 973 1565 951 1583 936 1605 c 2
 727 1913 l 1
 700 1949 685 1984 685 2023 c 0
 685 2108 757 2164 829 2164 c 0
1701 758 m 0
 1701 330 1330 -21 877 -21 c 0
 423 -21 54 330 54 758 c 0
 54 1187 424 1535 877 1535 c 0
 1329 1535 1701 1187 1701 758 c 0
1400 758 m 0
 1400 1032 1162 1253 877 1253 c 0
 592 1253 356 1032 356 758 c 0
 356 484 592 264 877 264 c 0
 1162 264 1400 484 1400 758 c 0
EndSplineSet
EndChar

StartChar: Ohungarumlaut
Encoding: 336 336 73
Width: 1757
VWidth: 0
Flags: HW
LayerCount: 2
Fore
SplineSet
500 1632 m 0
 500 1647 504 1659 510 1672 c 1
 603 2029 l 1
 628 2109 686 2153 751 2153 c 0
 820 2153 892 2101 892 2015 c 0
 892 1976 877 1936 849 1899 c 2
 629 1610 l 1
 612 1585 598 1566 562 1566 c 0
 519 1566 500 1601 500 1632 c 0
859 1632 m 0
 859 1637 859 1648 865 1669 c 2
 961 2028 l 2
 983 2109 1044 2153 1108 2153 c 0
 1177 2153 1250 2101 1250 2015 c 0
 1250 1978 1237 1937 1207 1899 c 2
 987 1610 l 1
 969 1583 952 1566 918 1566 c 0
 862 1566 859 1623 859 1632 c 0
1701 759 m 0
 1701 330 1330 -20 877 -20 c 0
 423 -20 54 330 54 759 c 0
 54 1188 424 1536 877 1536 c 0
 1329 1536 1701 1188 1701 759 c 0
1400 759 m 0
 1400 1033 1162 1254 877 1254 c 0
 592 1254 356 1033 356 759 c 0
 356 484 592 264 877 264 c 0
 1162 264 1400 484 1400 759 c 0
EndSplineSet
EndChar

StartChar: Omacron
Encoding: 332 332 74
Width: 1757
VWidth: 0
Flags: HW
LayerCount: 2
Fore
SplineSet
1183 1566 m 1
 567 1566 l 1
 567 1820 l 1
 1183 1820 l 1
 1183 1566 l 1
1701 758 m 0
 1701 330 1329 -20 877 -20 c 0
 423 -20 54 330 54 758 c 0
 54 1188 424 1536 877 1536 c 0
 1329 1536 1701 1188 1701 758 c 0
1400 758 m 0
 1400 1033 1162 1254 877 1254 c 0
 592 1254 356 1033 356 758 c 0
 356 484 592 263 877 263 c 0
 1162 263 1400 484 1400 758 c 0
EndSplineSet
EndChar

StartChar: Oslash
Encoding: 216 216 75
Width: 1751
VWidth: 0
Flags: HW
LayerCount: 2
Fore
SplineSet
1701 760 m 0
 1701 330 1329 -19 877 -19 c 0
 762 -19 652 6 554 48 c 1
 406 -195 l 1
 223 -77 l 1
 367 146 l 1
 176 290 54 509 54 757 c 0
 54 1185 423 1536 877 1536 c 0
 999 1536 1115 1509 1219 1461 c 1
 1360 1693 l 1
 1540 1573 l 1
 1402 1359 l 1
 1585 1216 1701 1000 1701 760 c 0
1400 810 m 0
 1400 960 1342 1094 1248 1193 c 1
 703 294 l 1
 758 273 816 262 877 262 c 0
 1162 262 1400 507 1400 810 c 0
520 310 m 1
 1069 1215 l 1
 1009 1240 945 1253 877 1253 c 0
 592 1253 356 1011 356 708 c 0
 356 551 420 410 520 310 c 1
EndSplineSet
EndChar

StartChar: Otilde
Encoding: 213 213 76
Width: 1757
VWidth: 0
Flags: HW
LayerCount: 2
Fore
SplineSet
992 1567 m 0
 875 1567 739 1654 646 1654 c 0
 613 1654 615 1609 542 1609 c 0
 513 1609 476 1632 476 1674 c 0
 476 1696 486 1709 491 1717 c 0
 546 1808 620 1885 737 1885 c 0
 883 1885 1048 1795 1105 1795 c 0
 1143 1795 1133 1842 1212 1842 c 0
 1246 1842 1275 1808 1275 1778 c 0
 1275 1754 1270 1745 1262 1734 c 0
 1199 1642 1116 1567 992 1567 c 0
1701 760 m 0
 1701 330 1329 -18 877 -18 c 0
 424 -18 54 330 54 760 c 0
 54 1188 424 1537 877 1537 c 0
 1329 1537 1701 1188 1701 760 c 0
1400 760 m 0
 1400 1034 1162 1254 877 1254 c 0
 592 1254 356 1034 356 760 c 0
 356 486 592 265 877 265 c 0
 1162 265 1400 486 1400 760 c 0
EndSplineSet
EndChar

StartChar: P
Encoding: 80 80 77
Width: 1038
VWidth: 0
Flags: HW
LayerCount: 2
Fore
SplineSet
77 1516 m 1
 469 1516 l 2
 759 1516 1012 1395 1012 1092 c 0
 1012 827 826 639 421 639 c 2
 370 639 l 1
 370 0 l 1
 77 0 l 1
 77 1516 l 1
370 1250 m 1
 370 856 l 1
 591 859 709 889 709 1056 c 0
 709 1158 689 1250 449 1250 c 2
 370 1250 l 1
EndSplineSet
EndChar

StartChar: Q
Encoding: 81 81 78
Width: 1757
VWidth: 0
Flags: HW
LayerCount: 2
Fore
SplineSet
1400 704 m 0
 1400 1005 1162 1248 877 1248 c 0
 592 1248 356 1006 356 704 c 0
 356 404 592 161 877 161 c 0
 1162 161 1400 404 1400 704 c 0
1204 -433 m 2
 1007 -372 862 -171 794 -22 c 1
 378 18 54 350 54 753 c 0
 54 1181 424 1529 877 1529 c 0
 1329 1529 1701 1182 1701 754 c 0
 1701 396 1443 94 1093 5 c 1
 1163 -94 1270 -196 1402 -196 c 2
 1458 -196 l 1
 1458 -303 l 1
 1225 -439 l 1
 1204 -433 l 2
EndSplineSet
EndChar

StartChar: R
Encoding: 82 82 79
Width: 1096
VWidth: 0
Flags: HW
LayerCount: 2
Fore
SplineSet
729 697 m 1
 820 487 941 284 1054 108 c 1
 1052 0 l 1
 780 0 l 1
 765 25 l 1
 678 160 541 432 445 644 c 1
 436 644 430 644 421 644 c 2
 371 644 l 1
 371 0 l 1
 78 0 l 1
 78 1516 l 1
 469 1516 l 2
 753 1516 1007 1395 1007 1095 c 0
 1007 918 919 770 729 697 c 1
371 1250 m 1
 371 856 l 1
 587 856 704 876 704 1056 c 0
 704 1159 684 1250 448 1250 c 2
 371 1250 l 1
EndSplineSet
EndChar

StartChar: Racute
Encoding: 340 340 80
Width: 1096
VWidth: 0
Flags: HW
LayerCount: 2
Fore
SplineSet
366 1632 m 0
 366 1644 367 1653 371 1667 c 2
 466 2028 l 1
 491 2110 551 2152 614 2152 c 0
 681 2152 757 2101 757 2014 c 0
 757 1975 740 1935 711 1898 c 2
 491 1609 l 1
 478 1588 459 1566 424 1566 c 0
 364 1566 366 1626 366 1632 c 0
729 697 m 1
 820 488 941 284 1054 107 c 1
 1052 0 l 1
 780 0 l 1
 765 25 l 1
 678 158 543 429 446 643 c 1
 437 642 430 642 421 642 c 2
 371 642 l 1
 371 0 l 1
 78 0 l 1
 78 1515 l 1
 469 1515 l 2
 753 1515 1007 1394 1007 1093 c 0
 1007 918 919 771 729 697 c 1
371 1250 m 1
 371 856 l 1
 587 856 704 876 704 1057 c 0
 704 1158 684 1250 448 1250 c 2
 371 1250 l 1
EndSplineSet
EndChar

StartChar: Rcaron
Encoding: 344 344 81
Width: 1096
VWidth: 0
Flags: HW
LayerCount: 2
Fore
SplineSet
825 2084 m 1
 859 2096 l 1
 859 2096 866 2098 875 2098 c 0
 892 2098 916 2090 916 2043 c 0
 916 2042 901 2005 899 2003 c 2
 640 1605 l 2
 618 1573 586 1567 561 1567 c 0
 535 1567 502 1572 480 1605 c 2
 208 2025 l 1
 208 2043 l 2
 208 2074 230 2096 261 2096 c 2
 262 2096 l 2
 265 2096 275 2096 289 2090 c 1
 380 2027 473 1961 561 1900 c 1
 625 1944 687 1988 750 2032 c 2
 825 2084 l 1
729 697 m 1
 820 488 941 284 1054 108 c 1
 1052 0 l 1
 780 0 l 1
 765 25 l 1
 678 158 541 431 445 644 c 1
 436 644 430 644 421 644 c 2
 371 644 l 1
 371 0 l 1
 78 0 l 1
 78 1516 l 1
 469 1516 l 2
 754 1516 1007 1394 1007 1095 c 0
 1007 919 919 771 729 697 c 1
371 1250 m 1
 371 856 l 1
 587 856 704 876 704 1056 c 0
 704 1159 684 1250 448 1250 c 2
 371 1250 l 1
EndSplineSet
EndChar

StartChar: Rcommaaccent
Encoding: 342 342 82
Width: 1096
VWidth: 0
Flags: HW
LayerCount: 2
Fore
SplineSet
461 -604 m 2
 439 -604 l 1
 365 -524 l 1
 403 -489 l 2
 447 -449 464 -419 470 -375 c 1
 404 -342 372 -279 372 -218 c 0
 372 -97 465 -30 555 -30 c 0
 647 -30 749 -95 749 -227 c 0
 749 -378 614 -604 461 -604 c 2
729 698 m 1
 820 488 941 285 1054 109 c 1
 1052 0 l 1
 780 0 l 1
 765 25 l 1
 678 160 541 431 445 645 c 1
 436 645 429 645 421 645 c 2
 371 645 l 1
 371 0 l 1
 78 0 l 1
 78 1517 l 1
 469 1517 l 2
 753 1517 1007 1396 1007 1096 c 0
 1007 919 919 771 729 698 c 1
371 1251 m 1
 371 857 l 1
 587 857 704 877 704 1057 c 0
 704 1160 684 1251 448 1251 c 2
 371 1251 l 1
EndSplineSet
EndChar

StartChar: S
Encoding: 83 83 83
Width: 990
VWidth: 0
Flags: HW
LayerCount: 2
Fore
SplineSet
530 589 m 2
 215 798 l 2
 84 885 21 1010 21 1131 c 0
 21 1340 205 1537 516 1537 c 0
 673 1537 840 1468 887 1426 c 2
 904 1411 l 1
 904 1067 l 1
 821 1133 l 2
 793 1155 652 1257 534 1257 c 0
 382 1257 331 1192 331 1129 c 0
 331 1079 370 1017 454 963 c 2
 711 798 l 1
 897 673 961 555 961 407 c 0
 961 128 707 -14 462 -14 c 0
 319 -14 175 36 68 137 c 2
 52 152 l 1
 52 500 l 1
 135 434 l 2
 235 354 316 269 477 269 c 0
 593 269 668 321 668 415 c 0
 668 464 663 501 530 589 c 2
EndSplineSet
EndChar

StartChar: Sacute
Encoding: 346 346 84
Width: 990
VWidth: 0
Flags: HW
LayerCount: 2
Fore
SplineSet
295 1633 m 0
 295 1643 297 1655 300 1666 c 2
 397 2029 l 1
 420 2111 481 2152 544 2152 c 0
 611 2152 686 2103 686 2015 c 0
 686 1975 670 1937 642 1899 c 1
 422 1609 l 1
 408 1588 392 1567 356 1567 c 0
 306 1567 295 1618 295 1633 c 0
530 589 m 2
 215 797 l 2
 84 884 21 1009 21 1131 c 0
 21 1340 205 1537 516 1537 c 0
 673 1537 840 1468 887 1426 c 2
 904 1411 l 1
 904 1067 l 1
 821 1133 l 2
 793 1155 652 1257 534 1257 c 0
 382 1257 331 1192 331 1129 c 0
 331 1079 370 1017 454 963 c 2
 711 798 l 1
 897 675 961 555 961 407 c 0
 961 128 707 -14 462 -14 c 0
 320 -14 175 34 68 137 c 2
 52 152 l 1
 52 500 l 1
 135 434 l 2
 235 354 316 269 477 269 c 0
 593 269 668 320 668 415 c 0
 668 464 663 500 530 589 c 2
EndSplineSet
EndChar

StartChar: Scaron
Encoding: 352 352 85
Width: 990
VWidth: 0
Flags: HW
LayerCount: 2
Fore
SplineSet
190 2095 m 0
 198 2095 218 2090 225 2085 c 2
 490 1899 l 1
 582 1963 673 2026 764 2089 c 1
 771 2091 778 2095 791 2095 c 0
 817 2095 845 2067 845 2041 c 0
 845 1999 832 2006 832 2006 c 2
 568 1600 l 1
 547 1579 522 1566 490 1566 c 0
 455 1566 430 1580 412 1601 c 1
 137 2024 l 1
 137 2041 l 2
 137 2057 150 2095 190 2095 c 0
530 589 m 2
 215 797 l 2
 84 883 21 1009 21 1131 c 0
 21 1340 205 1536 516 1536 c 0
 673 1536 840 1469 887 1426 c 2
 904 1411 l 1
 904 1072 l 1
 823 1132 l 2
 792 1155 652 1257 534 1257 c 0
 383 1257 331 1190 331 1129 c 0
 331 1080 370 1017 454 963 c 1
 711 797 l 1
 897 674 961 554 961 407 c 0
 961 126 707 -14 462 -14 c 0
 320 -14 175 35 68 135 c 2
 52 150 l 1
 52 504 l 1
 136 434 l 2
 235 352 316 267 477 267 c 0
 593 267 668 320 668 414 c 0
 668 464 663 500 530 589 c 2
EndSplineSet
EndChar

StartChar: Scedilla
Encoding: 350 350 86
Width: 990
VWidth: 0
Flags: HW
LayerCount: 2
Fore
SplineSet
476 -439 m 0
 388 -439 307 -416 250 -383 c 1
 245 -376 l 1
 245 -376 221 -374 221 -329 c 0
 221 -274 271 -272 283 -272 c 0
 284 -272 285 -272 285 -272 c 0
 326 -272 382 -289 438 -289 c 0
 496 -289 499 -275 499 -272 c 1
 480 -257 393 -255 367 -255 c 2
 296 -255 l 1
 379 -9 l 1
 264 6 154 53 68 135 c 2
 52 150 l 1
 52 502 l 1
 135 433 l 2
 234 352 316 267 477 267 c 0
 593 267 668 320 668 414 c 0
 668 464 663 500 530 589 c 2
 215 796 l 2
 84 882 21 1008 21 1131 c 0
 21 1340 205 1536 516 1536 c 0
 673 1536 840 1469 887 1426 c 2
 904 1411 l 1
 904 1072 l 1
 823 1132 l 2
 792 1154 652 1256 534 1256 c 0
 382 1256 331 1190 331 1128 c 0
 331 1079 370 1016 454 963 c 1
 711 796 l 1
 897 674 961 555 961 407 c 0
 961 167 772 28 565 -5 c 1
 556 -33 l 1
 660 -56 733 -134 733 -237 c 0
 733 -393 586 -439 476 -439 c 0
EndSplineSet
EndChar

StartChar: Scommaaccent
Encoding: 536 536 87
Width: 990
VWidth: 0
Flags: HW
LayerCount: 2
Fore
SplineSet
391 -619 m 2
 369 -619 l 1
 296 -540 l 1
 334 -505 l 2
 379 -464 394 -435 400 -391 c 1
 335 -357 303 -294 303 -233 c 0
 303 -113 395 -44 487 -44 c 0
 578 -44 679 -110 679 -241 c 0
 679 -393 543 -619 391 -619 c 2
530 589 m 2
 215 798 l 2
 84 885 21 1010 21 1131 c 0
 21 1340 205 1537 516 1537 c 0
 673 1537 840 1468 887 1426 c 2
 904 1411 l 1
 904 1067 l 1
 821 1133 l 2
 793 1155 652 1257 534 1257 c 0
 382 1257 331 1192 331 1129 c 0
 331 1079 370 1017 454 963 c 2
 711 798 l 1
 897 673 961 555 961 407 c 0
 961 128 707 -14 462 -14 c 0
 319 -14 175 36 68 137 c 2
 52 152 l 1
 52 501 l 1
 135 434 l 2
 234 354 316 269 477 269 c 0
 593 269 668 321 668 415 c 0
 668 464 663 501 530 589 c 2
EndSplineSet
EndChar

StartChar: T
Encoding: 84 84 88
Width: 1312
VWidth: 0
Flags: HW
LayerCount: 2
Fore
SplineSet
-12 1516 m 1
 1324 1516 l 1
 1324 1238 l 1
 802 1238 l 1
 802 0 l 1
 508 0 l 1
 508 1238 l 1
 -12 1238 l 1
 -12 1516 l 1
EndSplineSet
EndChar

StartChar: Tcaron
Encoding: 356 356 89
Width: 1312
VWidth: 0
Flags: HW
LayerCount: 2
Fore
SplineSet
1010 2043 m 0
 1010 2042 1012 2037 1004 2018 c 1
 734 1602 l 1
 712 1577 684 1567 655 1567 c 0
 628 1567 598 1575 576 1603 c 1
 302 2025 l 1
 302 2043 l 2
 302 2074 324 2096 355 2096 c 0
 363 2096 383 2091 390 2086 c 2
 655 1900 l 1
 747 1964 838 2027 929 2090 c 1
 936 2092 943 2096 956 2096 c 0
 972 2096 1010 2083 1010 2043 c 0
-12 1516 m 1
 1324 1516 l 1
 1324 1238 l 1
 802 1238 l 1
 802 0 l 1
 508 0 l 1
 508 1238 l 1
 -12 1238 l 1
 -12 1516 l 1
EndSplineSet
EndChar

StartChar: Tcommaaccent
Encoding: 65537 -1 90
Width: 1312
VWidth: 0
Flags: HW
LayerCount: 2
Fore
SplineSet
556 -604 m 2
 533 -604 l 1
 461 -523 l 1
 499 -489 l 2
 543 -449 559 -419 565 -375 c 1
 499 -341 468 -278 468 -218 c 0
 468 -97 560 -30 652 -30 c 0
 742 -30 844 -95 844 -227 c 0
 844 -378 708 -604 556 -604 c 2
-12 1517 m 1
 -12 1240 l 1
 508 1240 l 1
 508 -102 l 1
 802 -102 l 1
 802 1240 l 1
 1324 1240 l 1
 1324 1517 l 1
 -12 1517 l 1
EndSplineSet
EndChar

StartChar: Thorn
Encoding: 222 222 91
Width: 1039
VWidth: 0
Flags: HW
LayerCount: 2
Fore
SplineSet
358 1553 m 1
 358 1269 l 1
 451 1269 l 2
 746 1269 1006 1142 1006 830 c 0
 1006 555 815 358 401 358 c 2
 357 358 l 1
 357 0 l 1
 49 0 l 1
 49 1553 l 1
 358 1553 l 1
359 637 m 1
 580 641 693 670 693 838 c 0
 693 940 673 1033 430 1033 c 2
 359 1033 l 1
 359 637 l 1
EndSplineSet
EndChar

StartChar: U
Encoding: 85 85 92
Width: 1486
VWidth: 0
Flags: HW
LayerCount: 2
Fore
SplineSet
1407 598 m 2
 1407 187 1071 -18 744 -18 c 0
 417 -18 78 187 78 597 c 2
 78 1515 l 1
 372 1515 l 1
 372 614 l 2
 372 372 553 257 741 257 c 0
 929 257 1113 373 1113 614 c 2
 1113 1515 l 1
 1407 1515 l 1
 1407 598 l 2
EndSplineSet
EndChar

StartChar: Uacute
Encoding: 218 218 93
Width: 1486
VWidth: 0
Flags: HW
LayerCount: 2
Fore
SplineSet
547 1632 m 0
 547 1643 549 1653 552 1666 c 2
 649 2029 l 1
 672 2109 732 2153 796 2153 c 0
 865 2153 938 2101 938 2015 c 0
 938 1974 922 1935 894 1899 c 2
 675 1611 l 1
 660 1587 644 1566 608 1566 c 0
 558 1566 547 1617 547 1632 c 0
1407 596 m 2
 1407 186 1071 -20 744 -20 c 0
 417 -20 78 186 78 595 c 2
 78 1515 l 1
 372 1515 l 1
 372 614 l 2
 372 371 553 256 741 256 c 0
 929 256 1113 372 1113 614 c 2
 1113 1515 l 1
 1407 1515 l 1
 1407 596 l 2
EndSplineSet
EndChar

StartChar: Ubreve
Encoding: 364 364 94
Width: 1486
VWidth: 0
Flags: HW
LayerCount: 2
Fore
SplineSet
1027 1907 m 1
 1025 1854 l 2
 1018 1667 880 1567 743 1567 c 0
 605 1567 467 1667 460 1854 c 2
 458 1907 l 1
 662 1907 l 1
 667 1862 l 2
 673 1806 710 1783 742 1783 c 0
 774 1783 812 1806 818 1862 c 2
 823 1907 l 1
 1027 1907 l 1
1407 597 m 2
 1407 187 1071 -19 744 -19 c 0
 417 -19 78 187 78 596 c 2
 78 1515 l 1
 372 1515 l 1
 372 614 l 2
 372 372 553 257 741 257 c 0
 929 257 1113 373 1113 614 c 2
 1113 1515 l 1
 1407 1515 l 1
 1407 597 l 2
EndSplineSet
EndChar

StartChar: Ucircumflex
Encoding: 219 219 95
Width: 1486
VWidth: 0
Flags: HW
LayerCount: 2
Fore
SplineSet
1009 1576 m 2
 742 1761 l 1
 476 1576 l 1
 476 1576 457 1565 443 1565 c 0
 411 1565 388 1588 388 1620 c 0
 388 1662 401 1655 401 1655 c 1
 665 2061 l 1
 683 2079 707 2096 742 2096 c 0
 773 2096 807 2084 824 2057 c 2
 1096 1637 l 1
 1096 1620 l 2
 1096 1620 1096 1618 1096 1615 c 0
 1096 1601 1092 1565 1043 1565 c 0
 1036 1565 1016 1571 1009 1576 c 2
1407 597 m 2
 1407 187 1071 -19 744 -19 c 0
 417 -19 78 187 78 596 c 2
 78 1515 l 1
 372 1515 l 1
 372 613 l 2
 372 371 553 256 741 256 c 0
 929 256 1113 372 1113 613 c 2
 1113 1515 l 1
 1407 1515 l 1
 1407 597 l 2
EndSplineSet
EndChar

StartChar: Udieresis
Encoding: 220 220 96
Width: 1486
VWidth: 0
Flags: HW
LayerCount: 2
Fore
SplineSet
931 1565 m 0
 853 1565 762 1620 762 1730 c 0
 762 1838 849 1901 931 1901 c 0
 1014 1901 1098 1837 1098 1730 c 0
 1098 1620 1010 1565 931 1565 c 0
554 1565 m 0
 475 1565 387 1621 387 1730 c 0
 387 1837 471 1901 554 1901 c 0
 636 1901 723 1838 723 1730 c 0
 723 1619 632 1565 554 1565 c 0
1407 596 m 2
 1407 186 1071 -20 744 -20 c 0
 417 -20 78 186 78 595 c 2
 78 1514 l 1
 372 1514 l 1
 372 612 l 2
 372 370 553 255 741 255 c 0
 929 255 1113 371 1113 612 c 2
 1113 1514 l 1
 1407 1514 l 1
 1407 596 l 2
EndSplineSet
EndChar

StartChar: Ugrave
Encoding: 217 217 97
Width: 1486
VWidth: 0
Flags: HW
LayerCount: 2
Fore
SplineSet
697 2164 m 0
 760 2164 816 2118 841 2040 c 1
 926 1664 l 1
 932 1645 931 1635 931 1630 c 0
 931 1613 923 1565 872 1565 c 0
 841 1565 819 1583 804 1605 c 2
 595 1913 l 1
 566 1950 554 1987 554 2023 c 0
 554 2107 625 2164 697 2164 c 0
1407 596 m 2
 1407 185 1071 -21 744 -21 c 0
 417 -21 78 185 78 594 c 2
 78 1514 l 1
 372 1514 l 1
 372 614 l 2
 372 370 553 255 741 255 c 0
 929 255 1113 371 1113 614 c 2
 1113 1514 l 1
 1407 1514 l 1
 1407 596 l 2
EndSplineSet
EndChar

StartChar: Uhungarumlaut
Encoding: 368 368 98
Width: 1486
VWidth: 0
Flags: HW
LayerCount: 2
Fore
SplineSet
366 1632 m 0
 366 1658 373 1663 375 1669 c 2
 470 2029 l 1
 494 2110 554 2153 618 2153 c 0
 685 2153 759 2101 759 2015 c 0
 759 1976 743 1935 714 1899 c 2
 495 1610 l 1
 482 1591 465 1566 428 1566 c 0
 385 1566 366 1601 366 1632 c 0
726 1632 m 0
 726 1637 726 1649 732 1669 c 2
 827 2029 l 1
 852 2107 909 2153 975 2153 c 0
 1044 2153 1116 2101 1116 2015 c 0
 1116 1978 1103 1937 1073 1899 c 2
 853 1610 l 1
 836 1585 818 1566 784 1566 c 0
 724 1566 726 1626 726 1632 c 0
1407 596 m 2
 1407 186 1071 -20 744 -20 c 0
 417 -20 78 186 78 595 c 2
 78 1515 l 1
 372 1515 l 1
 372 614 l 2
 372 371 553 256 741 256 c 0
 929 256 1113 372 1113 614 c 2
 1113 1515 l 1
 1407 1515 l 1
 1407 596 l 2
EndSplineSet
EndChar

StartChar: Umacron
Encoding: 362 362 99
Width: 1486
VWidth: 0
Flags: HW
LayerCount: 2
Fore
SplineSet
1050 1566 m 1
 435 1566 l 1
 435 1820 l 1
 1050 1820 l 1
 1050 1566 l 1
1407 596 m 2
 1407 187 1071 -20 744 -20 c 0
 416 -20 78 187 78 595 c 2
 78 1515 l 1
 372 1515 l 1
 372 614 l 2
 372 372 553 257 741 257 c 0
 929 257 1113 373 1113 614 c 2
 1113 1515 l 1
 1407 1515 l 1
 1407 596 l 2
EndSplineSet
EndChar

StartChar: Uogonek
Encoding: 370 370 100
Width: 1486
VWidth: 0
Flags: HW
LayerCount: 2
Fore
SplineSet
485 -160 m 0
 485 -100 504 -39 543 9 c 1
 291 76 78 274 78 597 c 2
 78 1516 l 1
 372 1516 l 1
 372 614 l 2
 372 372 553 257 741 257 c 0
 929 257 1113 373 1113 614 c 2
 1113 1516 l 1
 1407 1516 l 1
 1407 597 l 2
 1407 227 1132 22 839 -13 c 1
 848 -28 l 1
 788 -48 l 2
 724 -70 706 -107 706 -125 c 0
 706 -150 732 -200 842 -200 c 2
 908 -200 l 1
 856 -416 l 1
 827 -424 l 2
 805 -430 786 -431 770 -431 c 0
 601 -431 485 -301 485 -160 c 0
EndSplineSet
EndChar

StartChar: Uring
Encoding: 366 366 101
Width: 1486
VWidth: 0
Flags: HW
LayerCount: 2
Fore
SplineSet
742 1897 m 0
 698 1897 669 1876 669 1834 c 0
 669 1794 701 1769 743 1769 c 0
 784 1769 814 1792 814 1834 c 0
 814 1876 785 1897 742 1897 c 0
743 2102 m 0
 880 2102 1032 2013 1032 1834 c 0
 1032 1654 880 1566 742 1566 c 0
 604 1566 453 1656 453 1835 c 0
 453 2014 605 2102 743 2102 c 0
1407 597 m 2
 1407 186 1071 -19 744 -19 c 0
 417 -19 78 186 78 596 c 2
 78 1515 l 1
 372 1515 l 1
 372 613 l 2
 372 371 553 256 741 256 c 0
 929 256 1113 372 1113 613 c 2
 1113 1515 l 1
 1407 1515 l 1
 1407 597 l 2
EndSplineSet
EndChar

StartChar: Utilde
Encoding: 360 360 102
Width: 1486
VWidth: 0
Flags: HW
LayerCount: 2
Fore
SplineSet
859 1548 m 0
 741 1548 604 1636 513 1636 c 0
 478 1636 481 1591 408 1591 c 0
 374 1591 343 1618 343 1655 c 0
 343 1667 350 1690 358 1700 c 1
 413 1790 487 1866 605 1866 c 0
 749 1866 914 1778 971 1778 c 0
 1010 1778 1001 1823 1078 1823 c 0
 1112 1823 1141 1789 1141 1759 c 0
 1141 1739 1135 1725 1128 1715 c 0
 1066 1623 982 1548 859 1548 c 0
1407 595 m 2
 1407 186 1071 -20 744 -20 c 0
 417 -20 78 186 78 594 c 2
 78 1515 l 1
 372 1515 l 1
 372 614 l 2
 372 371 553 256 741 256 c 0
 929 256 1113 372 1113 614 c 2
 1113 1515 l 1
 1407 1515 l 1
 1407 595 l 2
EndSplineSet
EndChar

StartChar: V
Encoding: 86 86 103
Width: 1281
VWidth: 0
Flags: HW
LayerCount: 2
Fore
SplineSet
1360 1515 m 1
 712 -13 l 1
 587 -13 l 1
 -84 1515 l 1
 227 1515 l 1
 649 456 l 1
 1051 1515 l 1
 1360 1515 l 1
EndSplineSet
EndChar

StartChar: W
Encoding: 87 87 104
Width: 2193
VWidth: 0
Flags: HW
LayerCount: 2
Fore
SplineSet
1228 1516 m 1
 1584 552 l 1
 1934 1516 l 1
 2245 1516 l 1
 1648 -25 l 1
 1521 -25 l 1
 1094 1070 l 1
 658 -22 l 1
 539 -22 l 1
 -55 1516 l 1
 267 1516 l 1
 599 560 l 1
 967 1516 l 1
 1228 1516 l 1
EndSplineSet
EndChar

StartChar: X
Encoding: 88 88 105
Width: 1518
VWidth: 0
Flags: HW
LayerCount: 2
Fore
SplineSet
1614 0 m 1
 1238 0 l 1
 755 594 l 1
 222 0 l 1
 -101 0 l 1
 558 785 l 1
 -67 1516 l 1
 319 1516 l 1
 755 966 l 1
 1195 1516 l 1
 1582 1516 l 1
 943 783 l 1
 1614 0 l 1
EndSplineSet
EndChar

StartChar: Y
Encoding: 89 89 106
Width: 1266
VWidth: 0
Flags: HW
LayerCount: 2
Fore
SplineSet
788 0 m 1
 478 0 l 1
 478 786 l 1
 -98 1516 l 1
 266 1516 l 1
 631 994 l 1
 1012 1516 l 1
 1359 1516 l 1
 788 781 l 1
 788 0 l 1
EndSplineSet
EndChar

StartChar: Yacute
Encoding: 221 221 107
Width: 1266
VWidth: 0
Flags: HW
LayerCount: 2
Fore
SplineSet
435 1632 m 0
 435 1643 436 1653 440 1666 c 2
 537 2028 l 1
 560 2110 620 2152 684 2152 c 0
 752 2152 826 2100 826 2014 c 0
 826 1975 810 1936 782 1898 c 2
 562 1609 l 1
 546 1585 532 1566 496 1566 c 0
 446 1566 435 1617 435 1632 c 0
788 0 m 1
 478 0 l 1
 478 786 l 1
 -98 1515 l 1
 266 1515 l 1
 631 993 l 1
 1012 1515 l 1
 1359 1515 l 1
 788 780 l 1
 788 0 l 1
EndSplineSet
EndChar

StartChar: Ydieresis
Encoding: 376 376 108
Width: 1266
VWidth: 0
Flags: HW
LayerCount: 2
Fore
SplineSet
818 1565 m 0
 740 1565 650 1622 650 1730 c 0
 650 1839 737 1901 818 1901 c 0
 901 1901 986 1838 986 1730 c 0
 986 1622 898 1565 818 1565 c 0
442 1565 m 0
 362 1565 275 1623 275 1730 c 0
 275 1838 360 1901 442 1901 c 0
 524 1901 611 1839 611 1730 c 0
 611 1621 521 1565 442 1565 c 0
788 0 m 1
 478 0 l 1
 478 785 l 1
 -98 1516 l 1
 266 1516 l 1
 631 994 l 1
 1012 1516 l 1
 1359 1516 l 1
 788 781 l 1
 788 0 l 1
EndSplineSet
EndChar

StartChar: Z
Encoding: 90 90 109
Width: 1392
VWidth: 0
Flags: HW
LayerCount: 2
Fore
SplineSet
95 1516 m 1
 1326 1516 l 1
 1375 1465 l 1
 536 270 l 1
 1365 270 l 1
 1365 0 l 1
 56 0 l 1
 42 66 l 1
 873 1250 l 1
 95 1250 l 1
 95 1516 l 1
EndSplineSet
EndChar

StartChar: Zacute
Encoding: 377 377 110
Width: 1392
VWidth: 0
Flags: HW
LayerCount: 2
Fore
SplineSet
509 1632 m 0
 509 1643 510 1653 514 1666 c 2
 611 2028 l 1
 634 2110 694 2152 758 2152 c 0
 826 2152 900 2100 900 2014 c 0
 900 1975 884 1936 856 1898 c 2
 636 1609 l 1
 620 1585 606 1566 570 1566 c 0
 520 1566 509 1617 509 1632 c 0
95 1515 m 1
 1326 1515 l 1
 1375 1464 l 1
 536 270 l 1
 1365 270 l 1
 1365 0 l 1
 55 0 l 1
 42 67 l 1
 873 1250 l 1
 95 1250 l 1
 95 1515 l 1
EndSplineSet
EndChar

StartChar: Zcaron
Encoding: 381 381 111
Width: 1392
VWidth: 0
Flags: HW
LayerCount: 2
Fore
SplineSet
1059 2043 m 0
 1059 2042 1061 2037 1053 2018 c 1
 783 1602 l 1
 761 1577 733 1567 704 1567 c 0
 677 1567 647 1575 625 1603 c 1
 351 2025 l 1
 351 2043 l 2
 351 2074 373 2096 404 2096 c 0
 412 2096 432 2091 439 2086 c 2
 704 1900 l 1
 796 1964 887 2027 978 2090 c 1
 985 2092 992 2096 1005 2096 c 0
 1021 2096 1059 2083 1059 2043 c 0
95 1516 m 1
 1328 1516 l 1
 1374 1462 l 1
 536 271 l 1
 1365 271 l 1
 1365 0 l 1
 55 0 l 1
 42 67 l 1
 873 1250 l 1
 95 1250 l 1
 95 1516 l 1
EndSplineSet
EndChar

StartChar: Zdotaccent
Encoding: 379 379 112
Width: 1392
VWidth: 0
Flags: HW
LayerCount: 2
Fore
SplineSet
705 1566 m 0
 619 1566 524 1627 524 1745 c 0
 524 1865 617 1929 705 1929 c 0
 792 1929 886 1864 886 1745 c 0
 886 1626 790 1566 705 1566 c 0
95 1515 m 1
 1324 1515 l 1
 1376 1467 l 1
 536 271 l 1
 1365 271 l 1
 1365 0 l 1
 55 0 l 1
 42 67 l 1
 873 1250 l 1
 95 1250 l 1
 95 1515 l 1
EndSplineSet
EndChar

StartChar: a
Encoding: 97 97 113
Width: 958
VWidth: 0
Flags: HW
LayerCount: 2
Fore
SplineSet
551 391 m 1
 419 351 326 309 326 245 c 0
 326 205 336 188 344 180 c 0
 351 173 364 169 381 169 c 0
 428 169 503 195 551 243 c 1
 551 391 l 1
354 -21 m 0
 191 -21 35 53 35 245 c 0
 35 372 162 488 425 549 c 2
 552 578 l 1
 552 585 552 591 552 594 c 0
 552 696 507 739 433 739 c 0
 336 739 252 696 191 637 c 2
 132 581 l 1
 46 840 l 1
 67 862 l 2
 117 915 269 1006 429 1006 c 0
 609 1006 831 920 831 675 c 2
 831 303 l 2
 831 230 843 246 935 202 c 2
 986 177 l 1
 830 -27 l 1
 791 -9 l 2
 742 14 678 52 631 102 c 1
 549 12 435 -21 354 -21 c 0
EndSplineSet
EndChar

StartChar: aacute
Encoding: 225 225 114
Width: 958
VWidth: 0
Flags: HW
LayerCount: 2
Fore
SplineSet
303 1112 m 0
 303 1123 304 1133 308 1146 c 2
 405 1508 l 1
 428 1588 488 1632 552 1632 c 0
 621 1632 694 1581 694 1494 c 0
 694 1455 678 1416 650 1378 c 2
 430 1089 l 1
 419 1072 407 1045 364 1045 c 0
 307 1045 303 1103 303 1112 c 0
551 390 m 1
 420 351 326 309 326 245 c 0
 326 204 336 186 344 178 c 0
 351 171 364 168 381 168 c 0
 428 168 503 194 551 242 c 1
 551 390 l 1
354 -21 m 0
 190 -21 35 53 35 246 c 0
 35 373 162 487 425 549 c 1
 552 577 l 1
 552 586 552 590 552 594 c 0
 552 696 507 739 433 739 c 0
 337 739 252 695 191 636 c 2
 132 580 l 1
 46 840 l 1
 67 863 l 2
 117 915 269 1004 429 1004 c 0
 608 1004 831 919 831 675 c 2
 831 302 l 2
 831 230 843 245 935 201 c 2
 986 176 l 1
 830 -28 l 1
 791 -10 l 2
 741 13 679 51 631 102 c 1
 549 13 434 -21 354 -21 c 0
EndSplineSet
EndChar

StartChar: abreve
Encoding: 259 259 115
Width: 958
VWidth: 0
Flags: HW
LayerCount: 2
Fore
SplineSet
783 1388 m 1
 781 1335 l 2
 774 1148 636 1047 499 1047 c 0
 361 1047 223 1148 216 1335 c 2
 214 1388 l 1
 418 1388 l 1
 423 1343 l 2
 429 1286 465 1265 498 1265 c 0
 531 1265 568 1287 574 1343 c 2
 579 1388 l 1
 783 1388 l 1
551 391 m 1
 420 352 326 311 326 246 c 0
 326 205 336 188 344 180 c 0
 351 173 364 169 381 169 c 0
 428 169 503 196 551 244 c 1
 551 391 l 1
354 -19 m 0
 191 -19 35 53 35 246 c 0
 35 375 162 489 425 551 c 1
 552 579 l 1
 552 586 552 592 552 595 c 0
 552 697 507 741 433 741 c 0
 337 741 252 697 190 638 c 2
 132 582 l 1
 46 841 l 1
 67 863 l 2
 118 916 269 1006 429 1006 c 0
 608 1006 831 920 831 676 c 2
 831 304 l 2
 831 232 843 246 935 202 c 2
 986 178 l 1
 831 -28 l 1
 791 -9 l 2
 741 14 678 52 630 104 c 1
 547 14 434 -19 354 -19 c 0
EndSplineSet
EndChar

StartChar: acircumflex
Encoding: 226 226 116
Width: 958
VWidth: 0
Flags: HW
LayerCount: 2
Fore
SplineSet
226 1053 m 1
 219 1051 212 1047 199 1047 c 0
 199 1047 197 1047 194 1047 c 0
 180 1047 144 1051 144 1100 c 0
 144 1142 157 1135 157 1135 c 1
 420 1541 l 1
 438 1561 465 1576 498 1576 c 0
 524 1576 556 1570 579 1540 c 1
 852 1117 l 1
 852 1100 l 2
 852 1069 830 1047 799 1047 c 0
 792 1047 777 1051 771 1053 c 1
 498 1243 l 1
 226 1053 l 1
551 391 m 1
 419 352 326 311 326 244 c 0
 326 204 336 187 344 179 c 0
 351 172 364 168 380 168 c 0
 427 168 503 195 551 244 c 1
 551 391 l 1
354 -21 m 0
 191 -21 35 53 35 245 c 0
 35 374 162 489 425 551 c 1
 552 579 l 1
 552 587 552 592 552 595 c 0
 552 697 507 741 433 741 c 0
 337 741 252 696 190 637 c 2
 132 581 l 1
 46 840 l 1
 67 862 l 2
 118 917 269 1006 429 1006 c 0
 609 1006 831 919 831 674 c 2
 831 303 l 2
 831 231 842 246 934 203 c 2
 986 179 l 1
 831 -27 l 1
 792 -9 l 2
 742 14 677 53 630 103 c 1
 547 14 435 -21 354 -21 c 0
EndSplineSet
EndChar

StartChar: acute
Encoding: 180 180 117
Width: 370
VWidth: 0
Flags: HW
LayerCount: 2
Fore
SplineSet
-11 142 m 0
 -11 153 -10 162 -6 176 c 2
 91 538 l 1
 114 620 174 662 238 662 c 0
 307 662 380 610 380 524 c 0
 380 485 364 446 336 408 c 2
 116 119 l 1
 103 100 89 76 50 76 c 0
 -3 76 -11 130 -11 142 c 0
EndSplineSet
EndChar

StartChar: adieresis
Encoding: 228 228 118
Width: 958
VWidth: 0
Flags: HW
LayerCount: 2
Fore
SplineSet
687 1047 m 0
 609 1047 518 1101 518 1211 c 0
 518 1321 606 1382 687 1382 c 0
 769 1382 854 1320 854 1211 c 0
 854 1101 765 1047 687 1047 c 0
310 1047 m 0
 231 1047 143 1102 143 1211 c 0
 143 1320 228 1382 310 1382 c 0
 391 1382 479 1321 479 1211 c 0
 479 1100 388 1047 310 1047 c 0
551 391 m 1
 419 352 326 309 326 245 c 0
 326 204 336 187 344 179 c 0
 351 172 364 169 380 169 c 0
 427 169 503 196 551 244 c 1
 551 391 l 1
354 -20 m 0
 191 -20 35 54 35 246 c 0
 35 374 162 489 425 551 c 1
 552 579 l 1
 552 586 552 592 552 595 c 0
 552 697 507 741 433 741 c 0
 337 741 252 696 190 637 c 2
 132 581 l 1
 46 841 l 1
 67 863 l 2
 117 916 269 1007 429 1007 c 0
 609 1007 831 919 831 675 c 2
 831 304 l 2
 831 231 843 246 934 203 c 2
 986 179 l 1
 831 -27 l 1
 792 -9 l 2
 742 14 677 53 630 104 c 1
 548 14 435 -20 354 -20 c 0
EndSplineSet
EndChar

StartChar: ae
Encoding: 230 230 119
Width: 1528
VWidth: 0
Flags: HW
LayerCount: 2
Fore
SplineSet
431 1008 m 0
 528 1008 651 968 722 870 c 1
 804 968 923 1017 1048 1017 c 0
 1309 1017 1463 788 1463 519 c 2
 1463 447 l 1
 835 447 l 1
 856 299 969 236 1103 236 c 0
 1177 236 1264 265 1341 322 c 2
 1422 382 l 1
 1422 98 l 1
 1401 83 l 2
 1308 15 1200 -17 1094 -17 c 0
 948 -17 805 45 711 152 c 1
 633 68 494 -19 355 -19 c 0
 190 -19 36 56 36 247 c 0
 36 375 163 490 425 551 c 2
 553 580 l 1
 553 589 553 592 553 596 c 0
 553 697 509 741 434 741 c 0
 338 741 254 698 191 639 c 2
 133 585 l 1
 47 841 l 1
 68 863 l 2
 119 918 270 1008 431 1008 c 0
574 452 m 1
 434 410 327 367 327 296 c 0
 327 225 351 218 385 218 c 0
 452 218 551 276 601 337 c 1
 589 375 581 415 574 452 c 1
852 669 m 1
 1193 669 l 1
 1175 731 1115 765 1048 765 c 0
 948 765 884 728 852 669 c 1
EndSplineSet
EndChar

StartChar: agrave
Encoding: 224 224 120
Width: 958
VWidth: 0
Flags: HW
LayerCount: 2
Fore
SplineSet
453 1644 m 0
 516 1644 572 1599 597 1522 c 1
 682 1145 l 1
 688 1129 687 1116 687 1111 c 0
 687 1100 687 1045 628 1045 c 0
 591 1045 572 1069 560 1087 c 2
 351 1393 l 1
 322 1431 310 1468 310 1504 c 0
 310 1588 381 1644 453 1644 c 0
551 391 m 1
 419 351 326 309 326 245 c 0
 326 204 336 186 344 178 c 0
 351 171 364 168 381 168 c 0
 428 168 503 194 551 242 c 1
 551 391 l 1
354 -21 m 0
 190 -21 35 53 35 246 c 0
 35 373 162 488 425 549 c 1
 552 577 l 1
 552 586 552 590 552 594 c 0
 552 696 507 739 433 739 c 0
 337 739 252 695 191 636 c 2
 132 580 l 1
 46 840 l 1
 67 862 l 2
 118 917 269 1007 429 1007 c 0
 609 1007 831 919 831 675 c 2
 831 302 l 2
 831 230 843 245 935 201 c 2
 986 177 l 1
 830 -29 l 1
 791 -10 l 2
 742 14 679 52 631 103 c 1
 549 14 435 -21 354 -21 c 0
EndSplineSet
EndChar

StartChar: amacron
Encoding: 257 257 121
Width: 958
VWidth: 0
Flags: HW
LayerCount: 2
Fore
SplineSet
806 1047 m 1
 191 1047 l 1
 191 1301 l 1
 806 1301 l 1
 806 1047 l 1
551 390 m 1
 419 351 326 310 326 244 c 0
 326 203 336 186 344 178 c 0
 351 171 364 168 380 168 c 0
 427 168 503 195 551 244 c 1
 551 390 l 1
354 -20 m 0
 191 -20 35 53 35 245 c 0
 35 373 162 488 425 550 c 1
 552 579 l 1
 552 587 552 592 552 595 c 0
 552 697 507 740 433 740 c 0
 337 740 252 696 190 638 c 2
 132 583 l 1
 46 840 l 1
 67 862 l 2
 117 915 269 1006 429 1006 c 0
 609 1006 831 918 831 674 c 2
 831 303 l 2
 831 231 843 244 934 202 c 2
 986 178 l 1
 830 -29 l 1
 791 -10 l 2
 742 14 678 52 630 103 c 1
 547 13 434 -20 354 -20 c 0
EndSplineSet
EndChar

StartChar: aogonek
Encoding: 261 261 122
Width: 958
VWidth: 0
Flags: HW
LayerCount: 2
Fore
SplineSet
551 391 m 1
 419 351 326 309 326 244 c 0
 326 204 336 187 344 179 c 0
 351 172 364 168 381 168 c 0
 428 168 503 194 551 242 c 1
 551 391 l 1
354 -22 m 0
 190 -22 35 52 35 245 c 0
 35 373 162 489 425 549 c 2
 552 578 l 1
 552 586 552 590 552 593 c 0
 552 695 507 739 433 739 c 0
 337 739 251 696 190 637 c 2
 132 582 l 1
 46 839 l 1
 67 861 l 2
 118 916 269 1006 429 1006 c 0
 609 1006 831 918 831 674 c 2
 831 304 l 2
 831 232 842 247 935 203 c 2
 986 179 l 1
 846 -6 l 1
 833 -11 818 -15 807 -21 c 0
 761 -44 747 -73 747 -90 c 0
 747 -113 774 -163 883 -163 c 2
 949 -163 l 1
 897 -380 l 1
 868 -388 l 2
 847 -394 828 -395 812 -395 c 0
 643 -395 525 -265 525 -124 c 0
 525 -40 563 46 639 94 c 1
 636 97 633 99 631 102 c 1
 549 13 435 -22 354 -22 c 0
EndSplineSet
EndChar

StartChar: aring
Encoding: 229 229 123
Width: 958
VWidth: 0
Flags: HW
LayerCount: 2
Fore
SplineSet
498 1378 m 0
 454 1378 425 1358 425 1315 c 0
 425 1274 457 1250 499 1250 c 0
 540 1250 570 1272 570 1315 c 0
 570 1358 542 1378 498 1378 c 0
499 1582 m 0
 636 1582 788 1495 788 1315 c 0
 788 1136 637 1046 498 1046 c 0
 360 1046 209 1137 209 1317 c 0
 209 1495 361 1582 499 1582 c 0
551 391 m 1
 419 352 326 310 326 245 c 0
 326 204 336 187 344 179 c 0
 351 172 364 168 381 168 c 0
 428 168 503 195 551 243 c 1
 551 391 l 1
354 -20 m 0
 191 -20 35 54 35 246 c 0
 35 374 162 489 425 550 c 2
 552 579 l 1
 552 587 552 592 552 595 c 0
 552 697 507 740 433 740 c 0
 337 740 252 696 190 638 c 2
 132 583 l 1
 46 840 l 1
 67 862 l 2
 118 917 269 1007 429 1007 c 0
 609 1007 831 920 831 676 c 2
 831 303 l 2
 831 231 843 246 935 202 c 2
 986 177 l 1
 831 -29 l 1
 791 -10 l 2
 741 13 678 52 630 103 c 1
 547 13 435 -20 354 -20 c 0
EndSplineSet
EndChar

StartChar: asciicircum
Encoding: 94 94 124
Width: 1304
VWidth: 0
Flags: HW
LayerCount: 2
Fore
SplineSet
538 1515 m 1
 749 1515 l 1
 1227 830 l 1
 892 830 l 1
 647 1236 l 1
 396 830 l 1
 80 830 l 1
 538 1515 l 1
EndSplineSet
EndChar

StartChar: asciitilde
Encoding: 126 126 125
Width: 624
VWidth: 0
Flags: HW
LayerCount: 2
Fore
SplineSet
410 193 m 0
 306 193 193 268 117 268 c 0
 91 268 102 229 28 229 c 0
 -2 229 -34 255 -34 291 c 0
 -34 318 -25 325 -22 330 c 0
 25 407 90 478 195 478 c 0
 320 478 462 402 506 402 c 0
 533 402 524 442 598 442 c 0
 636 442 658 407 658 380 c 0
 658 347 654 351 645 338 c 0
 592 260 519 193 410 193 c 0
EndSplineSet
EndChar

StartChar: atilde
Encoding: 227 227 126
Width: 958
VWidth: 0
Flags: HW
LayerCount: 2
Fore
SplineSet
615 1047 m 0
 497 1047 360 1135 269 1135 c 0
 235 1135 237 1089 164 1089 c 0
 134 1089 99 1114 99 1153 c 0
 99 1166 106 1187 113 1197 c 0
 168 1288 242 1365 361 1365 c 0
 505 1365 670 1276 727 1276 c 0
 766 1276 756 1322 834 1322 c 0
 872 1322 897 1286 897 1258 c 0
 897 1241 891 1223 884 1213 c 0
 822 1121 738 1047 615 1047 c 0
551 391 m 1
 419 351 326 310 326 245 c 0
 326 204 336 187 344 179 c 0
 351 172 364 168 381 168 c 0
 428 168 503 195 551 243 c 1
 551 391 l 1
354 -20 m 0
 191 -20 35 53 35 246 c 0
 35 374 162 489 425 550 c 2
 552 579 l 1
 552 587 552 592 552 595 c 0
 552 696 507 740 433 740 c 0
 337 740 252 696 190 637 c 2
 132 581 l 1
 46 840 l 1
 67 862 l 2
 118 917 269 1006 429 1006 c 0
 609 1006 831 919 831 675 c 2
 831 303 l 2
 831 230 843 245 935 201 c 2
 986 177 l 1
 831 -29 l 1
 791 -10 l 2
 741 13 678 52 630 103 c 1
 547 13 435 -20 354 -20 c 0
EndSplineSet
EndChar

StartChar: b
Encoding: 98 98 127
Width: 1063
VWidth: 0
Flags: HW
LayerCount: 2
Fore
SplineSet
556 767 m 0
 444 767 367 724 337 704 c 1
 337 222 l 1
 364 217 394 217 426 217 c 0
 619 217 744 346 744 526 c 0
 744 686 666 767 556 767 c 0
85 50 m 2
 56 63 l 1
 56 1490 l 1
 337 1490 l 1
 337 965 l 1
 414 1002 489 1017 564 1017 c 0
 817 1017 1033 835 1033 541 c 0
 1033 216 805 -18 420 -18 c 0
 232 -18 89 48 85 50 c 2
EndSplineSet
EndChar

StartChar: backslash
Encoding: 92 92 128
Width: 1096
VWidth: 0
Flags: HW
LayerCount: 2
Fore
SplineSet
792 0 m 1
 3 1516 l 1
 307 1516 l 1
 1098 0 l 1
 792 0 l 1
EndSplineSet
EndChar

StartChar: bar
Encoding: 124 124 129
Width: 429
VWidth: 0
Flags: HW
LayerCount: 2
Fore
SplineSet
362 1645 m 1
 362 -129 l 1
 68 -129 l 1
 68 1645 l 1
 362 1645 l 1
EndSplineSet
EndChar

StartChar: braceleft
Encoding: 123 123 130
Width: 740
VWidth: 0
Flags: HW
LayerCount: 2
Fore
SplineSet
227 451 m 2
 227 573 171 602 82 602 c 2
 31 602 l 1
 31 869 l 1
 82 869 l 2
 171 869 227 897 227 1016 c 2
 227 1374 l 1
 226 1639 451 1737 650 1737 c 2
 701 1737 l 1
 701 1468 l 1
 650 1468 l 2
 565 1468 506 1437 506 1306 c 2
 506 942 l 2
 506 852 455 780 382 730 c 1
 456 680 506 609 506 519 c 2
 506 154 l 2
 506 32 566 3 650 3 c 2
 701 3 l 1
 701 -266 l 1
 650 -266 l 2
 450 -266 227 -170 227 78 c 2
 227 451 l 2
EndSplineSet
EndChar

StartChar: braceright
Encoding: 125 125 131
Width: 740
VWidth: 0
Flags: HW
LayerCount: 2
Fore
SplineSet
514 1016 m 2
 514 897 571 869 659 869 c 2
 710 869 l 1
 710 602 l 1
 659 602 l 2
 569 602 514 573 514 451 c 2
 514 78 l 2
 514 -170 291 -266 91 -266 c 2
 40 -266 l 1
 40 3 l 1
 91 3 l 2
 175 3 235 32 235 154 c 2
 235 519 l 2
 235 609 286 681 359 730 c 1
 285 781 235 852 235 942 c 2
 235 1306 l 2
 235 1437 176 1468 91 1468 c 2
 40 1468 l 1
 40 1737 l 1
 91 1737 l 2
 290 1737 515 1639 514 1374 c 1
 514 1016 l 2
EndSplineSet
EndChar

StartChar: bracketleft
Encoding: 91 91 132
Width: 711
VWidth: 0
Flags: HW
LayerCount: 2
Fore
SplineSet
748 -18 m 1
 69 -18 l 1
 69 1567 l 1
 748 1567 l 1
 748 1280 l 1
 384 1280 l 1
 384 269 l 1
 748 269 l 1
 748 -18 l 1
EndSplineSet
EndChar

StartChar: bracketright
Encoding: 93 93 133
Width: 713
VWidth: 0
Flags: HW
LayerCount: 2
Fore
SplineSet
40 1567 m 1
 718 1567 l 1
 718 -18 l 1
 40 -18 l 1
 40 269 l 1
 402 269 l 1
 402 1280 l 1
 40 1280 l 1
 40 1567 l 1
EndSplineSet
EndChar

StartChar: breve
Encoding: 728 728 134
Width: 648
VWidth: 0
Flags: HW
LayerCount: 2
Fore
SplineSet
610 463 m 1
 608 410 l 2
 601 223 463 122 326 122 c 0
 188 122 50 223 43 410 c 2
 41 463 l 1
 245 463 l 1
 250 418 l 2
 256 360 293 338 325 338 c 0
 357 338 395 361 401 418 c 2
 406 463 l 1
 610 463 l 1
EndSplineSet
EndChar

StartChar: c
Encoding: 99 99 135
Width: 964
VWidth: 0
Flags: HW
LayerCount: 2
Fore
SplineSet
604 235 m 0
 674 235 764 272 832 313 c 1
 914 313 l 1
 914 67 l 1
 890 52 l 2
 781 -16 621 -19 592 -19 c 0
 276 -19 30 198 30 500 c 0
 30 809 291 1017 585 1017 c 0
 678 1017 797 1000 868 953 c 2
 891 938 l 1
 891 662 l 1
 816 702 l 2
 729 749 695 761 601 761 c 0
 419 761 316 629 316 501 c 0
 316 371 411 235 604 235 c 0
EndSplineSet
EndChar

StartChar: cacute
Encoding: 263 263 136
Width: 964
VWidth: 0
Flags: HW
LayerCount: 2
Fore
SplineSet
276 1112 m 0
 276 1123 277 1135 281 1147 c 2
 378 1509 l 1
 401 1589 461 1633 525 1633 c 0
 593 1633 667 1581 667 1495 c 0
 667 1456 651 1417 623 1379 c 2
 403 1090 l 1
 392 1073 380 1046 337 1046 c 0
 281 1046 276 1102 276 1112 c 0
604 234 m 0
 674 234 764 272 832 313 c 1
 914 313 l 1
 914 68 l 1
 890 53 l 2
 781 -16 621 -19 592 -19 c 0
 276 -19 30 197 30 500 c 0
 30 808 291 1016 585 1016 c 0
 677 1016 796 1000 868 953 c 2
 891 938 l 1
 891 661 l 1
 816 701 l 2
 729 748 695 761 601 761 c 0
 419 761 316 628 316 500 c 0
 316 369 411 234 604 234 c 0
EndSplineSet
EndChar

StartChar: caron
Encoding: 711 711 137
Width: 757
VWidth: 0
Flags: HW
LayerCount: 2
Fore
SplineSet
378 424 m 1
 652 614 l 1
 659 616 665 620 679 620 c 0
 695 620 733 607 733 567 c 0
 733 525 720 532 720 532 c 1
 457 126 l 1
 435 101 407 91 378 91 c 0
 351 91 321 99 299 127 c 1
 25 550 l 1
 25 567 l 2
 25 598 47 620 78 620 c 0
 82 620 100 616 107 614 c 1
 378 424 l 1
EndSplineSet
EndChar

StartChar: ccaron
Encoding: 269 269 138
Width: 964
VWidth: 0
Flags: HW
LayerCount: 2
Fore
SplineSet
206 1565 m 2
 471 1379 l 1
 739 1565 l 1
 739 1565 758 1576 772 1576 c 0
 812 1576 826 1544 826 1522 c 0
 826 1480 813 1487 813 1487 c 2
 550 1083 l 1
 527 1054 496 1047 471 1047 c 0
 448 1047 415 1051 392 1084 c 1
 118 1505 l 1
 118 1522 l 2
 118 1532 116 1576 171 1576 c 0
 176 1576 193 1574 206 1565 c 2
604 234 m 0
 674 234 764 272 831 314 c 1
 914 314 l 1
 914 67 l 1
 890 52 l 2
 781 -16 622 -20 592 -20 c 0
 276 -20 30 198 30 500 c 0
 30 807 291 1017 585 1017 c 0
 679 1017 797 996 867 953 c 2
 891 938 l 1
 891 658 l 1
 815 701 l 2
 729 749 696 760 601 760 c 0
 419 760 316 629 316 500 c 0
 316 370 411 234 604 234 c 0
EndSplineSet
EndChar

StartChar: ccedilla
Encoding: 231 231 139
Width: 964
VWidth: 0
Flags: HW
LayerCount: 2
Fore
SplineSet
604 233 m 0
 673 233 764 272 832 313 c 1
 914 313 l 1
 914 66 l 1
 890 51 l 2
 867 37 843 26 818 17 c 1
 729 -6 l 1
 664 -18 609 -20 592 -20 c 0
 576 -20 559 -19 543 -18 c 1
 537 -37 l 1
 641 -60 714 -140 714 -242 c 0
 714 -399 567 -445 457 -445 c 0
 371 -445 290 -424 233 -388 c 1
 229 -385 l 1
 229 -385 202 -377 202 -334 c 0
 202 -283 239 -278 257 -278 c 0
 262 -278 266 -278 266 -278 c 0
 307 -278 363 -295 419 -295 c 0
 477 -295 480 -282 480 -278 c 1
 461 -264 374 -261 348 -261 c 2
 277 -261 l 1
 372 21 l 1
 166 96 30 275 30 502 c 0
 30 807 291 1017 585 1017 c 0
 679 1017 797 996 867 953 c 2
 891 938 l 1
 891 657 l 1
 815 700 l 2
 729 749 695 760 601 760 c 0
 419 760 316 628 316 500 c 0
 316 370 412 233 604 233 c 0
EndSplineSet
EndChar

StartChar: ccircumflex
Encoding: 265 265 140
Width: 964
VWidth: 0
Flags: HW
LayerCount: 2
Fore
SplineSet
200 1053 m 1
 193 1051 186 1047 173 1047 c 0
 173 1047 171 1047 168 1047 c 0
 154 1047 118 1051 118 1100 c 0
 118 1142 131 1135 131 1135 c 1
 394 1539 l 1
 415 1565 443 1576 472 1576 c 0
 497 1576 529 1572 553 1538 c 1
 826 1117 l 1
 826 1100 l 2
 826 1069 804 1047 773 1047 c 0
 766 1047 751 1051 745 1053 c 1
 472 1242 l 1
 200 1053 l 1
604 234 m 0
 674 234 764 272 831 314 c 1
 914 314 l 1
 914 67 l 1
 890 52 l 2
 781 -16 622 -20 592 -20 c 0
 276 -20 30 198 30 500 c 0
 30 807 291 1017 585 1017 c 0
 679 1017 797 996 867 953 c 2
 891 938 l 1
 891 658 l 1
 815 701 l 2
 729 749 696 760 601 760 c 0
 419 760 316 629 316 500 c 0
 316 370 411 234 604 234 c 0
EndSplineSet
EndChar

StartChar: cdotaccent
Encoding: 267 267 141
Width: 964
VWidth: 0
Flags: HW
LayerCount: 2
Fore
SplineSet
472 1046 m 0
 386 1046 291 1105 291 1224 c 0
 291 1344 384 1409 472 1409 c 0
 560 1409 653 1342 653 1224 c 0
 653 1105 557 1046 472 1046 c 0
604 234 m 0
 674 234 765 271 832 312 c 1
 914 312 l 1
 914 67 l 1
 890 52 l 2
 781 -16 622 -20 592 -20 c 0
 276 -20 30 197 30 499 c 0
 30 807 291 1016 585 1016 c 0
 678 1016 797 999 868 952 c 2
 891 937 l 1
 891 660 l 1
 816 700 l 2
 729 747 695 761 601 761 c 0
 419 761 316 629 316 500 c 0
 316 369 411 234 604 234 c 0
EndSplineSet
EndChar

StartChar: cedilla
Encoding: 184 184 142
Width: 538
VWidth: 0
Flags: HW
LayerCount: 2
Fore
SplineSet
262 147 m 0
 176 147 95 168 38 202 c 1
 34 207 l 1
 34 207 7 209 7 257 c 0
 7 308 47 313 64 313 c 0
 69 313 71 313 71 313 c 0
 110 313 168 297 224 297 c 0
 281 297 286 311 286 313 c 1
 265 328 178 330 153 330 c 2
 82 330 l 1
 202 687 l 1
 385 687 l 1
 342 553 l 1
 447 530 520 452 520 349 c 0
 520 192 373 147 262 147 c 0
EndSplineSet
EndChar

StartChar: cent
Encoding: 162 162 143
Width: 992
VWidth: 0
Flags: HW
LayerCount: 2
Fore
SplineSet
510 223 m 1
 510 771 l 1
 402 725 342 610 342 497 c 0
 342 387 400 271 510 223 c 1
698 161 m 1
 754 174 810 202 859 231 c 1
 941 231 l 1
 941 -17 l 1
 916 -32 l 2
 847 -73 759 -88 698 -95 c 1
 698 -317 l 1
 510 -317 l 1
 510 -94 l 1
 248 -48 57 161 57 445 c 0
 57 737 261 947 510 991 c 1
 510 1256 l 1
 698 1253 l 1
 698 996 l 1
 770 987 841 971 893 938 c 2
 916 923 l 1
 916 645 l 1
 840 686 l 2
 780 719 745 735 698 742 c 1
 698 161 l 1
EndSplineSet
EndChar

StartChar: circumflex
Encoding: 710 710 144
Width: 768
VWidth: 0
Flags: HW
LayerCount: 2
Fore
SplineSet
30 144 m 1
 30 144 29 149 33 166 c 1
 306 584 l 1
 323 605 352 620 384 620 c 0
 417 620 448 608 465 583 c 1
 738 162 l 1
 738 144 l 2
 738 113 716 91 685 91 c 0
 678 91 663 95 657 97 c 1
 384 287 l 1
 112 97 l 1
 105 95 98 91 85 91 c 0
 85 91 83 91 80 91 c 0
 66 91 30 95 30 144 c 1
EndSplineSet
EndChar

StartChar: colon
Encoding: 58 58 145
Width: 640
VWidth: 0
Flags: HW
LayerCount: 2
Fore
SplineSet
320 59 m 0
 235 59 139 118 139 236 c 0
 139 357 232 420 320 420 c 0
 407 420 501 356 501 236 c 0
 501 118 404 59 320 59 c 0
320 576 m 0
 235 576 139 635 139 752 c 0
 139 873 232 937 320 937 c 0
 408 937 501 872 501 752 c 0
 501 634 404 576 320 576 c 0
EndSplineSet
EndChar

StartChar: comma
Encoding: 44 44 146
Width: 647
VWidth: 0
Flags: HW
LayerCount: 2
Fore
SplineSet
225 -334 m 2
 204 -334 l 1
 128 -258 l 1
 168 -222 l 2
 213 -181 228 -151 234 -106 c 1
 169 -72 137 -12 137 50 c 0
 137 170 229 239 321 239 c 0
 412 239 513 173 513 42 c 0
 513 -109 377 -334 225 -334 c 2
EndSplineSet
EndChar

StartChar: copyright
Encoding: 169 169 147
Width: 1814
VWidth: 0
Flags: HW
LayerCount: 2
Fore
SplineSet
1681 724 m 0
 1681 245 1287 0 905 0 c 0
 524 0 133 244 133 724 c 0
 133 1205 527 1446 908 1446 c 0
 1289 1446 1681 1205 1681 724 c 0
1442 724 m 0
 1442 383 1174 218 907 218 c 0
 640 218 372 384 372 724 c 0
 372 1065 640 1229 906 1229 c 0
 1173 1229 1442 1063 1442 724 c 0
641 695 m 0
 641 869 765 999 936 999 c 0
 988 999 1060 985 1123 956 c 2
 1195 923 l 1
 1195 1147 l 1
 1164 1160 l 2
 1088 1192 999 1208 926 1208 c 0
 637 1208 408 988 408 694 c 0
 408 401 629 186 917 186 c 0
 1000 186 1078 205 1166 246 c 2
 1195 260 l 1
 1195 486 l 1
 1122 451 l 2
 1043 413 980 397 920 397 c 0
 745 397 641 517 641 695 c 0
EndSplineSet
EndChar

StartChar: d
Encoding: 100 100 148
Width: 1064
VWidth: 0
Flags: HW
LayerCount: 2
Fore
SplineSet
318 507 m 0
 318 354 420 217 652 217 c 0
 678 217 704 218 725 222 c 1
 725 727 l 1
 688 751 628 769 565 769 c 0
 411 769 318 650 318 507 c 0
977 49 m 2
 969 46 824 -18 639 -18 c 0
 226 -18 30 252 30 514 c 0
 30 762 207 1017 542 1017 c 0
 604 1017 667 1006 725 984 c 1
 725 1490 l 1
 1006 1490 l 1
 1006 62 l 1
 977 49 l 2
EndSplineSet
EndChar

StartChar: dcaron
Encoding: 271 271 149
Width: 1065
VWidth: 0
Flags: HW
LayerCount: 2
Fore
SplineSet
1190 916 m 2
 1168 916 l 1
 1094 993 l 1
 1133 1029 l 2
 1178 1070 1194 1100 1200 1144 c 1
 1135 1178 1102 1240 1102 1302 c 0
 1102 1421 1193 1490 1285 1490 c 0
 1378 1490 1479 1424 1479 1293 c 0
 1479 1142 1344 916 1190 916 c 2
317 507 m 0
 317 355 420 217 652 217 c 0
 678 217 703 218 724 222 c 1
 724 727 l 1
 687 751 627 769 564 769 c 0
 409 769 317 651 317 507 c 0
977 49 m 2
 969 46 824 -18 639 -18 c 0
 225 -18 28 252 28 514 c 0
 28 762 206 1017 540 1017 c 0
 602 1017 665 1006 724 984 c 1
 724 1490 l 1
 1006 1490 l 1
 1006 62 l 1
 977 49 l 2
EndSplineSet
EndChar

StartChar: dcroat
Encoding: 273 273 150
Width: 1064
VWidth: 0
Flags: HW
LayerCount: 2
Fore
SplineSet
318 507 m 0
 318 355 420 217 653 217 c 0
 678 217 702 218 724 222 c 1
 724 727 l 1
 687 751 626 769 563 769 c 0
 410 769 318 651 318 507 c 0
978 48 m 2
 971 45 824 -18 640 -18 c 0
 226 -18 29 252 29 514 c 0
 29 762 207 1017 541 1017 c 0
 603 1017 665 1006 724 984 c 1
 724 1089 l 1
 395 1089 l 1
 395 1320 l 1
 724 1320 l 1
 724 1490 l 1
 1007 1490 l 1
 1007 1320 l 1
 1115 1320 l 1
 1115 1089 l 1
 1007 1089 l 1
 1007 60 l 1
 978 48 l 2
EndSplineSet
EndChar

StartChar: dieresis
Encoding: 168 168 151
Width: 801
VWidth: 0
Flags: HW
LayerCount: 2
Fore
SplineSet
590 -105 m 0
 512 -105 421 -50 421 59 c 0
 421 170 509 230 590 230 c 0
 672 230 757 169 757 59 c 0
 757 -50 669 -105 590 -105 c 0
213 -105 m 0
 134 -105 46 -49 46 59 c 0
 46 169 131 230 213 230 c 0
 294 230 382 170 382 59 c 0
 382 -51 291 -105 213 -105 c 0
EndSplineSet
EndChar

StartChar: dollar
Encoding: 36 36 152
Width: 1122
VWidth: 0
Flags: HW
LayerCount: 2
Fore
SplineSet
404 1119 m 0
 404 1074 431 1019 489 968 c 1
 489 1236 l 1
 428 1210 404 1166 404 1119 c 0
741 376 m 0
 741 419 737 447 678 503 c 1
 678 251 l 1
 718 278 741 316 741 376 c 0
678 -99 m 1
 678 -198 l 2
 678 -252 650 -314 587 -314 c 0
 525 -314 489 -256 489 -196 c 2
 489 -114 l 1
 361 -104 236 -55 141 33 c 2
 125 48 l 1
 125 400 l 1
 209 331 l 2
 295 260 368 188 489 170 c 1
 489 594 l 1
 289 738 l 1
 157 830 94 966 94 1098 c 0
 94 1298 240 1488 489 1529 c 1
 489 1621 l 2
 489 1681 525 1739 587 1739 c 0
 650 1739 678 1677 678 1623 c 2
 678 1529 l 1
 806 1510 920 1463 961 1425 c 2
 977 1410 l 1
 977 1065 l 1
 894 1134 l 2
 874 1150 777 1220 678 1246 c 1
 678 834 l 1
 784 759 l 2
 969 628 1034 499 1034 339 c 0
 1034 96 868 -52 678 -99 c 1
EndSplineSet
EndChar

StartChar: dotlessi
Encoding: 305 305 153
Width: 457
VWidth: 0
Flags: HW
LayerCount: 2
Fore
SplineSet
111 998 m 1
 394 998 l 1
 394 0 l 1
 111 0 l 1
 111 998 l 1
EndSplineSet
EndChar

StartChar: e
Encoding: 101 101 154
Width: 1051
VWidth: 0
Flags: HW
LayerCount: 2
Fore
SplineSet
344 669 m 1
 726 669 l 1
 705 727 634 765 538 765 c 0
 440 765 377 728 344 669 c 1
956 80 m 2
 857 14 742 -19 615 -19 c 0
 265 -19 29 202 29 514 c 0
 29 783 236 1016 532 1016 c 0
 847 1016 997 797 997 519 c 2
 997 447 l 1
 326 447 l 1
 346 315 447 232 614 232 c 0
 713 232 809 261 900 322 c 2
 979 375 l 1
 979 96 l 1
 956 80 l 2
EndSplineSet
EndChar

StartChar: eacute
Encoding: 233 233 155
Width: 1051
VWidth: 0
Flags: HW
LayerCount: 2
Fore
SplineSet
319 1112 m 0
 319 1124 320 1133 324 1147 c 2
 419 1509 l 1
 444 1590 504 1633 567 1633 c 0
 634 1633 710 1582 710 1495 c 0
 710 1456 693 1416 664 1379 c 2
 444 1090 l 1
 433 1073 418 1046 377 1046 c 0
 324 1046 319 1088 319 1105 c 0
 319 1109 319 1112 319 1112 c 0
344 668 m 1
 726 668 l 1
 705 726 633 765 538 765 c 0
 439 765 376 727 344 668 c 1
956 79 m 2
 856 13 742 -19 615 -19 c 0
 265 -19 29 201 29 513 c 0
 29 781 236 1015 532 1015 c 0
 847 1015 997 796 997 519 c 2
 997 447 l 1
 326 447 l 1
 346 315 447 232 614 232 c 0
 713 232 808 262 900 321 c 2
 979 372 l 1
 979 95 l 1
 956 79 l 2
EndSplineSet
EndChar

StartChar: ecaron
Encoding: 283 283 156
Width: 1051
VWidth: 0
Flags: HW
LayerCount: 2
Fore
SplineSet
510 1379 m 1
 790 1572 l 2
 791 1572 810 1576 811 1576 c 0
 841 1576 866 1552 866 1522 c 0
 866 1480 853 1487 853 1487 c 1
 591 1085 l 1
 591 1085 570 1047 510 1047 c 0
 487 1047 451 1057 435 1081 c 2
 158 1505 l 1
 158 1522 l 2
 158 1575 191 1576 213 1576 c 0
 213 1576 213 1576 214 1576 c 0
 217 1576 227 1576 239 1570 c 1
 510 1379 l 1
344 669 m 1
 726 669 l 1
 705 726 634 764 538 764 c 0
 439 764 377 727 344 669 c 1
956 79 m 2
 857 15 742 -20 615 -20 c 0
 265 -20 29 201 29 514 c 0
 29 781 236 1016 532 1016 c 0
 847 1016 997 795 997 517 c 2
 997 447 l 1
 326 447 l 1
 346 314 447 232 614 232 c 0
 713 232 808 259 899 321 c 2
 979 375 l 1
 979 94 l 1
 956 79 l 2
EndSplineSet
EndChar

StartChar: ecircumflex
Encoding: 234 234 157
Width: 1051
VWidth: 0
Flags: HW
LayerCount: 2
Fore
SplineSet
246 1057 m 1
 244 1059 205 1044 196 1044 c 0
 179 1044 158 1053 158 1100 c 1
 158 1100 140 1083 149 1099 c 1
 435 1540 l 2
 454 1569 489 1576 514 1576 c 0
 539 1576 574 1568 593 1539 c 2
 866 1117 l 1
 866 1100 l 2
 866 1060 828 1047 812 1047 c 0
 812 1047 800 1047 785 1054 c 1
 514 1242 l 1
 246 1057 l 1
344 669 m 1
 726 669 l 1
 705 726 634 764 538 764 c 0
 439 764 377 727 344 669 c 1
956 79 m 2
 857 15 742 -20 615 -20 c 0
 265 -20 29 201 29 514 c 0
 29 781 236 1016 532 1016 c 0
 847 1016 997 795 997 517 c 2
 997 447 l 1
 326 447 l 1
 346 314 447 232 614 232 c 0
 713 232 808 259 899 321 c 2
 979 375 l 1
 979 94 l 1
 956 79 l 2
EndSplineSet
EndChar

StartChar: edieresis
Encoding: 235 235 158
Width: 1051
VWidth: 0
Flags: HW
LayerCount: 2
Fore
SplineSet
702 1047 m 0
 623 1047 532 1101 532 1211 c 0
 532 1321 620 1382 702 1382 c 0
 784 1382 870 1321 870 1211 c 0
 870 1101 780 1047 702 1047 c 0
324 1047 m 0
 246 1047 156 1102 156 1211 c 0
 156 1321 242 1382 324 1382 c 0
 407 1382 494 1321 494 1211 c 0
 494 1100 403 1047 324 1047 c 0
344 669 m 1
 726 669 l 1
 705 727 634 765 538 765 c 0
 439 765 376 728 344 669 c 1
956 80 m 2
 857 14 742 -19 615 -19 c 0
 265 -19 29 201 29 514 c 0
 29 782 236 1016 532 1016 c 0
 847 1016 997 796 997 518 c 2
 997 447 l 1
 326 447 l 1
 346 315 447 232 614 232 c 0
 713 232 808 260 899 322 c 2
 979 376 l 1
 979 96 l 1
 956 80 l 2
EndSplineSet
EndChar

StartChar: edotaccent
Encoding: 279 279 159
Width: 1051
VWidth: 0
Flags: HW
LayerCount: 2
Fore
SplineSet
514 1046 m 0
 427 1046 333 1106 333 1224 c 0
 333 1344 425 1409 514 1409 c 0
 602 1409 693 1342 693 1224 c 0
 693 1106 598 1046 514 1046 c 0
344 669 m 1
 726 669 l 1
 705 727 634 764 538 764 c 0
 440 764 376 727 344 669 c 1
956 80 m 2
 857 15 742 -20 615 -20 c 0
 265 -20 29 200 29 513 c 0
 29 781 236 1014 532 1014 c 0
 847 1014 997 796 997 518 c 2
 997 446 l 1
 326 446 l 1
 346 314 447 231 614 231 c 0
 713 231 808 260 899 322 c 2
 979 376 l 1
 979 96 l 1
 956 80 l 2
EndSplineSet
EndChar

StartChar: egrave
Encoding: 232 232 160
Width: 1051
VWidth: 0
Flags: HW
LayerCount: 2
Fore
SplineSet
467 1644 m 0
 531 1644 588 1599 612 1520 c 1
 699 1142 l 2
 702 1129 702 1116 702 1110 c 0
 702 1099 697 1045 642 1045 c 0
 605 1045 587 1068 574 1087 c 2
 364 1394 l 2
 338 1430 324 1465 324 1504 c 0
 324 1588 396 1644 467 1644 c 0
344 669 m 1
 726 669 l 1
 705 726 634 764 538 764 c 0
 440 764 376 727 344 669 c 1
956 80 m 2
 856 13 742 -20 615 -20 c 0
 265 -20 29 200 29 512 c 0
 29 781 236 1014 532 1014 c 0
 847 1014 997 796 997 518 c 2
 997 446 l 1
 326 446 l 1
 346 314 447 231 614 231 c 0
 713 231 808 261 900 321 c 2
 979 372 l 1
 979 95 l 1
 956 80 l 2
EndSplineSet
EndChar

StartChar: eight
Encoding: 56 56 161
Width: 1176
VWidth: 0
Flags: HW
LayerCount: 2
Fore
SplineSet
588 1535 m 0
 873 1535 1065 1375 1095 1179 c 1
 1101 1179 l 1
 1101 1128 l 2
 1101 996 1029 867 885 772 c 1
 1052 658 1131 513 1131 371 c 0
 1131 105 848 -19 596 -19 c 0
 345 -19 50 104 50 370 c 0
 50 520 131 669 302 772 c 1
 154 860 81 991 81 1122 c 0
 81 1345 277 1535 588 1535 c 0
334 426 m 0
 334 299 443 230 589 230 c 0
 736 230 851 293 851 431 c 0
 851 536 748 674 591 719 c 1
 410 655 334 540 334 426 c 0
352 1122 m 2
 352 1103 l 1
 362 1007 445 897 589 860 c 1
 742 900 826 1024 826 1122 c 0
 826 1222 723 1286 589 1286 c 0
 455 1286 352 1222 352 1122 c 2
EndSplineSet
EndChar

StartChar: ellipsis
Encoding: 8230 8230 162
Width: 1387
VWidth: 0
Flags: HW
LayerCount: 2
Fore
SplineSet
320 -120 m 0
 235 -120 141 -59 141 59 c 0
 141 178 233 243 320 243 c 0
 410 243 501 176 501 59 c 0
 501 -59 407 -120 320 -120 c 0
790 -120 m 0
 705 -120 609 -60 609 59 c 0
 609 179 703 243 790 243 c 0
 879 243 971 176 971 59 c 0
 971 -59 876 -120 790 -120 c 0
1259 -120 m 0
 1172 -120 1078 -59 1078 59 c 0
 1078 178 1170 243 1259 243 c 0
 1346 243 1438 176 1438 59 c 0
 1438 -59 1344 -120 1259 -120 c 0
EndSplineSet
EndChar

StartChar: emacron
Encoding: 275 275 163
Width: 1051
VWidth: 0
Flags: HW
LayerCount: 2
Fore
SplineSet
821 1048 m 1
 205 1048 l 1
 205 1302 l 1
 821 1302 l 1
 821 1048 l 1
344 669 m 1
 726 669 l 1
 705 727 634 765 538 765 c 0
 439 765 376 728 344 669 c 1
956 80 m 2
 856 14 742 -18 615 -18 c 0
 265 -18 29 203 29 515 c 0
 29 782 236 1016 532 1016 c 0
 847 1016 997 796 997 520 c 2
 997 447 l 1
 326 447 l 1
 346 315 448 232 614 232 c 0
 713 232 809 261 900 322 c 2
 979 375 l 1
 979 96 l 1
 956 80 l 2
EndSplineSet
EndChar

StartChar: eogonek
Encoding: 281 281 164
Width: 1051
VWidth: 0
Flags: HW
LayerCount: 2
Fore
SplineSet
344 669 m 1
 726 669 l 1
 705 727 634 764 538 764 c 0
 440 764 377 727 344 669 c 1
956 79 m 2
 858 15 743 -21 617 -21 c 1
 621 -28 l 1
 560 -49 l 2
 495 -72 477 -108 477 -128 c 0
 477 -150 504 -200 612 -200 c 2
 679 -200 l 1
 626 -416 l 1
 598 -425 l 2
 576 -432 557 -432 542 -432 c 0
 373 -432 255 -303 255 -162 c 0
 255 -89 283 -14 342 36 c 1
 144 120 29 297 29 516 c 0
 29 782 236 1015 532 1015 c 0
 847 1015 997 795 997 518 c 2
 997 446 l 1
 326 446 l 1
 346 314 447 232 614 232 c 0
 713 232 808 259 899 321 c 2
 979 375 l 1
 979 94 l 1
 956 79 l 2
EndSplineSet
EndChar

StartChar: equal
Encoding: 61 61 165
Width: 1255
VWidth: 0
Flags: HW
LayerCount: 2
Fore
SplineSet
1105 863 m 1
 148 863 l 1
 148 604 l 1
 1105 604 l 1
 1105 863 l 1
1105 669 m 1
 1105 410 l 1
 148 410 l 1
 148 669 l 1
 1105 669 l 1
EndSplineSet
EndChar

StartChar: eth
Encoding: 240 240 166
Width: 1199
VWidth: 0
Flags: HW
LayerCount: 2
Fore
SplineSet
32 509 m 1
 35 509 l 1
 60 777 299 968 560 968 c 0
 573 968 589 967 601 966 c 1
 464 1122 l 1
 264 960 l 1
 131 1120 l 1
 331 1281 l 1
 135 1519 l 1
 459 1519 l 1
 521 1444 l 1
 673 1573 l 1
 808 1411 l 1
 656 1284 l 1
 818 1088 l 1
 955 938 1049 833 1101 718 c 0
 1132 649 1147 577 1147 495 c 0
 1147 217 937 -21 586 -21 c 0
 222 -21 32 221 32 463 c 2
 32 509 l 1
873 473 m 2
 873 500 l 1
 863 627 791 715 590 715 c 0
 406 715 312 598 312 473 c 0
 312 348 403 233 590 233 c 0
 774 233 873 339 873 473 c 2
EndSplineSet
EndChar

StartChar: exclam
Encoding: 33 33 167
Width: 607
VWidth: 0
Flags: HW
LayerCount: 2
Fore
SplineSet
304 301 m 0
 365 301 384 362 387 403 c 2
 474 1462 l 1
 474 1475 l 2
 474 1577 389 1627 315 1627 c 0
 240 1627 151 1576 151 1471 c 2
 151 1462 l 1
 223 407 l 2
 225 368 240 301 304 301 c 0
302 -18 m 0
 216 -18 121 42 121 160 c 0
 121 280 214 344 302 344 c 0
 389 344 483 279 483 160 c 0
 483 42 387 -18 302 -18 c 0
EndSplineSet
EndChar

StartChar: exclamdown
Encoding: 161 161 168
Width: 609
VWidth: 0
Flags: HW
LayerCount: 2
Fore
SplineSet
305 1206 m 0
 369 1206 384 1144 386 1108 c 2
 458 134 l 1
 458 126 l 2
 458 29 369 -18 294 -18 c 0
 220 -18 135 28 135 122 c 2
 135 134 l 1
 222 1112 l 2
 225 1150 244 1206 305 1206 c 0
307 1627 m 0
 392 1627 488 1567 488 1449 c 0
 488 1329 394 1265 307 1265 c 0
 219 1265 126 1331 126 1449 c 0
 126 1566 221 1627 307 1627 c 0
EndSplineSet
EndChar

StartChar: f
Encoding: 102 102 169
Width: 619
VWidth: 0
Flags: HW
LayerCount: 2
Fore
SplineSet
403 0 m 1
 122 0 l 1
 122 778 l 1
 -12 778 l 1
 -12 996 l 1
 118 996 l 1
 118 1021 l 2
 118 1255 237 1433 475 1433 c 0
 531 1433 591 1423 657 1402 c 2
 692 1390 l 1
 692 1116 l 1
 621 1146 l 2
 573 1166 539 1173 513 1173 c 0
 435 1173 403 1148 403 1021 c 2
 403 996 l 1
 581 996 l 1
 581 750 l 1
 403 750 l 1
 403 0 l 1
EndSplineSet
EndChar

StartChar: ff
Encoding: 65538 -1 170
Width: 1169
VWidth: 0
Flags: HW
LayerCount: 2
Fore
SplineSet
949 0 m 1
 670 0 l 1
 670 803 l 1
 390 803 l 1
 390 1 l 1
 110 1 l 1
 110 803 l 1
 -24 803 l 1
 -24 1049 l 1
 106 1049 l 1
 106 1070 l 2
 106 1287 238 1433 449 1433 c 0
 503 1433 559 1422 619 1402 c 2
 654 1391 l 1
 654 1115 l 1
 582 1148 l 2
 542 1166 508 1174 481 1174 c 0
 433 1174 390 1158 390 1065 c 2
 390 1047 l 1
 665 1047 l 1
 665 1069 l 2
 665 1275 784 1433 1022 1433 c 0
 1077 1433 1137 1423 1203 1402 c 2
 1238 1390 l 1
 1238 1115 l 1
 1167 1146 l 2
 1120 1166 1086 1173 1059 1173 c 0
 981 1173 949 1155 949 1065 c 2
 949 1047 l 1
 1152 1047 l 1
 1152 801 l 1
 949 801 l 1
 949 0 l 1
EndSplineSet
EndChar

StartChar: ffi
Encoding: 65539 -1 171
Width: 1704
VWidth: 0
Flags: HW
LayerCount: 2
Fore
SplineSet
409 1224 m 0
 409 1139 344 1052 234 1052 c 0
 123 1052 57 1138 57 1224 c 0
 57 1310 123 1395 234 1395 c 0
 344 1395 409 1310 409 1224 c 0
92 1047 m 1
 373 1047 l 1
 373 0 l 1
 92 0 l 1
 92 1047 l 1
867 0 m 1
 588 0 l 1
 588 818 l 1
 453 818 l 1
 453 1047 l 1
 583 1047 l 1
 583 1069 l 2
 583 1275 701 1433 941 1433 c 0
 996 1433 1056 1422 1121 1401 c 2
 1156 1390 l 1
 1156 1116 l 1
 1085 1146 l 2
 1037 1166 1004 1173 978 1173 c 0
 899 1173 867 1155 867 1065 c 2
 867 1047 l 1
 1045 1047 l 1
 1045 801 l 1
 867 801 l 1
 867 0 l 1
1486 0 m 1
 1207 0 l 1
 1207 818 l 1
 1072 818 l 1
 1072 1047 l 1
 1201 1047 l 1
 1201 1069 l 2
 1201 1276 1322 1433 1560 1433 c 0
 1614 1433 1675 1422 1740 1401 c 2
 1775 1390 l 1
 1775 1116 l 1
 1704 1146 l 2
 1656 1166 1623 1173 1597 1173 c 0
 1518 1173 1486 1155 1486 1065 c 2
 1486 1047 l 1
 1666 1047 l 1
 1666 801 l 1
 1486 801 l 1
 1486 0 l 1
EndSplineSet
EndChar

StartChar: five
Encoding: 53 53 172
Width: 995
VWidth: 0
Flags: HW
LayerCount: 2
Fore
SplineSet
83 1521 m 1
 964 1521 l 1
 940 1253 l 1
 322 1253 l 1
 318 1160 315 1055 312 960 c 1
 377 987 440 1000 507 1000 c 0
 845 1000 1017 779 1017 511 c 0
 1017 196 787 -20 420 -20 c 0
 233 -20 80 40 -21 132 c 2
 -49 158 l 1
 60 393 l 1
 111 355 l 2
 172 309 275 246 427 246 c 0
 624 246 732 355 732 510 c 0
 732 645 651 738 473 738 c 0
 386 738 323 715 269 656 c 2
 250 636 l 1
 36 666 l 1
 83 1521 l 1
EndSplineSet
EndChar

StartChar: four
Encoding: 52 52 173
Width: 1229
VWidth: 0
Flags: HW
LayerCount: 2
Fore
SplineSet
1198 573 m 1
 1174 325 l 1
 1005 325 l 1
 1005 0 l 1
 735 0 l 1
 735 325 l 1
 50 325 l 1
 50 539 l 1
 740 1522 l 1
 1005 1522 l 1
 1005 573 l 1
 1198 573 l 1
735 573 m 1
 735 1122 l 1
 374 573 l 1
 735 573 l 1
EndSplineSet
EndChar

StartChar: g
Encoding: 103 103 174
Width: 1069
VWidth: 0
Flags: HW
LayerCount: 2
Fore
SplineSet
752 -8 m 0
 752 11 750 32 746 55 c 1
 697 28 626 0 538 0 c 0
 192 0 29 275 29 524 c 0
 29 802 266 1015 516 1015 c 0
 588 1015 663 991 732 943 c 1
 732 997 l 1
 1009 997 l 1
 1009 -2 l 2
 1009 -328 771 -437 551 -437 c 0
 440 -437 331 -413 243 -375 c 2
 212 -362 l 1
 212 -95 l 1
 283 -125 l 2
 376 -164 477 -189 559 -189 c 0
 679 -189 752 -147 752 -8 c 0
557 760 m 0
 439 760 315 676 315 515 c 0
 315 340 418 254 571 254 c 0
 616 254 671 262 729 281 c 1
 729 708 l 1
 666 746 608 760 557 760 c 0
EndSplineSet
EndChar

StartChar: gbreve
Encoding: 287 287 175
Width: 1069
VWidth: 0
Flags: HW
LayerCount: 2
Fore
SplineSet
802 1386 m 1
 800 1333 l 2
 794 1146 654 1047 519 1047 c 0
 382 1047 243 1146 236 1333 c 2
 234 1386 l 1
 436 1386 l 1
 442 1341 l 2
 449 1284 483 1264 518 1264 c 0
 552 1264 588 1285 594 1341 c 2
 599 1386 l 1
 802 1386 l 1
752 -9 m 0
 752 10 750 32 746 55 c 1
 697 29 625 0 538 0 c 0
 192 0 29 274 29 523 c 0
 29 801 266 1014 516 1014 c 0
 588 1014 662 990 732 942 c 1
 732 996 l 1
 1009 996 l 1
 1009 -3 l 2
 1009 -329 771 -438 551 -438 c 0
 441 -438 331 -415 243 -377 c 2
 212 -364 l 1
 212 -96 l 1
 283 -126 l 2
 376 -165 477 -190 559 -190 c 0
 679 -190 752 -148 752 -9 c 0
557 760 m 0
 440 760 315 674 315 514 c 0
 315 339 418 252 571 252 c 0
 617 252 670 261 729 280 c 1
 729 706 l 1
 666 746 608 760 557 760 c 0
EndSplineSet
EndChar

StartChar: gcedilla
Encoding: 291 291 176
Width: 1069
VWidth: 0
Flags: HW
LayerCount: 2
Fore
SplineSet
650 1607 m 2
 671 1607 l 1
 748 1530 l 1
 708 1494 l 2
 663 1454 647 1424 641 1379 c 1
 707 1345 739 1284 739 1223 c 0
 739 1103 648 1033 556 1033 c 0
 463 1033 362 1099 362 1231 c 0
 362 1383 497 1607 650 1607 c 2
752 -9 m 0
 752 10 750 32 746 55 c 1
 697 29 625 0 538 0 c 0
 192 0 29 275 29 523 c 0
 29 801 266 1016 516 1016 c 0
 589 1016 663 992 732 944 c 1
 732 997 l 1
 1009 997 l 1
 1009 -2 l 2
 1009 -329 771 -437 551 -437 c 0
 441 -437 331 -414 243 -376 c 2
 212 -363 l 1
 212 -95 l 1
 283 -125 l 2
 376 -164 477 -189 559 -189 c 0
 679 -189 752 -148 752 -9 c 0
557 760 m 0
 440 760 315 674 315 514 c 0
 315 338 418 253 571 253 c 0
 617 253 671 261 729 280 c 1
 729 706 l 1
 666 745 608 760 557 760 c 0
EndSplineSet
EndChar

StartChar: gcircumflex
Encoding: 285 285 177
Width: 1069
VWidth: 0
Flags: HW
LayerCount: 2
Fore
SplineSet
165 1100 m 0
 165 1101 164 1105 168 1122 c 1
 441 1539 l 1
 458 1560 487 1575 519 1575 c 0
 552 1575 583 1563 600 1538 c 1
 873 1118 l 1
 873 1100 l 2
 873 1084 860 1046 820 1046 c 0
 813 1046 798 1050 792 1052 c 1
 519 1242 l 1
 247 1052 l 1
 240 1050 233 1046 220 1046 c 0
 208 1046 165 1055 165 1100 c 0
752 -10 m 0
 752 9 750 31 746 54 c 1
 696 28 625 0 538 0 c 0
 192 0 29 274 29 523 c 0
 29 802 266 1015 516 1015 c 0
 589 1015 663 991 732 943 c 1
 732 997 l 1
 1009 997 l 1
 1009 -2 l 2
 1009 -327 772 -439 551 -439 c 0
 440 -439 331 -414 243 -376 c 2
 212 -363 l 1
 212 -95 l 1
 283 -125 l 2
 377 -164 477 -190 559 -190 c 0
 679 -190 752 -148 752 -10 c 0
557 759 m 0
 439 759 315 674 315 514 c 0
 315 338 418 253 571 253 c 0
 617 253 672 262 729 281 c 1
 729 706 l 1
 667 745 608 759 557 759 c 0
EndSplineSet
EndChar

StartChar: gdotaccent
Encoding: 289 289 178
Width: 1069
VWidth: 0
Flags: HW
LayerCount: 2
Fore
SplineSet
519 1047 m 0
 433 1047 338 1106 338 1225 c 0
 338 1346 431 1409 519 1409 c 0
 606 1409 700 1345 700 1225 c 0
 700 1106 604 1047 519 1047 c 0
752 -8 m 0
 752 11 750 32 746 55 c 1
 697 28 626 0 538 0 c 0
 192 0 29 276 29 524 c 0
 29 801 266 1016 516 1016 c 0
 589 1016 663 992 732 944 c 1
 732 998 l 1
 1009 998 l 1
 1009 -1 l 2
 1009 -328 771 -437 551 -437 c 0
 440 -437 331 -413 243 -375 c 2
 212 -362 l 1
 212 -95 l 1
 283 -125 l 2
 376 -164 477 -189 559 -189 c 0
 679 -189 752 -147 752 -8 c 0
557 761 m 0
 440 761 315 675 315 515 c 0
 315 340 418 254 571 254 c 0
 616 254 671 262 729 281 c 1
 729 708 l 1
 666 746 607 761 557 761 c 0
EndSplineSet
EndChar

StartChar: germandbls
Encoding: 223 223 179
Width: 1190
VWidth: 0
Flags: HW
LayerCount: 2
Fore
SplineSet
600 880 m 1
 705 881 770 955 770 1050 c 0
 770 1154 707 1256 548 1256 c 0
 458 1256 367 1203 367 1028 c 2
 367 -3 l 1
 76 -3 l 1
 76 1029 l 2
 76 1365 307 1518 543 1518 c 0
 850 1518 1046 1294 1046 1068 c 0
 1046 968 998 869 901 799 c 1
 1109 697 1132 498 1132 437 c 0
 1132 107 875 0 470 0 c 2
 419 0 l 1
 419 275 l 1
 470 275 l 2
 669 275 830 277 830 455 c 0
 830 548 775 655 630 655 c 2
 488 655 l 1
 488 885 l 1
 600 880 l 1
EndSplineSet
EndChar

StartChar: grave
Encoding: 96 96 180
Width: 368
VWidth: 0
Flags: HW
LayerCount: 2
Fore
SplineSet
140 677 m 0
 202 677 259 633 284 553 c 1
 369 178 l 1
 375 160 374 148 374 144 c 0
 374 130 369 79 315 79 c 0
 281 79 261 100 247 118 c 1
 38 427 l 1
 9 464 -3 501 -3 537 c 0
 -3 622 69 677 140 677 c 0
EndSplineSet
EndChar

StartChar: greater
Encoding: 62 62 181
Width: 981
VWidth: 0
Flags: HW
LayerCount: 2
Fore
SplineSet
945 465 m 1
 43 36 l 1
 43 321 l 1
 618 577 l 1
 43 848 l 1
 43 1125 l 1
 945 700 l 1
 945 465 l 1
EndSplineSet
EndChar

StartChar: guillemotleft
Encoding: 171 171 182
Width: 768
VWidth: 0
Flags: HW
LayerCount: 2
Fore
SplineSet
40 405 m 1
 40 616 l 1
 725 1032 l 1
 725 758 l 1
 319 507 l 1
 725 305 l 1
 725 -31 l 1
 40 405 l 1
EndSplineSet
EndChar

StartChar: guillemotright
Encoding: 187 187 183
Width: 768
VWidth: 0
Flags: HW
LayerCount: 2
Fore
SplineSet
725 405 m 1
 40 -31 l 1
 40 305 l 1
 446 507 l 1
 40 758 l 1
 40 1032 l 1
 725 616 l 1
 725 405 l 1
EndSplineSet
EndChar

StartChar: h
Encoding: 104 104 184
Width: 1031
VWidth: 0
Flags: HW
LayerCount: 2
Fore
SplineSet
336 0 m 1
 55 0 l 1
 55 1491 l 1
 336 1491 l 1
 336 941 l 1
 418 991 509 1017 599 1017 c 0
 797 1017 982 895 982 647 c 2
 982 0 l 1
 701 0 l 1
 701 574 l 2
 701 732 665 760 576 760 c 0
 529 760 389 716 336 671 c 1
 336 0 l 1
EndSplineSet
EndChar

StartChar: hbar
Encoding: 295 295 185
Width: 1032
VWidth: 0
Flags: HW
LayerCount: 2
Fore
SplineSet
337 0 m 1
 56 0 l 1
 56 1089 l 1
 -51 1089 l 1
 -51 1320 l 1
 56 1320 l 1
 56 1491 l 1
 337 1491 l 1
 337 1320 l 1
 623 1320 l 1
 623 1089 l 1
 337 1089 l 1
 337 941 l 1
 418 990 510 1017 599 1017 c 0
 797 1017 982 895 982 647 c 2
 982 0 l 1
 703 0 l 1
 703 574 l 2
 703 732 667 760 578 760 c 0
 530 760 390 716 337 671 c 1
 337 0 l 1
EndSplineSet
EndChar

StartChar: hcircumflex
Encoding: 293 293 186
Width: 1031
VWidth: 0
Flags: HW
LayerCount: 2
Fore
SplineSet
821 1521 m 0
 821 1521 809 1521 794 1528 c 1
 520 1717 l 1
 249 1527 l 2
 230 1515 223 1521 223 1521 c 1
 223 1521 219 1520 213 1520 c 0
 197 1520 166 1527 166 1574 c 0
 166 1616 179 1609 179 1609 c 1
 442 2013 l 1
 459 2035 486 2049 520 2049 c 0
 543 2049 578 2047 602 2011 c 2
 874 1591 l 1
 874 1574 l 2
 874 1543 852 1521 821 1521 c 0
336 0 m 1
 55 0 l 1
 55 1490 l 1
 336 1490 l 1
 336 940 l 1
 417 990 509 1017 599 1017 c 0
 797 1017 982 896 982 646 c 2
 982 0 l 1
 701 0 l 1
 701 574 l 2
 701 733 665 759 576 759 c 0
 529 759 389 717 336 671 c 1
 336 0 l 1
EndSplineSet
EndChar

StartChar: hungarumlaut
Encoding: 733 733 187
Width: 730
VWidth: 0
Flags: HW
LayerCount: 2
Fore
SplineSet
-11 142 m 0
 -11 171 -3 174 -2 176 c 2
 94 538 l 1
 117 620 178 662 241 662 c 0
 310 662 383 610 383 524 c 0
 383 485 366 445 337 408 c 2
 117 118 l 2
 106 103 91 76 51 76 c 0
 5 76 -11 112 -11 142 c 0
349 142 m 0
 349 146 348 161 354 178 c 1
 450 538 l 1
 475 618 533 662 598 662 c 0
 666 662 740 610 740 524 c 0
 740 487 726 446 696 408 c 2
 476 118 l 1
 462 97 444 76 408 76 c 0
 348 76 349 135 349 142 c 0
EndSplineSet
EndChar

StartChar: hyphen
Encoding: 45 45 188
Width: 844
VWidth: 0
Flags: HW
LayerCount: 2
Fore
SplineSet
53 517 m 1
 53 756 l 1
 791 756 l 1
 791 517 l 1
 53 517 l 1
EndSplineSet
EndChar

StartChar: i
Encoding: 105 105 189
Width: 465
VWidth: 0
Flags: HW
LayerCount: 2
Fore
SplineSet
408 1226 m 0
 408 1140 344 1055 233 1055 c 0
 122 1055 57 1139 57 1226 c 0
 57 1310 121 1398 233 1398 c 0
 346 1398 408 1309 408 1226 c 0
93 999 m 1
 372 999 l 1
 372 0 l 1
 93 0 l 1
 93 999 l 1
EndSplineSet
EndChar

StartChar: iacute
Encoding: 237 237 190
Width: 456
VWidth: 0
Flags: HW
LayerCount: 2
Fore
SplineSet
54 1113 m 0
 54 1138 59 1140 62 1147 c 2
 157 1508 l 1
 180 1589 239 1631 304 1631 c 0
 372 1631 445 1581 445 1494 c 0
 445 1457 432 1419 403 1378 c 1
 181 1087 l 2
 165 1066 148 1047 115 1047 c 0
 72 1047 54 1085 54 1113 c 0
110 996 m 1
 393 996 l 1
 393 0 l 1
 110 0 l 1
 110 996 l 1
EndSplineSet
EndChar

StartChar: ibreve
Encoding: 301 301 191
Width: 456
VWidth: 0
Flags: HW
LayerCount: 2
Fore
SplineSet
535 1387 m 1
 533 1334 l 2
 526 1147 388 1046 251 1046 c 0
 113 1046 -25 1147 -32 1334 c 2
 -34 1387 l 1
 170 1387 l 1
 175 1342 l 2
 181 1285 217 1264 250 1264 c 0
 283 1264 320 1286 326 1342 c 2
 331 1387 l 1
 535 1387 l 1
110 998 m 1
 393 998 l 1
 393 0 l 1
 110 0 l 1
 110 998 l 1
EndSplineSet
EndChar

StartChar: icircumflex
Encoding: 238 238 192
Width: 455
VWidth: 0
Flags: HW
LayerCount: 2
Fore
SplineSet
-103 1100 m 0
 -103 1101 -104 1102 -104 1105 c 0
 -104 1109 -103 1116 -97 1129 c 1
 173 1541 l 1
 191 1561 218 1576 251 1576 c 0
 277 1576 309 1570 332 1540 c 1
 605 1120 l 1
 605 1100 l 2
 605 1069 583 1047 552 1047 c 0
 545 1047 530 1051 524 1053 c 1
 251 1244 l 1
 -21 1053 l 1
 -28 1051 -35 1047 -48 1047 c 0
 -48 1047 -50 1047 -53 1047 c 0
 -67 1047 -103 1051 -103 1100 c 0
110 999 m 1
 392 999 l 1
 392 0 l 1
 110 0 l 1
 110 999 l 1
EndSplineSet
EndChar

StartChar: idieresis
Encoding: 239 239 193
Width: 456
VWidth: 0
Flags: HW
LayerCount: 2
Fore
SplineSet
439 1047 m 0
 361 1047 270 1101 270 1210 c 0
 270 1320 358 1381 439 1381 c 0
 521 1381 606 1319 606 1210 c 0
 606 1101 517 1047 439 1047 c 0
62 1047 m 0
 -17 1047 -105 1102 -105 1210 c 0
 -105 1319 -20 1381 62 1381 c 0
 143 1381 231 1320 231 1210 c 0
 231 1100 139 1047 62 1047 c 0
110 998 m 1
 393 998 l 1
 393 0 l 1
 110 0 l 1
 110 998 l 1
EndSplineSet
EndChar

StartChar: igrave
Encoding: 236 236 194
Width: 456
VWidth: 0
Flags: HW
LayerCount: 2
Fore
SplineSet
205 1644 m 0
 269 1644 325 1599 350 1520 c 1
 434 1148 l 1
 441 1129 441 1115 441 1112 c 0
 441 1084 419 1047 380 1047 c 0
 353 1047 328 1062 312 1086 c 2
 103 1392 l 1
 73 1431 63 1469 63 1503 c 0
 63 1588 133 1644 205 1644 c 0
110 996 m 1
 394 996 l 1
 394 0 l 1
 110 0 l 1
 110 996 l 1
EndSplineSet
EndChar

StartChar: ij
Encoding: 307 307 195
Width: 941
VWidth: 0
Flags: HW
LayerCount: 2
Fore
SplineSet
446 1225 m 0
 446 1137 380 1053 269 1053 c 0
 159 1053 92 1137 92 1225 c 0
 92 1312 160 1395 269 1395 c 0
 379 1395 446 1312 446 1225 c 0
19 -384 m 2
 -23 -384 l 1
 -73 -141 l 1
 -10 -141 l 2
 122 -141 128 -85 128 10 c 0
 128 19 128 29 128 39 c 2
 128 1017 l 1
 410 1017 l 1
 410 -28 l 2
 410 -134 356 -384 19 -384 c 2
884 1225 m 0
 884 1138 820 1053 710 1053 c 0
 599 1053 532 1137 532 1225 c 0
 532 1312 599 1395 710 1395 c 0
 819 1395 884 1311 884 1225 c 0
568 997 m 1
 848 997 l 1
 848 0 l 1
 568 0 l 1
 568 997 l 1
EndSplineSet
EndChar

StartChar: imacron
Encoding: 299 299 196
Width: 456
VWidth: 0
Flags: HW
LayerCount: 2
Fore
SplineSet
558 1047 m 1
 -57 1047 l 1
 -57 1301 l 1
 558 1301 l 1
 558 1047 l 1
110 998 m 1
 393 998 l 1
 393 0 l 1
 110 0 l 1
 110 998 l 1
EndSplineSet
EndChar

StartChar: iogonek
Encoding: 303 303 197
Width: 465
VWidth: 0
Flags: HW
LayerCount: 2
Fore
SplineSet
409 1224 m 0
 409 1138 343 1053 232 1053 c 0
 122 1053 56 1138 56 1224 c 0
 56 1311 122 1396 232 1396 c 0
 343 1396 409 1311 409 1224 c 0
92 997 m 1
 372 997 l 1
 372 0 l 1
 334 0 l 1
 339 -8 l 1
 278 -29 l 2
 215 -51 195 -90 195 -107 c 0
 195 -131 221 -181 332 -181 c 2
 398 -181 l 1
 344 -400 l 1
 313 -407 l 2
 294 -411 276 -412 260 -412 c 0
 92 -412 -27 -282 -27 -143 c 0
 -27 -64 12 17 92 62 c 1
 92 997 l 1
EndSplineSet
EndChar

StartChar: itilde
Encoding: 297 297 198
Width: 455
VWidth: 0
Flags: HW
LayerCount: 2
Fore
SplineSet
368 1047 m 0
 250 1047 113 1135 22 1135 c 0
 -11 1135 -11 1090 -83 1090 c 0
 -117 1090 -148 1117 -148 1154 c 0
 -148 1167 -140 1190 -134 1198 c 0
 -79 1289 -4 1366 114 1366 c 0
 258 1366 423 1276 480 1276 c 0
 519 1276 509 1322 587 1322 c 0
 619 1322 650 1291 650 1259 c 0
 650 1241 643 1224 637 1215 c 0
 575 1122 491 1047 368 1047 c 0
110 998 m 1
 392 998 l 1
 392 0 l 1
 110 0 l 1
 110 998 l 1
EndSplineSet
EndChar

StartChar: j
Encoding: 106 106 199
Width: 475
VWidth: 0
Flags: HW
LayerCount: 2
Fore
SplineSet
444 1225 m 0
 444 1138 379 1053 268 1053 c 0
 159 1053 91 1136 91 1225 c 0
 91 1312 160 1395 268 1395 c 0
 379 1395 444 1311 444 1225 c 0
18 -384 m 2
 -24 -384 l 1
 -74 -141 l 1
 -11 -141 l 2
 121 -141 127 -85 127 10 c 0
 127 19 127 29 127 39 c 2
 127 1017 l 1
 410 1017 l 1
 410 -28 l 2
 410 -134 356 -384 18 -384 c 2
EndSplineSet
EndChar

StartChar: jcircumflex
Encoding: 309 309 200
Width: 508
VWidth: 0
Flags: HW
LayerCount: 2
Fore
SplineSet
-59 1053 m 1
 -66 1051 -73 1047 -86 1047 c 0
 -86 1047 -88 1047 -91 1047 c 0
 -105 1047 -141 1051 -141 1100 c 0
 -141 1142 -128 1135 -128 1135 c 1
 135 1539 l 1
 152 1560 181 1575 213 1575 c 0
 246 1575 277 1563 294 1538 c 1
 567 1117 l 1
 567 1100 l 2
 567 1069 545 1047 514 1047 c 0
 507 1047 492 1051 486 1053 c 1
 213 1242 l 1
 -59 1053 l 1
54 -385 m 2
 12 -385 l 1
 -36 -141 l 1
 26 -141 l 2
 157 -141 163 -85 163 9 c 0
 163 18 163 28 163 38 c 2
 163 1016 l 1
 451 1016 l 1
 451 -28 l 2
 451 -135 397 -385 54 -385 c 2
EndSplineSet
EndChar

StartChar: k
Encoding: 107 107 201
Width: 1001
VWidth: 0
Flags: HW
LayerCount: 2
Fore
SplineSet
337 616 m 1
 695 998 l 1
 1067 998 l 1
 564 524 l 1
 1123 0 l 1
 743 0 l 1
 337 426 l 1
 337 0 l 1
 57 0 l 1
 57 1491 l 1
 337 1491 l 1
 337 616 l 1
EndSplineSet
EndChar

StartChar: kcommaaccent
Encoding: 311 311 202
Width: 1001
VWidth: 0
Flags: HW
LayerCount: 2
Fore
SplineSet
455 -603 m 2
 433 -603 l 1
 360 -524 l 1
 398 -489 l 2
 442 -449 458 -420 464 -375 c 1
 398 -341 367 -279 367 -219 c 0
 367 -98 458 -30 551 -30 c 0
 642 -30 742 -95 742 -227 c 0
 742 -378 607 -603 455 -603 c 2
337 617 m 1
 695 999 l 1
 1067 999 l 1
 564 525 l 1
 1123 -0 l 1
 743 0 l 1
 337 426 l 1
 337 0 l 1
 57 0 l 1
 57 1491 l 1
 337 1491 l 1
 337 617 l 1
EndSplineSet
EndChar

StartChar: kgreenlandic
Encoding: 312 312 203
Width: 1006
VWidth: 0
Flags: HW
LayerCount: 2
Fore
SplineSet
337 616 m 1
 695 998 l 1
 1067 998 l 1
 564 524 l 1
 1123 0 l 1
 743 0 l 1
 337 426 l 1
 337 0 l 1
 57 0 l 1
 57 1491 l 1
 337 1491 l 1
 337 616 l 1
EndSplineSet
EndChar

StartChar: l
Encoding: 108 108 204
Width: 618
VWidth: 0
Flags: HW
LayerCount: 2
Fore
SplineSet
394 -18 m 0
 229 -18 74 89 74 303 c 2
 74 1490 l 1
 354 1490 l 1
 354 345 l 2
 354 236 388 232 416 232 c 0
 451 232 508 253 562 284 c 2
 638 327 l 1
 638 59 l 1
 614 44 l 2
 548 2 471 -18 394 -18 c 0
EndSplineSet
EndChar

StartChar: lacute
Encoding: 314 314 205
Width: 618
VWidth: 0
Flags: HW
LayerCount: 2
Fore
SplineSet
166 1587 m 0
 166 1597 167 1611 175 1627 c 1
 269 1982 l 2
 291 2064 352 2107 416 2107 c 0
 486 2107 557 2054 557 1969 c 0
 557 1932 543 1891 514 1854 c 2
 293 1562 l 1
 293 1562 256 1521 227 1521 c 0
 180 1521 166 1561 166 1587 c 0
394 -19 m 0
 229 -19 74 89 74 302 c 2
 74 1491 l 1
 354 1491 l 1
 354 345 l 2
 354 236 388 232 416 232 c 0
 451 232 508 254 563 284 c 2
 638 325 l 1
 638 60 l 1
 615 45 l 2
 549 2 471 -19 394 -19 c 0
EndSplineSet
EndChar

StartChar: lcaron
Encoding: 318 318 206
Width: 618
VWidth: 0
Flags: HW
LayerCount: 2
Fore
SplineSet
828 916 m 2
 806 916 l 1
 732 993 l 1
 771 1029 l 2
 816 1070 831 1100 837 1144 c 1
 772 1178 740 1241 740 1302 c 0
 740 1422 832 1490 923 1490 c 0
 1015 1490 1117 1424 1117 1293 c 0
 1117 1142 982 916 828 916 c 2
393 -18 m 0
 228 -18 72 89 72 303 c 2
 72 1490 l 1
 354 1490 l 1
 354 345 l 2
 354 235 386 232 415 232 c 0
 449 232 507 254 560 284 c 2
 636 328 l 1
 636 59 l 1
 613 44 l 2
 548 2 470 -18 393 -18 c 0
EndSplineSet
EndChar

StartChar: lcommaaccent
Encoding: 316 316 207
Width: 618
VWidth: 0
Flags: HW
LayerCount: 2
Fore
SplineSet
262 -623 m 2
 240 -623 l 1
 166 -545 l 1
 205 -510 l 2
 249 -470 265 -440 271 -396 c 1
 205 -362 174 -300 174 -239 c 0
 174 -119 264 -49 357 -49 c 0
 449 -49 551 -116 551 -246 c 0
 551 -399 415 -623 262 -623 c 2
394 -18 m 0
 229 -18 74 89 74 303 c 2
 74 1490 l 1
 354 1490 l 1
 354 345 l 2
 354 236 388 232 416 232 c 0
 451 232 508 254 563 284 c 2
 638 325 l 1
 638 59 l 1
 614 44 l 2
 548 2 471 -18 394 -18 c 0
EndSplineSet
EndChar

StartChar: less
Encoding: 60 60 208
Width: 981
VWidth: 0
Flags: HW
LayerCount: 2
Fore
SplineSet
37 465 m 1
 37 700 l 1
 939 1125 l 1
 939 848 l 1
 364 577 l 1
 939 321 l 1
 939 36 l 1
 37 465 l 1
EndSplineSet
EndChar

StartChar: m
Encoding: 109 109 209
Width: 1664
VWidth: 0
Flags: HW
LayerCount: 2
Fore
SplineSet
1211 757 m 0
 1121 757 1022 709 967 645 c 1
 967 0 l 1
 687 0 l 1
 687 640 l 2
 687 721 629 757 570 757 c 0
 488 757 383 704 334 654 c 1
 334 0 l 1
 53 0 l 1
 53 996 l 1
 329 996 l 1
 329 913 l 1
 443 1008 548 1015 598 1015 c 0
 724 1015 830 957 891 856 c 1
 1043 1011 1193 1015 1232 1015 c 0
 1411 1015 1614 914 1614 647 c 2
 1614 0 l 1
 1333 0 l 1
 1333 627 l 2
 1333 710 1299 757 1211 757 c 0
EndSplineSet
EndChar

StartChar: macron
Encoding: 175 175 210
Width: 721
VWidth: 0
Flags: HW
LayerCount: 2
Fore
SplineSet
668 -101 m 1
 53 -101 l 1
 53 153 l 1
 668 153 l 1
 668 -101 l 1
EndSplineSet
EndChar

StartChar: multiply
Encoding: 215 215 211
Width: 1069
VWidth: 0
Flags: HW
LayerCount: 2
Fore
SplineSet
717 817 m 1
 960 566 l 1
 776 384 l 1
 531 631 l 1
 285 385 l 1
 101 569 l 1
 348 816 l 1
 102 1027 l 1
 286 1175 l 1
 533 965 l 1
 780 1176 l 1
 964 1029 l 1
 717 817 l 1
EndSplineSet
EndChar

StartChar: n
Encoding: 110 110 212
Width: 1015
VWidth: 0
Flags: HW
HStem: 0 21G<52 333 687 967> 765 250<424.259 667.696>
VStem: 52 281<0 693.988 918.754 996> 687 280<0 745.441>
LayerCount: 2
Fore
SplineSet
578 765 m 0
 496 765 384 712 333 656 c 1
 333 0 l 1
 52 0 l 1
 52 996 l 1
 329 996 l 1
 329 919 l 1
 447 1008 555 1015 605 1015 c 0
 821 1015 967 866 967 663 c 2
 967 0 l 1
 687 0 l 1
 687 641 l 2
 687 744 640 765 578 765 c 0
EndSplineSet
EndChar

StartChar: nacute
Encoding: 324 324 213
Width: 1015
VWidth: 0
Flags: HW
LayerCount: 2
Fore
SplineSet
314 1113 m 0
 314 1124 315 1130 320 1148 c 2
 416 1508 l 1
 440 1589 500 1631 563 1631 c 0
 631 1631 705 1581 705 1494 c 0
 705 1454 689 1418 661 1378 c 1
 441 1088 l 1
 425 1065 407 1047 375 1047 c 0
 328 1047 314 1096 314 1113 c 0
578 764 m 0
 496 764 384 712 333 655 c 1
 333 0 l 1
 52 0 l 1
 52 996 l 1
 329 996 l 1
 329 919 l 1
 447 1008 555 1014 605 1014 c 0
 821 1014 967 865 967 663 c 2
 967 0 l 1
 687 0 l 1
 687 640 l 2
 687 745 640 764 578 764 c 0
EndSplineSet
EndChar

StartChar: ncaron
Encoding: 328 328 214
Width: 1015
VWidth: 0
Flags: HW
LayerCount: 2
Fore
SplineSet
508 1380 m 1
 782 1570 l 1
 790 1573 795 1576 809 1576 c 0
 825 1576 863 1563 863 1523 c 0
 863 1481 850 1488 850 1488 c 1
 585 1081 l 1
 566 1062 543 1047 508 1047 c 0
 473 1047 450 1062 431 1081 c 1
 155 1506 l 1
 155 1523 l 2
 155 1554 177 1576 208 1576 c 0
 212 1576 230 1572 237 1570 c 1
 508 1380 l 1
578 767 m 0
 496 767 384 714 333 658 c 1
 333 0 l 1
 52 0 l 1
 52 999 l 1
 329 999 l 1
 329 920 l 1
 446 1008 554 1017 605 1017 c 0
 821 1017 967 867 967 665 c 2
 967 0 l 1
 687 0 l 1
 687 641 l 2
 687 747 640 767 578 767 c 0
EndSplineSet
EndChar

StartChar: ncommaaccent
Encoding: 326 326 215
Width: 1015
VWidth: 0
Flags: HW
LayerCount: 2
Fore
SplineSet
409 -604 m 2
 388 -604 l 1
 313 -529 l 1
 351 -493 l 2
 396 -451 412 -421 418 -377 c 1
 352 -342 321 -281 321 -219 c 0
 321 -100 411 -30 505 -30 c 0
 596 -30 696 -98 696 -228 c 0
 696 -379 561 -604 409 -604 c 2
578 766 m 0
 496 766 384 713 333 657 c 1
 333 0 l 1
 52 0 l 1
 52 997 l 1
 329 997 l 1
 329 920 l 1
 447 1009 555 1016 605 1016 c 0
 821 1016 967 867 967 664 c 2
 967 0 l 1
 687 0 l 1
 687 642 l 2
 687 745 640 766 578 766 c 0
EndSplineSet
EndChar

StartChar: nine
Encoding: 57 57 216
Width: 1212
VWidth: 0
Flags: HW
LayerCount: 2
Fore
SplineSet
651 562 m 1
 625 558 600 555 574 555 c 0
 295 555 47 743 47 1035 c 0
 47 1318 275 1534 608 1534 c 0
 960 1534 1164 1312 1164 1032 c 0
 1164 835 1094 696 935 499 c 0
 835 374 528 22 526 19 c 2
 510 0 l 1
 155 0 l 1
 651 562 l 1
608 807 m 0
 803 807 871 907 871 1043 c 0
 871 1179 795 1278 616 1278 c 0
 435 1278 339 1172 339 1038 c 0
 339 895 429 807 608 807 c 0
EndSplineSet
EndChar

StartChar: ntilde
Encoding: 241 241 217
Width: 1015
VWidth: 0
Flags: HW
LayerCount: 2
Fore
SplineSet
626 1047 m 0
 508 1047 371 1135 280 1135 c 0
 245 1135 248 1090 175 1090 c 0
 141 1090 110 1117 110 1154 c 0
 110 1167 118 1190 124 1198 c 0
 179 1288 253 1366 372 1366 c 0
 516 1366 681 1276 738 1276 c 0
 777 1276 767 1322 845 1322 c 0
 877 1322 908 1291 908 1259 c 0
 908 1241 901 1224 895 1215 c 0
 833 1122 749 1047 626 1047 c 0
578 766 m 0
 496 766 384 713 333 657 c 1
 333 0 l 1
 52 0 l 1
 52 998 l 1
 329 998 l 1
 329 920 l 1
 447 1009 554 1017 605 1017 c 0
 821 1017 967 866 967 665 c 2
 967 0 l 1
 687 0 l 1
 687 640 l 2
 687 746 640 766 578 766 c 0
EndSplineSet
EndChar

StartChar: o
Encoding: 111 111 218
Width: 1198
VWidth: 0
Flags: HW
HStem: -19 254<433.126 765.629> 761 256<432.418 766.017>
VStem: 30 281<358.301 639.807> 889 281<358.339 639.77>
LayerCount: 2
Fore
SplineSet
1170 500 m 0
 1170 188 908 -19 599 -19 c 0
 290 -19 30 188 30 500 c 0
 30 810 290 1017 599 1017 c 0
 907 1017 1170 811 1170 500 c 0
889 498 m 0
 889 648 770 761 599 761 c 0
 429 761 311 649 311 498 c 0
 311 350 429 235 599 235 c 0
 769 235 889 350 889 498 c 0
EndSplineSet
EndChar

StartChar: oacute
Encoding: 243 243 219
Width: 1198
VWidth: 0
Flags: HW
LayerCount: 2
Fore
SplineSet
404 1112 m 0
 404 1123 405 1135 409 1147 c 2
 506 1509 l 1
 529 1589 589 1633 653 1633 c 0
 721 1633 795 1581 795 1495 c 0
 795 1456 779 1417 751 1379 c 2
 531 1090 l 1
 520 1073 508 1046 465 1046 c 0
 409 1046 404 1102 404 1112 c 0
1170 500 m 0
 1170 188 908 -19 599 -19 c 0
 290 -19 30 188 30 500 c 0
 30 810 290 1016 599 1016 c 0
 907 1016 1170 810 1170 500 c 0
889 498 m 0
 889 648 770 761 599 761 c 0
 429 761 311 648 311 498 c 0
 311 350 429 234 599 234 c 0
 769 234 889 350 889 498 c 0
EndSplineSet
EndChar

StartChar: obreve
Encoding: 335 335 220
Width: 1198
VWidth: 0
Flags: HW
LayerCount: 2
Fore
SplineSet
883 1388 m 1
 881 1335 l 2
 875 1147 736 1047 600 1047 c 0
 462 1047 324 1147 317 1335 c 2
 315 1388 l 1
 517 1388 l 1
 523 1343 l 2
 530 1285 565 1265 599 1265 c 0
 632 1265 669 1287 675 1343 c 2
 680 1388 l 1
 883 1388 l 1
1170 501 m 0
 1170 189 908 -18 599 -18 c 0
 290 -18 30 189 30 501 c 0
 30 809 290 1017 599 1017 c 0
 908 1017 1170 809 1170 501 c 0
889 498 m 0
 889 648 770 761 599 761 c 0
 429 761 311 649 311 498 c 0
 311 350 429 234 599 234 c 0
 769 234 889 351 889 498 c 0
EndSplineSet
EndChar

StartChar: ocircumflex
Encoding: 244 244 221
Width: 1198
VWidth: 0
Flags: HW
LayerCount: 2
Fore
SplineSet
328 1053 m 1
 321 1051 314 1047 301 1047 c 0
 301 1047 299 1047 296 1047 c 0
 282 1047 246 1051 246 1100 c 0
 246 1142 259 1135 259 1135 c 1
 522 1539 l 1
 543 1565 571 1576 600 1576 c 0
 625 1576 657 1572 681 1538 c 1
 954 1117 l 1
 954 1100 l 2
 954 1069 932 1047 901 1047 c 0
 894 1047 879 1051 873 1053 c 1
 600 1242 l 1
 328 1053 l 1
1170 500 m 0
 1170 188 908 -20 599 -20 c 0
 290 -20 30 188 30 500 c 0
 30 809 290 1017 599 1017 c 0
 908 1017 1170 809 1170 500 c 0
889 498 m 0
 889 648 770 760 599 760 c 0
 428 760 311 649 311 498 c 0
 311 350 429 234 599 234 c 0
 769 234 889 350 889 498 c 0
EndSplineSet
EndChar

StartChar: odieresis
Encoding: 246 246 222
Width: 1198
VWidth: 0
Flags: HW
LayerCount: 2
Fore
SplineSet
787 1047 m 0
 710 1047 619 1101 619 1211 c 0
 619 1321 706 1382 787 1382 c 0
 870 1382 955 1320 955 1211 c 0
 955 1101 866 1047 787 1047 c 0
411 1047 m 0
 332 1047 244 1102 244 1211 c 0
 244 1320 329 1382 411 1382 c 0
 492 1382 580 1321 580 1211 c 0
 580 1100 489 1047 411 1047 c 0
1170 500 m 0
 1170 188 908 -19 599 -19 c 0
 290 -19 30 188 30 500 c 0
 30 809 290 1017 599 1017 c 0
 908 1017 1170 810 1170 500 c 0
889 498 m 0
 889 648 770 761 599 761 c 0
 429 761 311 649 311 498 c 0
 311 350 429 234 599 234 c 0
 769 234 889 351 889 498 c 0
EndSplineSet
EndChar

StartChar: oe
Encoding: 339 339 223
Width: 1861
VWidth: 0
Flags: HW
LayerCount: 2
Fore
SplineSet
837 498 m 0
 837 652 728 761 577 761 c 0
 394 761 299 636 299 498 c 0
 299 359 392 235 574 235 c 0
 727 235 837 347 837 498 c 0
985 165 m 1
 883 48 735 -19 574 -19 c 0
 213 -19 28 246 28 500 c 0
 28 755 211 1017 577 1017 c 0
 733 1017 876 952 976 843 c 1
 1061 948 1185 1016 1330 1016 c 0
 1646 1016 1795 797 1795 519 c 2
 1795 447 l 1
 1123 447 l 1
 1143 300 1245 206 1411 206 c 0
 1509 206 1605 234 1698 288 c 2
 1777 334 l 1
 1777 84 l 1
 1754 71 l 2
 1655 12 1539 -19 1412 -19 c 0
 1235 -19 1085 49 985 165 c 1
1140 669 m 1
 1523 669 l 1
 1502 758 1432 816 1335 816 c 0
 1237 816 1173 759 1140 669 c 1
EndSplineSet
EndChar

StartChar: ogonek
Encoding: 731 731 224
Width: 444
VWidth: 0
Flags: HW
LayerCount: 2
Fore
SplineSet
280 46 m 2
 308 46 l 1
 389 -36 l 1
 326 -49 l 2
 261 -63 244 -88 244 -101 c 0
 244 -117 269 -149 381 -149 c 2
 447 -149 l 1
 393 -369 l 1
 362 -376 l 2
 343 -380 325 -381 309 -381 c 0
 140 -381 22 -276 22 -164 c 0
 22 -61 111 46 280 46 c 2
EndSplineSet
EndChar

StartChar: ograve
Encoding: 242 242 225
Width: 1198
VWidth: 0
Flags: HW
LayerCount: 2
Fore
SplineSet
553 1644 m 0
 616 1644 673 1598 698 1520 c 1
 783 1144 l 1
 788 1127 788 1116 788 1110 c 0
 788 1098 787 1045 729 1045 c 0
 692 1045 673 1069 660 1087 c 2
 452 1393 l 1
 424 1429 409 1465 409 1504 c 0
 409 1589 483 1644 553 1644 c 0
1170 499 m 0
 1170 189 908 -20 599 -20 c 0
 290 -20 30 189 30 499 c 0
 30 809 290 1015 599 1015 c 0
 907 1015 1170 810 1170 499 c 0
889 497 m 0
 889 647 769 761 599 761 c 0
 429 761 311 647 311 497 c 0
 311 348 429 233 599 233 c 0
 769 233 889 349 889 497 c 0
EndSplineSet
EndChar

StartChar: ohungarumlaut
Encoding: 337 337 226
Width: 1198
VWidth: 0
Flags: HW
LayerCount: 2
Fore
SplineSet
224 1112 m 0
 224 1137 233 1146 233 1147 c 2
 329 1509 l 1
 352 1589 412 1633 476 1633 c 0
 546 1633 617 1580 617 1495 c 0
 617 1457 601 1417 572 1379 c 2
 352 1089 l 2
 343 1076 329 1046 286 1046 c 0
 237 1046 224 1084 224 1112 c 0
584 1112 m 0
 584 1117 584 1133 589 1149 c 1
 685 1509 l 1
 710 1587 767 1633 833 1633 c 0
 902 1633 974 1581 974 1495 c 0
 974 1460 961 1418 931 1379 c 2
 710 1089 l 2
 696 1070 684 1046 643 1046 c 0
 581 1046 584 1107 584 1112 c 0
1170 500 m 0
 1170 188 908 -19 599 -19 c 0
 290 -19 30 188 30 500 c 0
 30 810 290 1016 599 1016 c 0
 907 1016 1170 810 1170 500 c 0
889 498 m 0
 889 648 770 761 599 761 c 0
 429 761 311 648 311 498 c 0
 311 350 429 234 599 234 c 0
 769 234 889 350 889 498 c 0
EndSplineSet
EndChar

StartChar: omacron
Encoding: 333 333 227
Width: 1198
VWidth: 0
Flags: HW
LayerCount: 2
Fore
SplineSet
907 1048 m 1
 291 1048 l 1
 291 1302 l 1
 907 1302 l 1
 907 1048 l 1
1170 501 m 0
 1170 190 908 -18 599 -18 c 0
 290 -18 30 190 30 501 c 0
 30 810 290 1018 599 1018 c 0
 908 1018 1170 810 1170 501 c 0
889 498 m 0
 889 649 770 761 599 761 c 0
 428 761 311 650 311 498 c 0
 311 350 429 234 599 234 c 0
 769 234 889 351 889 498 c 0
EndSplineSet
EndChar

StartChar: one
Encoding: 49 49 228
Width: 609
VWidth: 0
Flags: HW
LayerCount: 2
Fore
SplineSet
59 1387 m 2
 158 1432 253 1466 330 1522 c 1
 561 1522 l 1
 561 0 l 1
 278 0 l 1
 278 1195 l 1
 213 1161 150 1137 95 1120 c 2
 29 1100 l 1
 29 1373 l 1
 59 1387 l 2
EndSplineSet
EndChar

StartChar: oslash
Encoding: 248 248 229
Width: 1199
VWidth: 0
Flags: HW
LayerCount: 2
Fore
SplineSet
1170 505 m 0
 1170 190 908 -19 599 -19 c 0
 541 -19 484 -11 432 4 c 1
 341 -171 l 1
 159 -89 l 1
 253 76 l 1
 117 168 30 317 30 498 c 0
 30 807 290 1017 599 1017 c 0
 659 1017 719 1008 772 992 c 1
 883 1208 l 1
 1062 1125 l 1
 948 923 l 1
 1084 831 1170 683 1170 505 c 0
889 548 m 0
 889 631 863 704 820 758 c 1
 552 238 l 1
 568 235 582 234 599 234 c 0
 769 234 889 372 889 548 c 0
380 236 m 1
 649 756 l 1
 632 759 617 760 599 760 c 0
 428 760 311 627 311 446 c 0
 311 365 337 291 380 236 c 1
EndSplineSet
EndChar

StartChar: otilde
Encoding: 245 245 230
Width: 1198
VWidth: 0
Flags: HW
LayerCount: 2
Fore
SplineSet
717 1046 m 0
 599 1046 462 1135 371 1135 c 0
 338 1135 339 1089 266 1089 c 0
 236 1089 201 1114 201 1153 c 0
 201 1166 208 1187 215 1197 c 0
 270 1288 346 1364 463 1364 c 0
 607 1364 772 1276 829 1276 c 0
 868 1276 858 1322 936 1322 c 0
 974 1322 999 1286 999 1258 c 0
 999 1241 993 1223 986 1213 c 0
 924 1121 840 1046 717 1046 c 0
1170 500 m 0
 1170 188 908 -19 599 -19 c 0
 290 -19 30 188 30 500 c 0
 30 808 290 1017 599 1017 c 0
 908 1017 1170 808 1170 500 c 0
889 498 m 0
 889 648 770 760 599 760 c 0
 428 760 311 648 311 498 c 0
 311 349 429 233 599 233 c 0
 769 233 889 350 889 498 c 0
EndSplineSet
EndChar

StartChar: p
Encoding: 112 112 231
Width: 1068
VWidth: 0
Flags: HW
LayerCount: 2
Fore
SplineSet
518 752 m 0
 432 752 364 719 333 701 c 1
 333 258 l 1
 360 243 417 218 497 218 c 0
 659 218 744 367 744 519 c 0
 744 648 669 752 518 752 c 0
1040 524 m 0
 1040 268 859 -21 520 -21 c 0
 443 -21 379 -3 333 15 c 1
 333 -405 l 1
 51 -405 l 1
 51 996 l 1
 333 996 l 1
 333 945 l 1
 333 945 517 1016 535 1016 c 0
 875 1016 1040 768 1040 524 c 0
EndSplineSet
EndChar

StartChar: paragraph
Encoding: 182 182 232
Width: 1243
VWidth: 0
Flags: HW
LayerCount: 2
Fore
SplineSet
1226 2261 m 2
 1227 2236 1231 2237 1231 2206 c 0
 1231 2179 1221 2142 1166 2138 c 0
 1150 2136 1120 2136 1093 2135 c 1
 1093 2072 1093 2009 1093 1947 c 0
 1093 1461 1088 979 1088 495 c 0
 1088 374 1088 252 1089 131 c 1
 1089 128 l 1
 1089 128 1089 126 1089 122 c 0
 1089 104 1084 51 1020 51 c 2
 926 51 l 1
 886 91 l 1
 886 2134 l 1
 760 2134 l 1
 760 1973 761 1605 761 1240 c 0
 761 949 761 660 760 481 c 0
 760 425 767 327 767 241 c 0
 767 166 762 100 740 78 c 1
 715 56 l 1
 619 56 l 2
 562 56 553 91 553 115 c 0
 553 127 555 136 555 136 c 1
 554 158 554 225 554 263 c 2
 554 286 l 2
 554 518 558 748 558 978 c 2
 558 1232 l 2
 558 1252 557 1292 556 1322 c 1
 552 1322 l 2
 236 1322 39 1524 39 1838 c 0
 39 2277 418 2333 733 2333 c 0
 761 2333 835 2331 869 2331 c 0
 922 2331 1129 2327 1180 2325 c 1
 1191 2319 l 2
 1214 2305 1220 2286 1226 2269 c 1
 1226 2261 l 2
EndSplineSet
EndChar

StartChar: parenleft
Encoding: 40 40 233
Width: 668
VWidth: 0
Flags: HW
LayerCount: 2
Fore
SplineSet
617 1432 m 1
 440 1316 340 1041 340 760 c 0
 340 479 440 204 617 88 c 1
 666 54 l 1
 490 -131 l 1
 454 -108 l 1
 175 65 45 418 45 760 c 0
 45 1102 175 1455 454 1628 c 1
 490 1651 l 1
 666 1466 l 1
 617 1432 l 1
EndSplineSet
EndChar

StartChar: parenright
Encoding: 41 41 234
Width: 669
VWidth: 0
Flags: HW
LayerCount: 2
Fore
SplineSet
4 1466 m 1
 180 1651 l 1
 216 1628 l 1
 495 1455 625 1102 625 760 c 0
 625 418 495 65 216 -108 c 1
 180 -131 l 1
 4 54 l 1
 53 88 l 1
 230 204 330 479 330 760 c 0
 330 1041 230 1316 53 1432 c 1
 4 1466 l 1
EndSplineSet
EndChar

StartChar: percent
Encoding: 37 37 235
Width: 1764
VWidth: 0
Flags: HW
LayerCount: 2
Fore
SplineSet
1245 1516 m 1
 1516 1516 l 1
 520 0 l 1
 247 0 l 1
 1245 1516 l 1
872 1139 m 0
 872 945 732 747 456 747 c 0
 178 747 39 946 39 1139 c 0
 39 1335 182 1538 456 1538 c 0
 730 1538 872 1335 872 1139 c 0
632 1143 m 0
 632 1242 570 1326 456 1326 c 0
 341 1326 281 1242 281 1143 c 0
 281 1042 343 957 456 957 c 0
 568 957 632 1042 632 1143 c 0
1725 375 m 0
 1725 183 1587 -17 1309 -17 c 0
 1032 -17 892 182 892 375 c 0
 892 570 1035 774 1309 774 c 0
 1585 774 1725 570 1725 375 c 0
1484 379 m 0
 1484 479 1424 563 1309 563 c 0
 1195 563 1134 479 1134 379 c 0
 1134 279 1197 194 1309 194 c 0
 1422 194 1484 279 1484 379 c 0
EndSplineSet
EndChar

StartChar: period
Encoding: 46 46 236
Width: 640
VWidth: 0
Flags: HW
LayerCount: 2
Fore
SplineSet
320 -120 m 0
 234 -120 139 -59 139 59 c 0
 139 179 232 243 320 243 c 0
 408 243 501 177 501 59 c 0
 501 -60 405 -120 320 -120 c 0
EndSplineSet
EndChar

StartChar: plus
Encoding: 43 43 237
Width: 1188
VWidth: 0
Flags: HW
LayerCount: 2
Fore
SplineSet
1046 655 m 1
 722 655 l 1
 722 305 l 1
 465 305 l 1
 465 655 l 1
 141 655 l 1
 141 912 l 1
 465 912 l 1
 465 1211 l 1
 722 1211 l 1
 722 912 l 1
 1046 912 l 1
 1046 655 l 1
EndSplineSet
EndChar

StartChar: q
Encoding: 113 113 238
Width: 1064
VWidth: 0
Flags: HW
LayerCount: 2
Fore
SplineSet
601 240 m 0
 665 240 707 254 727 263 c 1
 727 715 l 1
 666 747 607 760 556 760 c 0
 437 760 324 671 324 506 c 0
 324 374 432 240 601 240 c 0
727 996 m 1
 1007 996 l 1
 1007 -405 l 1
 727 -405 l 1
 727 8 l 1
 690 -8 643 -21 587 -21 c 0
 225 -21 30 255 30 516 c 0
 30 802 254 1015 515 1015 c 0
 586 1015 659 993 727 950 c 1
 727 996 l 1
EndSplineSet
EndChar

StartChar: question
Encoding: 63 63 239
Width: 997
VWidth: 0
Flags: HW
LayerCount: 2
Fore
SplineSet
395 277 m 0
 456 277 479 334 488 371 c 0
 546 635 921 765 921 1113 c 0
 921 1405 692 1542 467 1542 c 0
 327 1542 188 1498 81 1413 c 2
 52 1390 l 1
 149 1135 l 1
 204 1185 l 2
 264 1240 362 1277 452 1277 c 0
 541 1277 624 1212 624 1111 c 0
 624 897 306 780 306 384 c 0
 306 336 334 277 395 277 c 0
416 -17 m 0
 329 -17 235 43 235 161 c 0
 235 279 326 345 416 345 c 0
 504 345 596 278 596 161 c 0
 596 43 501 -17 416 -17 c 0
EndSplineSet
EndChar

StartChar: questiondown
Encoding: 191 191 240
Width: 997
VWidth: 0
Flags: HW
LayerCount: 2
Fore
SplineSet
604 1146 m 0
 665 1146 693 1094 693 1050 c 0
 693 694 375 589 375 397 c 0
 375 306 458 248 547 248 c 0
 637 248 735 285 795 340 c 2
 850 390 l 1
 947 135 l 1
 918 112 l 2
 811 27 672 -17 532 -17 c 0
 307 -17 78 109 78 377 c 0
 78 697 453 817 511 1060 c 0
 520 1094 543 1146 604 1146 c 0
583 1542 m 0
 670 1542 764 1482 764 1364 c 0
 764 1246 673 1180 583 1180 c 0
 495 1180 403 1247 403 1364 c 0
 403 1482 498 1542 583 1542 c 0
EndSplineSet
EndChar

StartChar: quotedbl
Encoding: 34 34 241
Width: 826
VWidth: 0
Flags: HW
LayerCount: 2
Fore
SplineSet
279 859 m 0
 209 859 194 934 190 977 c 1
 137 1366 l 1
 137 1368 l 2
 137 1371 136 1375 136 1383 c 0
 136 1475 220 1515 282 1515 c 0
 330 1515 389 1492 414 1439 c 1
 439 1491 500 1515 547 1515 c 0
 610 1515 692 1476 692 1384 c 0
 692 1378 692 1372 690 1359 c 2
 634 977 l 2
 628 934 613 859 544 859 c 0
 475 859 460 933 455 977 c 1
 414 1287 l 1
 369 978 l 1
 364 932 347 859 279 859 c 0
EndSplineSet
EndChar

StartChar: quotedblleft
Encoding: 8220 8220 242
Width: 872
VWidth: 0
Flags: HW
LayerCount: 2
Fore
SplineSet
729 1567 m 2
 751 1567 l 1
 824 1490 l 1
 791 1455 l 2
 754 1416 740 1384 735 1337 c 1
 802 1302 832 1241 832 1181 c 0
 832 1059 732 991 635 991 c 0
 543 991 442 1058 442 1189 c 0
 442 1339 577 1567 729 1567 c 2
328 1567 m 2
 350 1567 l 1
 423 1491 l 1
 390 1455 l 2
 353 1416 339 1384 333 1337 c 1
 398 1304 434 1244 434 1181 c 0
 434 1057 327 991 234 991 c 0
 140 991 41 1059 41 1189 c 0
 41 1339 175 1567 328 1567 c 2
EndSplineSet
EndChar

StartChar: quotedblright
Encoding: 8221 8221 243
Width: 871
VWidth: 0
Flags: HW
LayerCount: 2
Fore
SplineSet
143 991 m 2
 121 991 l 1
 48 1170 l 1
 81 1205 l 1
 118 1210 132 1214 137 1221 c 1
 70 1256 40 1317 40 1377 c 0
 40 1499 140 1567 237 1567 c 0
 329 1567 431 1499 431 1368 c 0
 431 1217 295 991 143 991 c 2
544 991 m 2
 522 991 l 1
 449 1169 l 1
 482 1205 l 1
 519 1211 534 1215 539 1221 c 1
 473 1255 440 1315 440 1377 c 0
 440 1500 544 1567 638 1567 c 0
 733 1567 831 1498 831 1368 c 0
 831 1218 697 991 544 991 c 2
EndSplineSet
EndChar

StartChar: quoteleft
Encoding: 8216 8216 244
Width: 474
VWidth: 0
Flags: HW
LayerCount: 2
Fore
SplineSet
333 1567 m 2
 355 1567 l 1
 426 1490 l 1
 394 1455 l 2
 357 1415 342 1383 336 1337 c 1
 402 1303 435 1243 435 1181 c 0
 435 1059 335 991 239 991 c 0
 147 991 42 1057 42 1189 c 0
 42 1340 179 1567 333 1567 c 2
EndSplineSet
EndChar

StartChar: quoteright
Encoding: 8217 8217 245
Width: 468
VWidth: 0
Flags: HW
LayerCount: 2
Fore
SplineSet
141 991 m 2
 119 991 l 1
 47 1170 l 1
 80 1205 l 1
 117 1210 132 1215 137 1221 c 1
 71 1255 39 1316 39 1377 c 0
 39 1499 140 1567 235 1567 c 0
 328 1567 429 1499 429 1368 c 0
 429 1217 294 991 141 991 c 2
EndSplineSet
EndChar

StartChar: quotesingle
Encoding: 39 39 246
Width: 560
VWidth: 0
Flags: HW
LayerCount: 2
Fore
SplineSet
279 859 m 0
 210 859 195 933 190 977 c 1
 138 1366 l 2
 137 1371 136 1375 136 1383 c 0
 136 1476 221 1515 282 1515 c 0
 344 1515 427 1477 427 1384 c 0
 427 1381 427 1367 424 1357 c 1
 370 977 l 2
 364 932 348 859 279 859 c 0
EndSplineSet
EndChar

StartChar: r
Encoding: 114 114 247
Width: 823
VWidth: 0
Flags: HW
LayerCount: 2
Fore
SplineSet
57 0 m 1
 57 996 l 1
 335 996 l 1
 335 900 l 1
 389 964 465 1015 561 1015 c 0
 629 1015 725 977 810 882 c 2
 838 851 l 1
 657 605 l 1
 615 657 l 2
 587 693 547 723 517 723 c 0
 486 723 411 700 367 592 c 0
 348 546 335 486 335 405 c 2
 335 0 l 1
 57 0 l 1
EndSplineSet
EndChar

StartChar: racute
Encoding: 341 341 248
Width: 823
VWidth: 0
Flags: HW
LayerCount: 2
Fore
SplineSet
242 1113 m 0
 242 1124 243 1129 248 1147 c 2
 343 1508 l 1
 368 1589 427 1631 491 1631 c 0
 558 1631 633 1582 633 1494 c 0
 633 1454 616 1417 588 1378 c 2
 368 1088 l 1
 353 1066 330 1047 300 1047 c 0
 243 1047 242 1105 242 1113 c 0
57 0 m 1
 57 996 l 1
 335 996 l 1
 335 900 l 1
 389 964 465 1014 561 1014 c 0
 629 1014 725 977 810 882 c 2
 838 851 l 1
 657 605 l 1
 615 657 l 2
 587 693 547 723 517 723 c 0
 486 723 410 701 366 592 c 0
 348 546 335 485 335 405 c 2
 335 0 l 1
 57 0 l 1
EndSplineSet
EndChar

StartChar: rcaron
Encoding: 345 345 249
Width: 823
VWidth: 0
Flags: HW
LayerCount: 2
Fore
SplineSet
137 1576 m 0
 137 1576 137 1576 138 1576 c 0
 141 1576 151 1576 165 1570 c 1
 437 1380 l 1
 707 1568 l 1
 710 1570 l 1
 710 1570 729 1576 736 1576 c 0
 737 1576 792 1574 792 1523 c 0
 792 1481 779 1488 779 1488 c 1
 514 1081 l 1
 495 1062 472 1047 437 1047 c 0
 405 1047 379 1058 359 1082 c 1
 84 1506 l 1
 84 1523 l 2
 84 1554 106 1576 137 1576 c 0
57 0 m 1
 57 999 l 1
 335 999 l 1
 335 902 l 1
 390 967 465 1017 561 1017 c 0
 629 1017 725 980 810 884 c 2
 837 853 l 1
 656 605 l 1
 615 659 l 2
 586 696 546 726 517 726 c 0
 486 726 411 703 367 595 c 0
 348 549 335 487 335 406 c 2
 335 0 l 1
 57 0 l 1
EndSplineSet
EndChar

StartChar: rcommaaccent
Encoding: 343 343 250
Width: 823
VWidth: 0
Flags: HW
LayerCount: 2
Fore
SplineSet
338 -604 m 2
 318 -604 l 1
 240 -530 l 1
 279 -493 l 2
 324 -451 341 -421 347 -377 c 1
 281 -343 248 -281 248 -219 c 0
 248 -100 340 -30 431 -30 c 0
 525 -30 625 -97 625 -228 c 0
 625 -379 490 -604 338 -604 c 2
57 0 m 1
 57 997 l 1
 335 997 l 1
 335 901 l 1
 389 965 465 1016 561 1016 c 0
 629 1016 725 978 810 883 c 2
 838 852 l 1
 657 605 l 1
 615 657 l 2
 586 693 546 724 517 724 c 0
 486 724 411 701 367 593 c 0
 348 547 335 487 335 406 c 2
 335 0 l 1
 57 0 l 1
EndSplineSet
EndChar

StartChar: registered
Encoding: 174 174 251
Width: 1813
VWidth: 0
Flags: HW
LayerCount: 2
Fore
SplineSet
829 989 m 1
 829 784 l 1
 952 786 998 799 998 889 c 0
 998 943 994 989 857 989 c 2
 829 989 l 1
1059 623 m 1
 1116 490 1186 362 1253 251 c 1
 1253 235 l 1
 1366 327 1444 473 1444 675 c 0
 1444 1049 1175 1231 908 1231 c 0
 837 1231 765 1218 699 1192 c 1
 871 1192 l 2
 1027 1192 1176 1133 1214 973 c 1
 1225 979 l 1
 1225 896 l 2
 1225 780 1172 677 1059 623 c 1
1683 726 m 0
 1683 247 1289 2 907 2 c 0
 526 2 135 246 135 726 c 0
 135 1207 529 1448 910 1448 c 0
 1291 1448 1683 1207 1683 726 c 0
909 220 m 0
 979 220 1050 231 1115 254 c 1
 1053 254 l 1
 1038 276 l 2
 984 355 902 510 844 635 c 1
 842 635 842 635 841 635 c 2
 830 635 l 1
 830 254 l 1
 703 254 l 1
 768 231 839 220 909 220 c 0
374 675 m 0
 374 447 473 291 611 203 c 1
 611 1147 l 1
 473 1060 374 904 374 675 c 0
EndSplineSet
EndChar

StartChar: ring
Encoding: 730 730 252
Width: 661
VWidth: 0
Flags: HW
LayerCount: 2
Fore
SplineSet
330 462 m 0
 287 462 257 440 257 399 c 0
 257 357 288 334 331 334 c 0
 373 334 402 355 402 399 c 0
 402 441 373 462 330 462 c 0
331 666 m 0
 468 666 620 577 620 399 c 0
 620 219 468 130 330 130 c 0
 192 130 41 220 41 400 c 0
 41 578 193 666 331 666 c 0
EndSplineSet
EndChar

StartChar: s
Encoding: 115 115 253
Width: 833
VWidth: 0
Flags: HW
LayerCount: 2
Fore
SplineSet
67 103 m 2
 49 121 l 1
 82 377 l 1
 152 328 l 2
 219 280 332 237 423 237 c 0
 493 237 515 257 515 287 c 0
 515 302 508 328 447 362 c 1
 236 473 l 1
 104 541 54 643 54 740 c 0
 54 889 197 1017 432 1017 c 0
 531 1017 651 988 731 939 c 2
 763 919 l 1
 700 675 l 1
 642 708 l 2
 592 736 514 770 443 770 c 0
 367 770 338 752 338 712 c 0
 338 700 344 673 419 627 c 1
 602 525 l 1
 725 455 788 355 788 261 c 0
 788 107 639 -19 425 -19 c 0
 293 -19 150 20 67 103 c 2
EndSplineSet
EndChar

StartChar: sacute
Encoding: 347 347 254
Width: 833
VWidth: 0
Flags: HW
LayerCount: 2
Fore
SplineSet
198 1112 m 0
 198 1123 199 1135 203 1147 c 2
 300 1509 l 1
 323 1589 383 1633 447 1633 c 0
 515 1633 589 1581 589 1495 c 0
 589 1456 573 1417 545 1379 c 2
 325 1090 l 1
 314 1073 302 1046 259 1046 c 0
 203 1046 198 1102 198 1112 c 0
67 104 m 2
 49 122 l 1
 82 378 l 1
 152 327 l 2
 219 278 332 237 423 237 c 0
 494 237 515 257 515 287 c 0
 515 303 507 327 446 362 c 1
 236 472 l 2
 104 541 54 644 54 740 c 0
 54 889 197 1016 432 1016 c 0
 531 1016 650 987 731 937 c 2
 763 917 l 1
 700 676 l 1
 643 707 l 2
 593 734 514 769 443 769 c 0
 367 769 338 750 338 711 c 0
 338 699 344 672 419 626 c 1
 601 525 l 1
 724 455 788 356 788 262 c 0
 788 107 640 -19 425 -19 c 0
 293 -19 150 20 67 104 c 2
EndSplineSet
EndChar

StartChar: scaron
Encoding: 353 353 255
Width: 833
VWidth: 0
Flags: HW
LayerCount: 2
Fore
SplineSet
392 1379 m 1
 671 1572 l 2
 672 1572 691 1576 692 1576 c 0
 722 1576 747 1552 747 1522 c 0
 747 1480 734 1487 734 1487 c 1
 474 1089 l 2
 451 1052 413 1047 392 1047 c 0
 370 1047 334 1054 315 1083 c 2
 40 1505 l 1
 40 1522 l 2
 40 1544 54 1576 94 1576 c 0
 94 1576 94 1576 95 1576 c 0
 99 1576 108 1576 120 1570 c 1
 392 1379 l 1
65 101 m 2
 47 120 l 1
 85 376 l 1
 153 326 l 2
 218 279 331 236 424 236 c 0
 492 236 516 257 516 286 c 0
 516 301 508 328 446 363 c 1
 234 471 l 1
 103 541 55 644 55 739 c 0
 55 888 195 1017 430 1017 c 0
 530 1017 649 989 730 937 c 2
 761 917 l 1
 700 675 l 1
 642 708 l 2
 593 736 513 770 441 770 c 0
 367 770 336 752 336 711 c 0
 336 700 342 674 417 627 c 1
 599 525 l 1
 724 454 787 355 787 260 c 0
 787 107 639 -20 426 -20 c 0
 292 -20 149 19 65 101 c 2
EndSplineSet
EndChar

StartChar: scedilla
Encoding: 351 351 256
Width: 833
VWidth: 0
Flags: HW
LayerCount: 2
Fore
SplineSet
379 -445 m 0
 292 -445 212 -424 155 -388 c 1
 151 -385 l 1
 151 -385 124 -377 124 -334 c 0
 124 -283 161 -278 179 -278 c 0
 184 -278 188 -278 188 -278 c 0
 229 -278 285 -295 342 -295 c 0
 400 -295 403 -282 403 -278 c 1
 384 -263 296 -261 271 -261 c 2
 200 -261 l 1
 286 -5 l 1
 200 13 122 46 67 102 c 2
 49 120 l 1
 82 375 l 1
 151 327 l 2
 219 280 332 236 423 236 c 0
 493 236 515 257 515 286 c 0
 515 301 508 329 447 362 c 1
 236 470 l 1
 104 540 54 643 54 739 c 0
 54 888 197 1017 432 1017 c 0
 531 1017 651 987 731 937 c 2
 763 917 l 1
 700 676 l 1
 643 707 l 2
 592 735 514 770 443 770 c 0
 368 770 338 751 338 711 c 0
 338 700 344 673 419 627 c 1
 602 525 l 1
 725 454 788 355 788 260 c 0
 788 116 657 -3 465 -18 c 1
 459 -37 l 1
 563 -60 638 -139 638 -242 c 0
 638 -399 489 -445 379 -445 c 0
EndSplineSet
EndChar

StartChar: scircumflex
Encoding: 349 349 257
Width: 833
VWidth: 0
Flags: HW
LayerCount: 2
Fore
SplineSet
130 1059 m 1
 96 1047 l 1
 96 1047 90 1045 82 1045 c 0
 65 1045 40 1053 40 1100 c 0
 40 1142 53 1135 53 1135 c 2
 315 1538 l 1
 337 1569 367 1576 394 1576 c 0
 419 1576 451 1573 477 1532 c 2
 747 1117 l 1
 747 1100 l 2
 747 1060 709 1047 693 1047 c 0
 693 1047 681 1047 666 1054 c 1
 394 1242 l 1
 130 1059 l 1
65 101 m 2
 47 120 l 1
 85 376 l 1
 153 326 l 2
 218 279 331 236 424 236 c 0
 492 236 516 257 516 286 c 0
 516 301 508 328 446 363 c 1
 234 471 l 1
 103 541 55 644 55 739 c 0
 55 888 195 1017 430 1017 c 0
 530 1017 649 989 730 937 c 2
 761 917 l 1
 700 675 l 1
 642 708 l 2
 593 736 513 770 441 770 c 0
 367 770 336 752 336 711 c 0
 336 700 342 674 417 627 c 1
 599 525 l 1
 724 454 787 355 787 260 c 0
 787 107 639 -20 426 -20 c 0
 292 -20 149 19 65 101 c 2
EndSplineSet
EndChar

StartChar: scommaaccent
Encoding: 537 537 258
Width: 833
VWidth: 0
Flags: HW
LayerCount: 2
Fore
SplineSet
294 -624 m 2
 271 -624 l 1
 201 -545 l 1
 237 -511 l 2
 281 -470 298 -439 304 -395 c 1
 237 -361 207 -298 207 -239 c 0
 207 -120 297 -49 389 -49 c 0
 482 -49 582 -116 582 -246 c 0
 582 -399 447 -624 294 -624 c 2
67 103 m 2
 49 121 l 1
 82 377 l 1
 152 328 l 2
 219 280 332 237 423 237 c 0
 494 237 515 258 515 287 c 0
 515 302 508 328 447 362 c 1
 236 473 l 1
 104 541 54 643 54 740 c 0
 54 889 197 1017 432 1017 c 0
 531 1017 651 988 731 939 c 2
 763 919 l 1
 700 675 l 1
 642 708 l 2
 592 736 514 770 443 770 c 0
 367 770 338 752 338 712 c 0
 338 699 344 673 419 627 c 1
 602 525 l 1
 725 455 788 355 788 261 c 0
 788 107 639 -19 425 -19 c 0
 293 -19 150 20 67 103 c 2
EndSplineSet
EndChar

StartChar: semicolon
Encoding: 59 59 259
Width: 641
VWidth: 0
Flags: HW
LayerCount: 2
Fore
SplineSet
226 -101 m 2
 203 -101 l 1
 131 -20 l 1
 169 14 l 2
 214 55 231 85 237 129 c 1
 170 163 139 225 139 285 c 0
 139 403 229 473 321 473 c 0
 413 473 515 406 515 276 c 0
 515 124 380 -101 226 -101 c 2
311 576 m 0
 226 576 130 636 130 754 c 0
 130 874 224 938 311 938 c 0
 399 938 492 872 492 754 c 0
 492 637 397 576 311 576 c 0
EndSplineSet
EndChar

StartChar: seven
Encoding: 55 55 260
Width: 1084
VWidth: 0
Flags: HW
LayerCount: 2
Fore
SplineSet
480 0 m 1
 186 0 l 1
 706 1263 l 1
 41 1263 l 1
 61 1522 l 1
 1037 1522 l 1
 1037 1323 l 1
 480 0 l 1
EndSplineSet
EndChar

StartChar: six
Encoding: 54 54 261
Width: 1214
VWidth: 0
Flags: HW
LayerCount: 2
Fore
SplineSet
566 981 m 1
 591 985 616 987 641 987 c 0
 923 987 1167 777 1167 484 c 0
 1167 200 946 -20 609 -20 c 0
 259 -20 47 217 47 498 c 0
 47 725 133 873 337 1113 c 0
 423 1215 670 1496 676 1502 c 2
 692 1521 l 1
 1060 1521 l 1
 566 981 l 1
604 731 m 0
 410 731 341 628 341 488 c 0
 341 350 425 237 604 237 c 0
 781 237 872 344 872 483 c 0
 872 631 779 731 604 731 c 0
EndSplineSet
EndChar

StartChar: slash
Encoding: 47 47 262
Width: 1096
VWidth: 0
Flags: HW
LayerCount: 2
Fore
SplineSet
790 1516 m 1
 1094 1516 l 1
 305 0 l 1
 -1 0 l 1
 790 1516 l 1
EndSplineSet
EndChar

StartChar: sterling
Encoding: 163 163 264
Width: 1195
VWidth: 0
Flags: HW
LayerCount: 2
Fore
SplineSet
1151 266 m 1
 1151 0 l 1
 180 0 l 1
 180 597 l 1
 35 597 l 1
 35 827 l 1
 184 827 l 1
 215 1235 438 1541 774 1541 c 0
 884 1541 1003 1503 1123 1425 c 2
 1146 1410 l 1
 1146 1114 l 1
 1066 1170 l 2
 963 1243 872 1274 799 1274 c 0
 634 1274 503 1130 479 827 c 1
 801 827 l 1
 801 597 l 1
 475 597 l 1
 475 266 l 1
 1151 266 l 1
EndSplineSet
EndChar

StartChar: t
Encoding: 116 116 265
Width: 747
VWidth: 0
Flags: HW
LayerCount: 2
Fore
SplineSet
451 -21 m 0
 279 -21 114 76 114 250 c 2
 114 757 l 1
 35 757 l 2
 20 757 -43 759 -43 822 c 0
 -43 849 -31 864 -23 876 c 1
 300 1238 l 1
 394 1238 l 1
 394 996 l 1
 702 996 l 1
 702 757 l 1
 394 757 l 1
 394 301 l 2
 394 241 421 231 475 231 c 0
 526 231 608 268 673 313 c 2
 753 369 l 1
 753 88 l 1
 733 73 l 2
 650 8 548 -21 451 -21 c 0
EndSplineSet
EndChar

StartChar: tcaron
Encoding: 357 357 266
Width: 748
VWidth: 0
Flags: HW
LayerCount: 2
Fore
SplineSet
938 663 m 2
 916 663 l 1
 840 742 l 1
 881 777 l 2
 925 816 941 847 947 891 c 1
 882 924 848 985 848 1047 c 0
 848 1167 940 1238 1032 1238 c 0
 1126 1238 1226 1170 1226 1041 c 0
 1226 888 1090 663 938 663 c 2
450 -21 m 0
 280 -21 114 76 114 250 c 2
 114 757 l 1
 34 757 l 2
 19 757 -43 760 -43 822 c 0
 -43 849 -31 864 -23 876 c 1
 300 1238 l 1
 395 1238 l 1
 395 996 l 1
 703 996 l 1
 703 757 l 1
 395 757 l 1
 395 301 l 2
 395 240 422 231 475 231 c 0
 527 231 608 268 673 313 c 2
 753 369 l 1
 753 88 l 1
 733 73 l 2
 650 8 548 -21 450 -21 c 0
EndSplineSet
EndChar

StartChar: tcommaaccent
Encoding: 65540 -1 267
Width: 747
VWidth: 0
Flags: HW
LayerCount: 2
Fore
SplineSet
255 -626 m 2
 233 -626 l 1
 160 -547 l 1
 197 -513 l 2
 242 -471 258 -442 264 -397 c 1
 198 -363 167 -300 167 -239 c 0
 167 -119 259 -51 351 -51 c 0
 442 -51 543 -117 543 -248 c 0
 543 -399 407 -626 255 -626 c 2
451 -72 m 0
 548 -72 650 -43 733 21 c 2
 753 36 l 1
 753 315 l 1
 673 261 l 2
 608 217 526 180 475 180 c 0
 421 180 394 192 394 259 c 2
 394 779 l 1
 702 779 l 1
 702 1007 l 1
 394 1007 l 1
 394 1238 l 1
 300 1238 l 1
 -23 889 l 1
 -33 876 -43 864 -43 838 c 0
 -43 778 20 775 35 775 c 2
 114 775 l 1
 114 223 l 2
 114 34 279 -72 451 -72 c 0
EndSplineSet
EndChar

StartChar: thorn
Encoding: 254 254 268
Width: 1005
VWidth: 0
Flags: HW
LayerCount: 2
Fore
SplineSet
539 752 m 0
 455 752 387 720 357 702 c 1
 357 265 l 1
 381 255 426 241 497 241 c 0
 667 241 765 377 765 522 c 0
 765 650 690 752 539 752 c 0
354 -361 m 1
 69 -361 l 1
 69 1477 l 1
 357 1477 l 1
 357 958 l 1
 423 998 491 1017 556 1017 c 0
 898 1017 1061 767 1061 526 c 0
 1061 265 877 -20 513 -20 c 0
 448 -20 392 -7 354 6 c 1
 354 -361 l 1
EndSplineSet
EndChar

StartChar: three
Encoding: 51 51 269
Width: 961
VWidth: 0
Flags: HW
LayerCount: 2
Fore
SplineSet
424 239 m 0
 606 239 704 310 704 441 c 0
 704 642 537 676 248 676 c 2
 197 676 l 1
 197 930 l 1
 248 930 l 2
 489 930 649 952 649 1111 c 0
 649 1230 584 1278 423 1278 c 0
 294 1278 185 1239 115 1183 c 2
 60 1140 l 1
 -34 1390 l 1
 -4 1413 l 2
 100 1493 244 1536 462 1536 c 0
 701 1536 947 1402 947 1140 c 0
 947 989 879 874 764 805 c 1
 904 735 983 603 983 432 c 0
 983 150 733 -19 423 -19 c 0
 216 -19 62 45 -8 111 c 2
 -33 134 l 1
 59 381 l 1
 114 338 l 2
 184 284 281 239 424 239 c 0
EndSplineSet
EndChar

StartChar: tilde
Encoding: 732 732 270
Width: 624
VWidth: 0
Flags: HW
LayerCount: 2
Fore
SplineSet
429 177 m 0
 311 177 174 264 83 264 c 0
 49 264 50 220 -22 220 c 0
 -56 220 -87 247 -87 284 c 0
 -87 295 -81 317 -71 329 c 1
 -16 419 58 495 175 495 c 0
 319 495 484 406 541 406 c 0
 579 406 569 453 648 453 c 0
 687 453 711 415 711 388 c 0
 711 371 705 355 698 345 c 0
 636 252 552 177 429 177 c 0
EndSplineSet
EndChar

StartChar: two
Encoding: 50 50 271
Width: 1094
VWidth: 0
Flags: HW
LayerCount: 2
Fore
SplineSet
65 1367 m 1
 90 1390 l 2
 187 1480 331 1534 535 1534 c 0
 841 1534 1040 1363 1040 1100 c 0
 1040 905 924 757 755 595 c 1
 409 259 l 1
 1044 259 l 1
 1044 0 l 1
 44 0 l 1
 44 217 l 1
 558 760 l 1
 676 881 740 978 740 1067 c 0
 740 1207 674 1273 521 1273 c 0
 405 1273 293 1238 221 1165 c 2
 166 1110 l 1
 65 1367 l 1
EndSplineSet
EndChar

StartChar: u
Encoding: 117 117 272
Width: 1003
VWidth: 0
Flags: HW
LayerCount: 2
Fore
SplineSet
452 229 m 0
 528 229 619 270 667 326 c 1
 667 996 l 1
 946 996 l 1
 946 0 l 1
 669 0 l 1
 669 65 l 1
 591 10 504 -18 418 -18 c 0
 225 -18 49 112 49 348 c 2
 49 996 l 1
 330 996 l 1
 330 359 l 2
 330 255 384 229 452 229 c 0
EndSplineSet
EndChar

StartChar: uacute
Encoding: 250 250 273
Width: 1003
VWidth: 0
Flags: HW
LayerCount: 2
Fore
SplineSet
302 1113 m 0
 302 1125 303 1134 307 1150 c 2
 403 1510 l 1
 428 1591 487 1634 551 1634 c 0
 619 1634 693 1582 693 1496 c 0
 693 1456 677 1417 649 1380 c 2
 428 1091 l 1
 415 1073 404 1047 362 1047 c 0
 303 1047 302 1105 302 1113 c 0
452 230 m 0
 528 230 619 271 667 327 c 1
 667 999 l 1
 946 999 l 1
 946 0 l 1
 669 0 l 1
 669 67 l 1
 591 12 505 -17 418 -17 c 0
 225 -17 49 114 49 351 c 2
 49 999 l 1
 330 999 l 1
 330 360 l 2
 330 256 383 230 452 230 c 0
EndSplineSet
EndChar

StartChar: ubreve
Encoding: 365 365 274
Width: 1003
VWidth: 0
Flags: HW
LayerCount: 2
Fore
SplineSet
781 1387 m 1
 779 1334 l 2
 771 1148 634 1047 498 1047 c 0
 360 1047 222 1147 215 1334 c 2
 213 1387 l 1
 415 1387 l 1
 421 1342 l 2
 428 1286 463 1265 497 1265 c 0
 530 1265 566 1286 572 1342 c 2
 577 1387 l 1
 781 1387 l 1
452 230 m 0
 528 230 619 271 667 327 c 1
 667 997 l 1
 946 997 l 1
 946 0 l 1
 669 0 l 1
 669 66 l 1
 591 11 504 -17 418 -17 c 0
 225 -17 49 113 49 349 c 2
 49 997 l 1
 330 997 l 1
 330 360 l 2
 330 256 383 230 452 230 c 0
EndSplineSet
EndChar

StartChar: ucircumflex
Encoding: 251 251 275
Width: 1003
VWidth: 0
Flags: HW
LayerCount: 2
Fore
SplineSet
230 1057 m 2
 229 1058 199 1047 199 1047 c 2
 199 1047 197 1047 194 1047 c 0
 180 1047 144 1051 144 1100 c 0
 144 1142 157 1135 157 1135 c 1
 419 1538 l 1
 437 1563 463 1575 498 1575 c 0
 523 1575 554 1569 578 1539 c 1
 852 1117 l 1
 852 1100 l 2
 852 1069 830 1047 799 1047 c 0
 798 1047 783 1047 767 1055 c 1
 498 1242 l 1
 230 1057 l 2
452 228 m 0
 527 228 619 269 667 325 c 1
 667 996 l 1
 946 996 l 1
 946 0 l 1
 669 0 l 1
 669 66 l 1
 591 10 505 -19 418 -19 c 0
 225 -19 49 112 49 349 c 2
 49 996 l 1
 330 996 l 1
 330 359 l 2
 330 255 384 228 452 228 c 0
EndSplineSet
EndChar

StartChar: udieresis
Encoding: 252 252 276
Width: 1003
VWidth: 0
Flags: HW
LayerCount: 2
Fore
SplineSet
685 1047 m 0
 608 1047 517 1101 517 1211 c 0
 517 1321 604 1382 685 1382 c 0
 767 1382 853 1321 853 1211 c 0
 853 1101 763 1047 685 1047 c 0
309 1047 m 0
 229 1047 142 1103 142 1211 c 0
 142 1320 226 1382 309 1382 c 0
 391 1382 477 1321 477 1211 c 0
 477 1101 387 1047 309 1047 c 0
452 230 m 0
 528 230 619 270 667 326 c 1
 667 997 l 1
 946 997 l 1
 946 0 l 1
 669 0 l 1
 669 67 l 1
 591 12 505 -17 418 -17 c 0
 225 -17 49 113 49 350 c 2
 49 997 l 1
 330 997 l 1
 330 360 l 2
 330 256 383 230 452 230 c 0
EndSplineSet
EndChar

StartChar: ugrave
Encoding: 249 249 277
Width: 1003
VWidth: 0
Flags: HW
LayerCount: 2
Fore
SplineSet
451 1644 m 0
 514 1644 571 1598 596 1520 c 1
 681 1143 l 2
 686 1123 685 1117 685 1110 c 0
 685 1102 685 1045 626 1045 c 0
 589 1045 570 1069 558 1087 c 2
 349 1393 l 1
 323 1428 307 1465 307 1504 c 0
 307 1588 380 1644 451 1644 c 0
452 228 m 0
 527 228 619 269 667 325 c 1
 667 997 l 1
 946 997 l 1
 946 0 l 1
 669 0 l 1
 669 65 l 1
 591 10 505 -19 418 -19 c 0
 225 -19 49 113 49 349 c 2
 49 997 l 1
 330 997 l 1
 330 358 l 2
 330 254 384 228 452 228 c 0
EndSplineSet
EndChar

StartChar: uhungarumlaut
Encoding: 369 369 278
Width: 1003
VWidth: 0
Flags: HW
LayerCount: 2
Fore
SplineSet
122 1113 m 0
 122 1135 130 1147 132 1151 c 2
 225 1510 l 1
 250 1590 308 1634 373 1634 c 0
 441 1634 515 1582 515 1496 c 0
 515 1457 499 1417 470 1380 c 2
 250 1090 l 2
 236 1071 227 1047 184 1047 c 0
 135 1047 122 1085 122 1113 c 0
481 1113 m 0
 481 1118 481 1134 486 1150 c 1
 583 1509 l 2
 605 1590 667 1634 731 1634 c 0
 800 1634 872 1582 872 1496 c 0
 872 1460 859 1419 829 1380 c 2
 608 1090 l 2
 593 1069 580 1047 540 1047 c 0
 478 1047 481 1108 481 1113 c 0
452 230 m 0
 528 230 619 271 667 327 c 1
 667 999 l 1
 946 999 l 1
 946 0 l 1
 669 0 l 1
 669 67 l 1
 591 12 505 -17 418 -17 c 0
 225 -17 49 114 49 351 c 2
 49 999 l 1
 330 999 l 1
 330 360 l 2
 330 256 383 230 452 230 c 0
EndSplineSet
EndChar

StartChar: umacron
Encoding: 363 363 279
Width: 1003
VWidth: 0
Flags: HW
LayerCount: 2
Fore
SplineSet
805 1047 m 1
 189 1047 l 1
 189 1301 l 1
 805 1301 l 1
 805 1047 l 1
452 230 m 0
 527 230 619 271 667 327 c 1
 667 998 l 1
 946 998 l 1
 946 0 l 1
 669 0 l 1
 669 67 l 1
 591 12 505 -17 418 -17 c 0
 225 -17 49 114 49 350 c 2
 49 998 l 1
 330 998 l 1
 330 360 l 2
 330 256 383 230 452 230 c 0
EndSplineSet
EndChar

StartChar: uni01C4
Encoding: 452 452 280
Width: 2949
VWidth: 0
Flags: HW
LayerCount: 2
Fore
SplineSet
1059 2043 m 0
 1059 2042 1061 2037 1053 2018 c 1
 783 1603 l 1
 761 1575 731 1567 704 1567 c 0
 677 1567 647 1575 625 1603 c 1
 351 2025 l 1
 351 2043 l 2
 351 2074 373 2096 404 2096 c 0
 405 2096 420 2096 436 2088 c 1
 704 1900 l 1
 976 2088 l 2
 981 2091 1002 2096 1005 2096 c 0
 1021 2096 1059 2083 1059 2043 c 0
95 1516 m 1
 1325 1516 l 1
 1375 1464 l 1
 536 271 l 1
 1365 271 l 1
 1365 0 l 1
 55 0 l 1
 42 67 l 1
 873 1250 l 1
 95 1250 l 1
 95 1516 l 1
2103 1235 m 2
 1762 1235 l 1
 1762 177 l 1
 2055 177 l 2
 2375 177 2583 350 2583 710 c 0
 2583 1121 2378 1235 2103 1235 c 2
2893 764 m 0
 2893 360 2606 0 2098 0 c 2
 1469 0 l 1
 1469 1516 l 1
 2131 1516 l 2
 2625 1516 2893 1199 2893 764 c 0
EndSplineSet
EndChar

StartChar: uni01C5
Encoding: 453 453 281
Width: 2461
VWidth: 0
Flags: HW
LayerCount: 2
Fore
SplineSet
144 1576 m 0
 113 1576 91 1554 91 1523 c 2
 91 1506 l 1
 367 1081 l 1
 386 1062 409 1047 444 1047 c 0
 479 1047 502 1062 521 1081 c 1
 786 1488 l 1
 786 1488 799 1481 799 1523 c 0
 799 1563 761 1576 745 1576 c 0
 721 1576 711 1566 711 1566 c 2
 444 1380 l 1
 175 1568 l 1
 163 1574 146 1576 144 1576 c 0
53 806 m 1
 53 1050 l 1
 849 1050 l 1
 884 952 l 1
 420 243 l 1
 867 243 l 1
 867 0 l 1
 37 0 l 1
 10 88 l 1
 476 806 l 1
 53 806 l 1
1615 1235 m 2
 1274 1235 l 1
 1274 279 l 1
 1567 279 l 2
 1887 279 2095 435 2095 761 c 0
 2095 1133 1890 1235 1615 1235 c 2
2407 764 m 0
 2407 361 2117 0 1609 0 c 2
 980 0 l 1
 980 1516 l 1
 1643 1516 l 2
 2137 1516 2407 1199 2407 764 c 0
EndSplineSet
EndChar

StartChar: uni01C6
Encoding: 454 454 282
Width: 1967
VWidth: 0
Flags: HW
LayerCount: 2
Fore
SplineSet
143 1576 m 0
 143 1576 144 1576 145 1576 c 0
 149 1576 158 1575 171 1569 c 1
 443 1379 l 1
 722 1572 l 2
 723 1572 742 1576 743 1576 c 0
 773 1576 798 1552 798 1522 c 0
 798 1480 785 1487 785 1487 c 2
 523 1084 l 1
 499 1049 466 1047 443 1047 c 0
 420 1047 387 1051 364 1084 c 1
 90 1505 l 1
 90 1522 l 2
 90 1532 88 1576 143 1576 c 0
52 755 m 1
 52 996 l 1
 849 996 l 1
 885 907 l 1
 420 242 l 1
 867 242 l 1
 867 0 l 1
 36 0 l 1
 11 81 l 1
 476 755 l 1
 52 755 l 1
1220 506 m 0
 1220 353 1323 215 1555 215 c 0
 1580 215 1605 217 1627 221 c 1
 1627 726 l 1
 1589 751 1529 770 1467 770 c 0
 1314 770 1220 649 1220 506 c 0
1880 48 m 2
 1874 45 1727 -20 1542 -20 c 0
 1129 -20 932 252 932 514 c 0
 932 761 1110 1017 1443 1017 c 0
 1506 1017 1569 1005 1627 983 c 1
 1627 1491 l 1
 1909 1491 l 1
 1909 61 l 1
 1880 48 l 2
EndSplineSet
EndChar

StartChar: uni01C9
Encoding: 457 457 283
Width: 1094
VWidth: 0
Flags: HW
LayerCount: 2
Fore
SplineSet
446 1225 m 0
 446 1138 381 1054 270 1054 c 0
 160 1054 92 1137 92 1225 c 0
 92 1310 159 1397 270 1397 c 0
 382 1397 446 1309 446 1225 c 0
19 -384 m 2
 -23 -384 l 1
 -71 -140 l 1
 -9 -140 l 2
 123 -140 129 -84 129 10 c 0
 129 19 129 29 129 39 c 2
 129 1016 l 1
 410 1016 l 1
 410 -28 l 2
 410 -134 357 -384 19 -384 c 2
870 -19 m 0
 705 -19 549 89 549 303 c 2
 549 1490 l 1
 830 1490 l 1
 830 345 l 2
 830 236 864 232 891 232 c 0
 927 232 983 253 1037 283 c 2
 1113 326 l 1
 1113 59 l 1
 1089 44 l 2
 1023 3 947 -19 870 -19 c 0
EndSplineSet
EndChar

StartChar: uni01CC
Encoding: 460 460 284
Width: 1491
VWidth: 0
Flags: HW
LayerCount: 2
Fore
SplineSet
443 1225 m 0
 443 1138 380 1053 269 1053 c 0
 159 1053 92 1137 92 1225 c 0
 92 1312 160 1395 269 1395 c 0
 379 1395 443 1310 443 1225 c 0
17 -384 m 2
 -25 -384 l 1
 -73 -141 l 1
 -11 -141 l 2
 120 -141 127 -86 127 7 c 0
 127 17 127 28 127 39 c 2
 127 1017 l 1
 410 1017 l 1
 410 -28 l 2
 410 -135 355 -384 17 -384 c 2
1052 765 m 0
 971 765 858 712 809 656 c 1
 809 0 l 1
 528 0 l 1
 528 997 l 1
 804 997 l 1
 804 919 l 1
 922 1008 1029 1017 1080 1017 c 0
 1297 1017 1442 865 1442 663 c 2
 1442 0 l 1
 1162 0 l 1
 1162 641 l 2
 1162 746 1115 765 1052 765 c 0
EndSplineSet
EndChar

StartChar: uni01F1
Encoding: 497 497 285
Width: 2949
VWidth: 0
Flags: HW
LayerCount: 2
Fore
SplineSet
95 1516 m 1
 1323 1516 l 1
 1376 1467 l 1
 536 270 l 1
 1365 270 l 1
 1365 0 l 1
 56 0 l 1
 42 66 l 1
 873 1250 l 1
 95 1250 l 1
 95 1516 l 1
2103 1235 m 2
 1762 1235 l 1
 1762 177 l 1
 2055 177 l 2
 2375 177 2583 349 2583 709 c 0
 2583 1120 2378 1235 2103 1235 c 2
2893 763 m 0
 2893 361 2606 0 2098 0 c 2
 1469 0 l 1
 1469 1516 l 1
 2131 1516 l 2
 2625 1516 2893 1199 2893 763 c 0
EndSplineSet
EndChar

StartChar: uni01F2
Encoding: 498 498 286
Width: 2461
VWidth: 0
Flags: HW
LayerCount: 2
Fore
SplineSet
53 805 m 1
 53 1049 l 1
 848 1049 l 1
 884 952 l 1
 420 242 l 1
 867 242 l 1
 867 0 l 1
 37 0 l 1
 10 87 l 1
 476 805 l 1
 53 805 l 1
1615 1235 m 2
 1274 1235 l 1
 1274 279 l 1
 1567 279 l 2
 1887 279 2095 435 2095 760 c 0
 2095 1132 1890 1235 1615 1235 c 2
2407 763 m 0
 2407 361 2117 0 1609 0 c 2
 980 0 l 1
 980 1516 l 1
 1643 1516 l 2
 2137 1516 2407 1199 2407 763 c 0
EndSplineSet
EndChar

StartChar: uni01F3
Encoding: 499 499 287
Width: 1936
VWidth: 0
Flags: HW
LayerCount: 2
Fore
SplineSet
52 754 m 1
 52 998 l 1
 849 998 l 1
 885 907 l 1
 420 243 l 1
 867 243 l 1
 867 0 l 1
 36 0 l 1
 11 82 l 1
 477 754 l 1
 52 754 l 1
1188 507 m 0
 1188 355 1292 217 1524 217 c 0
 1550 217 1575 218 1596 222 c 1
 1596 727 l 1
 1558 752 1498 769 1435 769 c 0
 1281 769 1188 650 1188 507 c 0
1849 49 m 2
 1843 46 1696 -18 1511 -18 c 0
 1098 -18 899 251 899 514 c 0
 899 762 1079 1017 1411 1017 c 0
 1473 1017 1537 1007 1596 984 c 1
 1596 1490 l 1
 1878 1490 l 1
 1878 62 l 1
 1849 49 l 2
EndSplineSet
EndChar

StartChar: uni01F4
Encoding: 500 500 288
Width: 1543
VWidth: 0
Flags: HW
LayerCount: 2
Fore
SplineSet
564 1632 m 0
 564 1643 566 1653 569 1666 c 2
 665 2029 l 1
 688 2110 749 2153 812 2153 c 0
 881 2153 955 2101 955 2015 c 0
 955 1974 937 1935 909 1899 c 2
 690 1611 l 1
 676 1586 655 1566 622 1566 c 0
 562 1566 564 1626 564 1632 c 0
55 734 m 0
 55 1206 442 1536 921 1536 c 0
 1086 1536 1253 1492 1411 1401 c 2
 1437 1386 l 1
 1437 1100 l 1
 1359 1148 l 2
 1219 1234 1071 1274 936 1274 c 0
 617 1274 354 1076 354 733 c 0
 354 466 560 248 886 248 c 0
 973 248 1074 263 1177 296 c 1
 1177 506 l 1
 902 506 l 1
 902 781 l 1
 1472 781 l 1
 1472 115 l 1
 1441 102 l 2
 1225 16 1035 -20 870 -20 c 0
 314 -20 55 394 55 734 c 0
EndSplineSet
EndChar

StartChar: uni01F5
Encoding: 501 501 289
Width: 1069
VWidth: 0
Flags: HW
LayerCount: 2
Fore
SplineSet
323 1113 m 0
 323 1123 325 1135 328 1146 c 2
 425 1509 l 1
 448 1590 507 1634 572 1634 c 0
 641 1634 714 1581 714 1495 c 0
 714 1455 697 1416 670 1379 c 2
 450 1089 l 1
 436 1068 420 1047 384 1047 c 0
 334 1047 323 1098 323 1113 c 0
752 -8 m 0
 752 11 750 33 746 55 c 1
 697 28 625 0 538 0 c 0
 192 0 29 275 29 524 c 0
 29 801 266 1016 516 1016 c 0
 589 1016 663 992 732 944 c 1
 732 997 l 1
 1009 997 l 1
 1009 -3 l 2
 1009 -329 771 -437 551 -437 c 0
 440 -437 331 -413 243 -376 c 2
 212 -363 l 1
 212 -95 l 1
 283 -125 l 2
 376 -164 477 -189 559 -189 c 0
 679 -189 752 -147 752 -8 c 0
557 760 m 0
 439 760 315 675 315 514 c 0
 315 339 418 254 571 254 c 0
 616 254 672 263 729 281 c 1
 729 708 l 1
 666 746 608 760 557 760 c 0
EndSplineSet
EndChar

StartChar: uni01c7
Encoding: 455 455 290
Width: 1635
VWidth: 0
Flags: HW
LayerCount: 2
Fore
SplineSet
220 62 m 2
 220 1514 l 1
 514 1514 l 1
 514 7 l 2
 514 -271 339 -393 6 -394 c 2
 -45 -394 l 1
 -45 -138 l 1
 6 -138 l 2
 217 -138 220 -113 220 62 c 2
1605 0 m 1
 684 0 l 1
 684 1514 l 1
 977 1514 l 1
 977 279 l 1
 1605 279 l 1
 1605 0 l 1
EndSplineSet
EndChar

StartChar: uni01c8
Encoding: 456 456 291
Width: 1502
VWidth: 0
Flags: HW
LayerCount: 2
Fore
SplineSet
443 1225 m 0
 443 1309 381 1397 269 1397 c 0
 158 1397 90 1312 90 1225 c 0
 90 1137 159 1054 269 1054 c 0
 380 1054 443 1139 443 1225 c 0
17 -384 m 2
 -25 -384 l 1
 -73 -140 l 1
 -11 -140 l 2
 120 -140 126 -81 126 20 c 0
 126 31 126 43 126 55 c 2
 126 1118 l 1
 409 1118 l 1
 409 -28 l 2
 409 -134 355 -384 17 -384 c 2
1472 -51 m 1
 552 -51 l 1
 552 1515 l 1
 845 1515 l 1
 845 230 l 1
 1472 230 l 1
 1472 -51 l 1
EndSplineSet
EndChar

StartChar: uni01ca
Encoding: 458 458 292
Width: 2204
VWidth: 0
Flags: HW
LayerCount: 2
Fore
SplineSet
220 62 m 2
 220 1514 l 1
 514 1514 l 1
 514 7 l 2
 514 -271 339 -393 8 -394 c 2
 -43 -394 l 1
 -43 -138 l 1
 8 -138 l 2
 218 -138 220 -113 220 62 c 2
965 1103 m 1
 965 0 l 1
 684 0 l 1
 684 1514 l 1
 911 1514 l 1
 1840 400 l 1
 1840 1514 l 1
 2127 1514 l 1
 2127 0 l 1
 1890 0 l 1
 965 1103 l 1
EndSplineSet
EndChar

StartChar: uni01cb
Encoding: 459 459 293
Width: 2072
VWidth: 0
Flags: HW
LayerCount: 2
Fore
SplineSet
445 1225 m 0
 445 1311 379 1397 268 1397 c 0
 158 1397 92 1311 92 1225 c 0
 92 1138 159 1054 268 1054 c 0
 379 1054 445 1138 445 1225 c 0
18 -384 m 2
 -24 -384 l 1
 -73 -140 l 1
 -11 -140 l 2
 121 -140 127 -79 127 23 c 0
 127 33 127 44 127 55 c 2
 127 1118 l 1
 410 1118 l 1
 410 -28 l 2
 410 -134 356 -384 18 -384 c 2
834 1003 m 1
 834 -102 l 1
 551 -102 l 1
 551 1515 l 1
 780 1515 l 1
 1708 401 l 1
 1708 1515 l 1
 1996 1515 l 1
 1996 -102 l 1
 1758 -102 l 1
 834 1003 l 1
EndSplineSet
EndChar

StartChar: uni0200
Encoding: 512 512 294
Width: 1527
VWidth: 0
Flags: HW
LayerCount: 2
Fore
SplineSet
640 1516 m 1
 851 1516 l 1
 1524 48 l 1
 1488 0 l 1
 1244 0 l 1
 1031 436 l 1
 494 436 l 1
 292 0 l 1
 -16 0 l 1
 640 1516 l 1
606 713 m 1
 913 713 l 1
 753 1121 l 1
 606 713 l 1
EndSplineSet
EndChar

StartChar: uni0201
Encoding: 513 513 295
Width: 958
VWidth: 0
Flags: HW
LayerCount: 2
Fore
SplineSet
551 391 m 1
 419 351 326 309 326 245 c 0
 326 205 336 188 344 180 c 0
 351 173 364 169 381 169 c 0
 428 169 503 195 551 243 c 1
 551 391 l 1
354 -21 m 0
 191 -21 35 53 35 245 c 0
 35 372 162 488 425 549 c 2
 552 578 l 1
 552 585 552 591 552 594 c 0
 552 696 507 739 433 739 c 0
 336 739 252 696 191 637 c 2
 132 581 l 1
 46 840 l 1
 67 862 l 2
 117 915 269 1006 429 1006 c 0
 609 1006 831 920 831 675 c 2
 831 303 l 2
 831 230 843 246 935 202 c 2
 986 177 l 1
 830 -27 l 1
 791 -9 l 2
 742 14 678 52 631 102 c 1
 549 12 435 -21 354 -21 c 0
EndSplineSet
EndChar

StartChar: uni0202
Encoding: 514 514 296
Width: 1527
VWidth: 0
Flags: HW
LayerCount: 2
Fore
SplineSet
1083 1619 m 2
 1085 1566 l 1
 843 1566 l 1
 838 1611 l 2
 831 1671 803 1691 762 1691 c 0
 722 1691 693 1672 686 1611 c 2
 680 1566 l 1
 439 1566 l 1
 441 1619 l 2
 449 1812 617 1920 763 1920 c 0
 909 1920 1076 1812 1083 1619 c 2
640 1516 m 1
 851 1516 l 1
 1530 34 l 1
 1478 0 l 1
 1244 0 l 1
 1031 436 l 1
 494 436 l 1
 292 0 l 1
 -16 0 l 1
 640 1516 l 1
606 712 m 1
 913 712 l 1
 753 1120 l 1
 606 712 l 1
EndSplineSet
EndChar

StartChar: uni0203
Encoding: 515 515 297
Width: 958
VWidth: 0
Flags: HW
LayerCount: 2
Fore
SplineSet
819 1100 m 2
 821 1047 l 1
 579 1047 l 1
 574 1092 l 2
 567 1152 540 1171 498 1171 c 0
 457 1171 430 1152 423 1092 c 2
 418 1047 l 1
 176 1047 l 1
 178 1100 l 2
 185 1292 353 1400 499 1400 c 0
 645 1400 812 1292 819 1100 c 2
551 391 m 1
 419 352 326 311 326 244 c 0
 326 204 336 187 344 179 c 0
 351 172 364 168 380 168 c 0
 427 168 503 195 551 244 c 1
 551 391 l 1
354 -21 m 0
 191 -21 35 53 35 245 c 0
 35 374 162 488 425 551 c 1
 552 579 l 1
 552 587 552 592 552 595 c 0
 552 697 507 741 433 741 c 0
 337 741 252 696 190 637 c 2
 132 581 l 1
 46 840 l 1
 67 862 l 2
 117 915 269 1006 429 1006 c 0
 609 1006 831 919 831 674 c 2
 831 303 l 2
 831 230 843 246 935 202 c 2
 986 177 l 1
 831 -27 l 1
 792 -9 l 2
 742 14 677 53 630 103 c 1
 547 14 435 -21 354 -21 c 0
EndSplineSet
EndChar

StartChar: uni0204
Encoding: 516 516 298
Width: 1060
VWidth: 0
Flags: HW
LayerCount: 2
Fore
SplineSet
77 1516 m 1
 1011 1516 l 1
 1011 1237 l 1
 370 1237 l 1
 370 907 l 1
 997 907 l 1
 997 631 l 1
 370 631 l 1
 370 279 l 1
 1024 279 l 1
 1024 0 l 1
 77 0 l 1
 77 1516 l 1
EndSplineSet
EndChar

StartChar: uni0205
Encoding: 517 517 299
Width: 1051
VWidth: 0
Flags: HW
LayerCount: 2
Fore
SplineSet
344 669 m 1
 726 669 l 1
 705 727 634 765 538 765 c 0
 440 765 377 728 344 669 c 1
956 80 m 2
 857 14 742 -19 615 -19 c 0
 265 -19 29 202 29 514 c 0
 29 783 236 1016 532 1016 c 0
 847 1016 997 797 997 519 c 2
 997 447 l 1
 326 447 l 1
 346 315 447 232 614 232 c 0
 713 232 809 261 900 322 c 2
 979 375 l 1
 979 96 l 1
 956 80 l 2
EndSplineSet
EndChar

StartChar: uni0206
Encoding: 518 518 300
Width: 1060
VWidth: 0
Flags: HW
LayerCount: 2
Fore
SplineSet
865 1619 m 2
 867 1566 l 1
 624 1566 l 1
 619 1611 l 2
 612 1672 584 1691 545 1691 c 0
 503 1691 476 1672 469 1611 c 2
 464 1566 l 1
 221 1566 l 1
 223 1619 l 2
 231 1811 398 1920 546 1920 c 0
 691 1920 857 1811 865 1619 c 2
77 1516 m 1
 1011 1516 l 1
 1011 1237 l 1
 370 1237 l 1
 370 907 l 1
 997 907 l 1
 997 631 l 1
 370 631 l 1
 370 279 l 1
 1024 279 l 1
 1024 0 l 1
 77 0 l 1
 77 1516 l 1
EndSplineSet
EndChar

StartChar: uni0207
Encoding: 519 519 301
Width: 1051
VWidth: 0
Flags: HW
LayerCount: 2
Fore
SplineSet
834 1100 m 2
 836 1047 l 1
 593 1047 l 1
 588 1092 l 2
 581 1152 554 1170 514 1170 c 0
 472 1170 445 1151 438 1092 c 2
 433 1047 l 1
 190 1047 l 1
 192 1100 l 2
 200 1292 367 1400 515 1400 c 0
 660 1400 827 1292 834 1100 c 2
344 669 m 1
 726 669 l 1
 705 725 634 763 538 763 c 0
 439 763 376 726 344 669 c 1
956 79 m 2
 857 15 742 -20 615 -20 c 0
 265 -20 29 201 29 514 c 0
 29 781 236 1016 532 1016 c 0
 847 1016 997 795 997 517 c 2
 997 446 l 1
 326 446 l 1
 346 314 447 232 614 232 c 0
 713 232 808 259 899 321 c 2
 979 375 l 1
 979 94 l 1
 956 79 l 2
EndSplineSet
EndChar

StartChar: uni0208
Encoding: 520 520 302
Width: 428
VWidth: 0
Flags: HW
LayerCount: 2
Fore
SplineSet
69 1516 m 1
 362 1516 l 1
 362 0 l 1
 69 0 l 1
 69 1516 l 1
EndSplineSet
EndChar

StartChar: uni0209
Encoding: 521 521 303
Width: 457
VWidth: 0
Flags: HW
LayerCount: 2
Fore
SplineSet
111 998 m 1
 394 998 l 1
 394 0 l 1
 111 0 l 1
 111 998 l 1
EndSplineSet
EndChar

StartChar: uni020A
Encoding: 522 522 304
Width: 429
VWidth: 0
Flags: HW
LayerCount: 2
Fore
SplineSet
535 1619 m 2
 537 1566 l 1
 295 1566 l 1
 290 1611 l 2
 283 1672 256 1691 214 1691 c 0
 174 1691 146 1672 139 1611 c 2
 134 1566 l 1
 -108 1566 l 1
 -106 1619 l 2
 -99 1812 69 1920 215 1920 c 0
 361 1920 528 1812 535 1619 c 2
68 1516 m 1
 362 1516 l 1
 362 0 l 1
 68 0 l 1
 68 1516 l 1
EndSplineSet
EndChar

StartChar: uni020B
Encoding: 523 523 305
Width: 456
VWidth: 0
Flags: HW
LayerCount: 2
Fore
SplineSet
571 1100 m 2
 573 1047 l 1
 331 1047 l 1
 326 1092 l 2
 319 1152 292 1171 250 1171 c 0
 209 1171 182 1152 175 1092 c 2
 170 1047 l 1
 -72 1047 l 1
 -70 1100 l 2
 -63 1292 105 1401 251 1401 c 0
 397 1401 564 1292 571 1100 c 2
110 999 m 1
 393 999 l 1
 393 0 l 1
 110 0 l 1
 110 999 l 1
EndSplineSet
EndChar

StartChar: uni020C
Encoding: 524 524 306
Width: 1757
VWidth: 0
Flags: HW
LayerCount: 2
Fore
SplineSet
1701 759 m 0
 1701 331 1329 -19 877 -19 c 0
 423 -19 54 331 54 759 c 0
 54 1189 424 1536 877 1536 c 0
 1329 1536 1701 1189 1701 759 c 0
1400 759 m 0
 1400 1033 1162 1254 877 1254 c 0
 592 1254 356 1033 356 759 c 0
 356 485 592 265 877 265 c 0
 1162 265 1400 485 1400 759 c 0
EndSplineSet
EndChar

StartChar: uni020D
Encoding: 525 525 307
Width: 1198
VWidth: 0
Flags: HW
LayerCount: 2
Fore
SplineSet
1170 500 m 0
 1170 188 908 -19 599 -19 c 0
 290 -19 30 188 30 500 c 0
 30 810 290 1017 599 1017 c 0
 907 1017 1170 811 1170 500 c 0
889 498 m 0
 889 648 770 761 599 761 c 0
 429 761 311 649 311 498 c 0
 311 350 429 235 599 235 c 0
 769 235 889 350 889 498 c 0
EndSplineSet
EndChar

StartChar: uni020E
Encoding: 526 526 308
Width: 1757
VWidth: 0
Flags: HW
LayerCount: 2
Fore
SplineSet
1196 1618 m 2
 1198 1565 l 1
 955 1565 l 1
 950 1610 l 2
 943 1672 914 1691 875 1691 c 0
 835 1691 807 1672 799 1610 c 2
 793 1565 l 1
 551 1565 l 1
 553 1618 l 2
 561 1810 729 1918 876 1918 c 0
 1021 1918 1189 1810 1196 1618 c 2
1701 759 m 0
 1701 330 1329 -19 877 -19 c 0
 423 -19 54 330 54 759 c 0
 54 1188 424 1535 877 1535 c 0
 1329 1535 1701 1188 1701 759 c 0
1400 759 m 0
 1400 1032 1162 1254 877 1254 c 0
 592 1254 356 1033 356 759 c 0
 356 485 592 263 877 263 c 0
 1162 263 1400 485 1400 759 c 0
EndSplineSet
EndChar

StartChar: uni020F
Encoding: 527 527 309
Width: 1198
VWidth: 0
Flags: HW
LayerCount: 2
Fore
SplineSet
920 1100 m 2
 922 1047 l 1
 680 1047 l 1
 675 1092 l 2
 668 1151 641 1170 599 1170 c 0
 557 1170 530 1152 523 1092 c 2
 517 1047 l 1
 276 1047 l 1
 278 1100 l 2
 286 1292 454 1400 600 1400 c 0
 746 1400 913 1292 920 1100 c 2
1170 500 m 0
 1170 188 908 -20 599 -20 c 0
 290 -20 30 188 30 500 c 0
 30 809 290 1017 599 1017 c 0
 908 1017 1170 809 1170 500 c 0
889 497 m 0
 889 648 770 760 599 760 c 0
 428 760 311 649 311 497 c 0
 311 350 429 234 599 234 c 0
 769 234 889 350 889 497 c 0
EndSplineSet
EndChar

StartChar: uni0210
Encoding: 528 528 310
Width: 1096
VWidth: 0
Flags: HW
LayerCount: 2
Fore
SplineSet
729 697 m 1
 820 487 941 284 1054 108 c 1
 1052 0 l 1
 780 0 l 1
 765 25 l 1
 678 160 541 432 445 644 c 1
 436 644 430 644 421 644 c 2
 371 644 l 1
 371 0 l 1
 78 0 l 1
 78 1516 l 1
 469 1516 l 2
 753 1516 1007 1395 1007 1095 c 0
 1007 918 919 770 729 697 c 1
371 1250 m 1
 371 856 l 1
 587 856 704 876 704 1056 c 0
 704 1159 684 1250 448 1250 c 2
 371 1250 l 1
EndSplineSet
EndChar

StartChar: uni0211
Encoding: 529 529 311
Width: 823
VWidth: 0
Flags: HW
LayerCount: 2
Fore
SplineSet
57 0 m 1
 57 996 l 1
 335 996 l 1
 335 900 l 1
 389 964 465 1015 561 1015 c 0
 629 1015 725 977 810 882 c 2
 838 851 l 1
 657 605 l 1
 615 657 l 2
 587 693 547 723 517 723 c 0
 486 723 411 700 367 592 c 0
 348 546 335 486 335 405 c 2
 335 0 l 1
 57 0 l 1
EndSplineSet
EndChar

StartChar: uni0212
Encoding: 530 530 312
Width: 1096
VWidth: 0
Flags: HW
LayerCount: 2
Fore
SplineSet
881 1619 m 2
 883 1566 l 1
 640 1566 l 1
 635 1611 l 2
 628 1672 600 1691 561 1691 c 0
 520 1691 492 1671 485 1611 c 2
 480 1566 l 1
 237 1566 l 1
 239 1619 l 2
 247 1811 414 1920 562 1920 c 0
 707 1920 874 1811 881 1619 c 2
729 697 m 1
 820 488 941 284 1054 108 c 1
 1052 0 l 1
 780 0 l 1
 765 25 l 1
 678 158 541 431 445 644 c 1
 436 644 430 644 421 644 c 2
 371 644 l 1
 371 0 l 1
 78 0 l 1
 78 1516 l 1
 469 1516 l 2
 754 1516 1007 1394 1007 1095 c 0
 1007 919 919 771 729 697 c 1
371 1250 m 1
 371 856 l 1
 587 856 704 876 704 1056 c 0
 704 1159 684 1250 448 1250 c 2
 371 1250 l 1
EndSplineSet
EndChar

StartChar: uni0213
Encoding: 531 531 313
Width: 823
VWidth: 0
Flags: HW
LayerCount: 2
Fore
SplineSet
758 1100 m 2
 760 1047 l 1
 517 1047 l 1
 512 1092 l 2
 505 1152 477 1171 437 1171 c 0
 396 1171 368 1153 361 1092 c 2
 355 1047 l 1
 113 1047 l 1
 115 1100 l 2
 123 1291 290 1401 438 1401 c 0
 583 1401 751 1292 758 1100 c 2
57 0 m 1
 57 999 l 1
 335 999 l 1
 335 902 l 1
 390 967 465 1017 561 1017 c 0
 629 1017 725 980 810 884 c 2
 837 853 l 1
 656 605 l 1
 615 659 l 2
 587 695 546 725 517 725 c 0
 486 725 410 702 366 594 c 0
 347 548 335 487 335 406 c 2
 335 0 l 1
 57 0 l 1
EndSplineSet
EndChar

StartChar: uni0214
Encoding: 532 532 314
Width: 1486
VWidth: 0
Flags: HW
LayerCount: 2
Fore
SplineSet
1407 598 m 2
 1407 187 1071 -18 744 -18 c 0
 417 -18 78 187 78 597 c 2
 78 1515 l 1
 372 1515 l 1
 372 614 l 2
 372 372 553 257 741 257 c 0
 929 257 1113 373 1113 614 c 2
 1113 1515 l 1
 1407 1515 l 1
 1407 598 l 2
EndSplineSet
EndChar

StartChar: uni0215
Encoding: 533 533 315
Width: 1003
VWidth: 0
Flags: HW
LayerCount: 2
Fore
SplineSet
452 229 m 0
 528 229 619 270 667 326 c 1
 667 996 l 1
 946 996 l 1
 946 0 l 1
 669 0 l 1
 669 65 l 1
 591 10 504 -18 418 -18 c 0
 225 -18 49 112 49 348 c 2
 49 996 l 1
 330 996 l 1
 330 359 l 2
 330 255 384 229 452 229 c 0
EndSplineSet
EndChar

StartChar: uni0216
Encoding: 534 534 316
Width: 1486
VWidth: 0
Flags: HW
LayerCount: 2
Fore
SplineSet
1063 1618 m 2
 1065 1565 l 1
 823 1565 l 1
 818 1610 l 2
 811 1672 784 1691 742 1691 c 0
 702 1691 674 1672 667 1610 c 2
 662 1565 l 1
 420 1565 l 1
 422 1618 l 2
 429 1810 597 1918 743 1918 c 0
 889 1918 1056 1810 1063 1618 c 2
1407 597 m 2
 1407 187 1071 -19 744 -19 c 0
 417 -19 78 187 78 595 c 2
 78 1515 l 1
 372 1515 l 1
 372 613 l 2
 372 371 553 256 741 256 c 0
 929 256 1113 372 1113 613 c 2
 1113 1515 l 1
 1407 1515 l 1
 1407 597 l 2
EndSplineSet
EndChar

StartChar: uni0217
Encoding: 535 535 317
Width: 1003
VWidth: 0
Flags: HW
LayerCount: 2
Fore
SplineSet
818 1100 m 2
 820 1047 l 1
 577 1047 l 1
 572 1092 l 2
 565 1151 537 1170 497 1170 c 0
 456 1170 428 1152 421 1092 c 2
 415 1047 l 1
 172 1047 l 1
 175 1101 l 2
 185 1292 351 1400 498 1400 c 0
 644 1400 811 1292 818 1100 c 2
452 228 m 0
 527 228 619 269 667 325 c 1
 667 996 l 1
 946 996 l 1
 946 0 l 1
 669 0 l 1
 669 65 l 1
 591 10 505 -19 418 -19 c 0
 225 -19 49 112 49 349 c 2
 49 996 l 1
 330 996 l 1
 330 359 l 2
 330 255 384 228 452 228 c 0
EndSplineSet
EndChar

StartChar: uni021A
Encoding: 538 538 318
Width: 1312
VWidth: 0
Flags: HW
LayerCount: 2
Fore
SplineSet
556 -604 m 2
 533 -604 l 1
 461 -523 l 1
 499 -489 l 2
 543 -449 559 -419 565 -375 c 1
 499 -341 468 -278 468 -218 c 0
 468 -97 560 -30 652 -30 c 0
 742 -30 844 -95 844 -227 c 0
 844 -378 708 -604 556 -604 c 2
-12 1517 m 1
 1324 1517 l 1
 1324 1240 l 1
 802 1240 l 1
 802 0 l 1
 508 0 l 1
 508 1240 l 1
 -12 1240 l 1
 -12 1517 l 1
EndSplineSet
EndChar

StartChar: uni021B
Encoding: 539 539 319
Width: 747
VWidth: 0
Flags: HW
LayerCount: 2
Fore
SplineSet
255 -626 m 2
 233 -626 l 1
 160 -547 l 1
 197 -513 l 2
 242 -471 258 -442 264 -397 c 1
 198 -363 167 -300 167 -239 c 0
 167 -119 259 -51 351 -51 c 0
 442 -51 543 -117 543 -248 c 0
 543 -399 407 -626 255 -626 c 2
451 -21 m 0
 279 -21 114 76 114 250 c 2
 114 757 l 1
 35 757 l 2
 20 757 -43 759 -43 822 c 0
 -43 849 -33 863 -23 876 c 1
 300 1238 l 1
 394 1238 l 1
 394 996 l 1
 702 996 l 1
 702 757 l 1
 394 757 l 1
 394 301 l 2
 394 242 421 231 475 231 c 0
 526 231 608 268 673 312 c 2
 753 366 l 1
 753 87 l 1
 733 72 l 2
 650 8 548 -21 451 -21 c 0
EndSplineSet
EndChar

StartChar: uni0237
Encoding: 567 567 320
Width: 508
VWidth: 0
Flags: HW
LayerCount: 2
Fore
SplineSet
54 -385 m 2
 12 -385 l 1
 -36 -140 l 1
 26 -140 l 2
 157 -140 163 -85 163 9 c 0
 163 18 163 28 163 38 c 2
 163 1017 l 1
 451 1017 l 1
 451 -28 l 2
 451 -135 397 -385 54 -385 c 2
EndSplineSet
EndChar

StartChar: uni030F
Encoding: 783 783 321
Width: 730
VWidth: 0
Flags: HW
LayerCount: 2
Fore
SplineSet
637 538 m 1
 733 178 l 2
 738 163 739 155 739 149 c 0
 739 146 739 144 739 142 c 0
 739 131 739 76 680 76 c 0
 640 76 623 106 614 118 c 2
 391 408 l 2
 362 447 349 487 349 524 c 0
 349 609 420 662 490 662 c 0
 553 662 614 620 637 538 c 1
132 662 m 0
 196 662 255 618 280 538 c 1
 376 178 l 2
 381 163 382 155 382 149 c 0
 382 146 382 144 382 142 c 0
 382 128 377 76 322 76 c 0
 285 76 266 101 254 119 c 1
 35 408 l 2
 4 448 -7 490 -7 524 c 0
 -7 608 62 662 132 662 c 0
EndSplineSet
EndChar

StartChar: uni0311
Encoding: 785 785 322
Width: 653
VWidth: 0
Flags: HW
LayerCount: 2
Fore
SplineSet
647 176 m 2
 649 123 l 1
 407 123 l 1
 402 168 l 2
 395 229 368 248 326 248 c 0
 286 248 258 229 251 168 c 2
 246 123 l 1
 4 123 l 1
 6 176 l 2
 13 369 181 477 327 477 c 0
 473 477 640 369 647 176 c 2
EndSplineSet
EndChar

StartChar: uniFB01
Encoding: 64257 64257 323
Width: 1023
VWidth: 0
Flags: HW
LayerCount: 2
Fore
SplineSet
391 996 m 1
 957 996 l 1
 957 1 l 1
 677 1 l 1
 677 752 l 1
 391 752 l 1
 391 1 l 1
 112 1 l 1
 112 779 l 1
 -24 779 l 1
 -24 998 l 1
 106 998 l 1
 106 1022 l 2
 106 1268 237 1433 447 1433 c 0
 501 1433 559 1423 618 1402 c 2
 652 1390 l 1
 652 1284 l 1
 675 1345 733 1395 817 1395 c 0
 928 1395 994 1310 994 1224 c 0
 994 1137 928 1052 817 1052 c 0
 733 1052 675 1101 652 1163 c 1
 652 1116 l 1
 581 1147 l 2
 540 1165 505 1174 482 1174 c 0
 434 1174 391 1151 391 1021 c 2
 391 996 l 1
EndSplineSet
EndChar

StartChar: uniFB02
Encoding: 64258 64258 324
Width: 1235
VWidth: 0
Flags: HW
LayerCount: 2
Fore
SplineSet
391 0 m 1
 112 0 l 1
 112 778 l 1
 -24 778 l 1
 -24 996 l 1
 106 996 l 1
 106 1020 l 2
 106 1325 312 1430 541 1430 c 0
 668 1430 808 1403 936 1364 c 2
 972 1353 l 1
 971 343 l 2
 971 235 1004 230 1033 230 c 0
 1069 230 1124 253 1181 283 c 2
 1256 323 l 1
 1256 57 l 1
 1231 42 l 2
 1165 2 1088 -20 1011 -20 c 0
 846 -20 691 87 691 296 c 2
 693 1156 l 1
 647 1166 603 1172 564 1172 c 0
 457 1172 391 1138 391 1020 c 2
 391 996 l 1
 570 996 l 1
 570 750 l 1
 391 750 l 1
 391 0 l 1
EndSplineSet
EndChar

StartChar: uogonek
Encoding: 371 371 325
Width: 1003
VWidth: 0
Flags: HW
LayerCount: 2
Fore
SplineSet
452 229 m 0
 527 229 619 270 667 326 c 1
 667 998 l 1
 946 998 l 1
 946 0 l 1
 669 0 l 1
 669 66 l 1
 640 45 608 27 578 15 c 1
 605 -26 l 1
 544 -47 l 2
 481 -69 462 -106 462 -125 c 0
 462 -148 488 -198 597 -198 c 2
 664 -198 l 1
 611 -418 l 1
 580 -425 l 2
 561 -429 542 -430 526 -430 c 0
 357 -430 241 -299 241 -159 c 0
 241 -102 258 -43 293 3 c 1
 153 47 49 169 49 351 c 2
 49 998 l 1
 330 998 l 1
 330 359 l 2
 330 255 384 229 452 229 c 0
EndSplineSet
EndChar

StartChar: uring
Encoding: 367 367 326
Width: 1003
VWidth: 0
Flags: HW
LayerCount: 2
Fore
SplineSet
497 1378 m 0
 451 1378 422 1357 422 1315 c 0
 422 1275 455 1250 498 1250 c 0
 539 1250 568 1272 568 1315 c 0
 568 1359 540 1378 497 1378 c 0
498 1582 m 0
 635 1582 785 1494 785 1315 c 0
 785 1135 636 1046 497 1046 c 0
 358 1046 208 1137 208 1316 c 0
 208 1495 359 1582 498 1582 c 0
452 229 m 0
 528 229 619 270 667 326 c 1
 667 998 l 1
 946 998 l 1
 946 0 l 1
 669 0 l 1
 669 66 l 1
 591 11 505 -18 418 -18 c 0
 225 -18 49 113 49 350 c 2
 49 998 l 1
 330 998 l 1
 330 359 l 2
 330 255 384 229 452 229 c 0
EndSplineSet
EndChar

StartChar: utilde
Encoding: 361 361 327
Width: 1003
VWidth: 0
Flags: HW
LayerCount: 2
Fore
SplineSet
614 1029 m 0
 497 1029 360 1117 268 1117 c 0
 235 1117 237 1072 164 1072 c 0
 134 1072 98 1094 98 1136 c 0
 98 1156 108 1172 113 1180 c 0
 168 1270 241 1348 359 1348 c 0
 505 1348 670 1258 727 1258 c 0
 765 1258 755 1305 834 1305 c 0
 872 1305 897 1269 897 1241 c 0
 897 1213 892 1215 889 1203 c 1
 824 1110 743 1029 614 1029 c 0
452 228 m 0
 527 228 618 269 667 325 c 1
 667 997 l 1
 946 997 l 1
 946 0 l 1
 669 0 l 1
 669 66 l 1
 591 10 505 -19 418 -19 c 0
 225 -19 49 113 49 349 c 2
 49 997 l 1
 330 997 l 1
 330 358 l 2
 330 254 383 228 452 228 c 0
EndSplineSet
EndChar

StartChar: v
Encoding: 118 118 328
Width: 1002
VWidth: 0
Flags: HW
LayerCount: 2
Fore
SplineSet
268 998 m 1
 501 426 l 1
 731 998 l 1
 1047 998 l 1
 547 0 l 1
 451 0 l 1
 -45 998 l 1
 268 998 l 1
EndSplineSet
EndChar

StartChar: w
Encoding: 119 119 329
Width: 1375
VWidth: 0
Flags: HW
LayerCount: 2
Fore
SplineSet
805 998 m 1
 977 512 l 1
 1110 998 l 1
 1404 998 l 1
 1047 -0 l 1
 937 0 l 1
 692 665 l 1
 443 0 l 1
 328 0 l 1
 -29 998 l 1
 281 998 l 1
 404 524 l 1
 568 998 l 1
 805 998 l 1
EndSplineSet
EndChar

StartChar: x
Encoding: 120 120 330
Width: 1066
VWidth: 0
Flags: HW
LayerCount: 2
Fore
SplineSet
705 500 m 1
 1143 -0 l 1
 809 0 l 1
 539 336 l 1
 282 0 l 1
 -75 0 l 1
 361 511 l 1
 -65 998 l 1
 271 998 l 1
 527 675 l 1
 775 998 l 1
 1126 998 l 1
 705 500 l 1
EndSplineSet
EndChar

StartChar: y
Encoding: 121 121 331
Width: 1003
VWidth: 0
Flags: HW
LayerCount: 2
Fore
SplineSet
124 -268 m 1
 377 268 l 1
 -39 997 l 1
 296 997 l 1
 534 529 l 1
 767 997 l 1
 1073 997 l 1
 432 -268 l 1
 124 -268 l 1
EndSplineSet
EndChar

StartChar: yacute
Encoding: 253 253 332
Width: 1003
VWidth: 0
Flags: HW
LayerCount: 2
Fore
SplineSet
329 1184 m 1
 425 1546 l 1
 448 1603 508 1633 572 1633 c 0
 640 1633 714 1600 714 1546 c 0
 714 1495 697 1447 670 1399 c 1
 450 1108 l 1
 434 1073 416 1047 384 1047 c 0
 337 1047 323 1134 323 1164 c 0
 323 1170 324 1174 329 1184 c 1
124 -268 m 1
 377 267 l 1
 -39 996 l 1
 296 996 l 1
 534 528 l 1
 767 996 l 1
 1073 996 l 1
 432 -268 l 1
 124 -268 l 1
EndSplineSet
EndChar

StartChar: ydieresis
Encoding: 255 255 333
Width: 1003
VWidth: 0
Flags: HW
LayerCount: 2
Fore
SplineSet
706 1046 m 0
 628 1046 538 1101 538 1209 c 0
 538 1320 625 1381 706 1381 c 0
 789 1381 874 1319 874 1209 c 0
 874 1100 785 1046 706 1046 c 0
330 1046 m 0
 251 1046 163 1102 163 1209 c 0
 163 1319 248 1381 330 1381 c 0
 411 1381 499 1320 499 1209 c 0
 499 1099 407 1046 330 1046 c 0
432 -269 m 1
 124 -269 l 1
 377 253 l 1
 -39 997 l 1
 296 997 l 1
 534 479 l 1
 767 997 l 1
 1073 997 l 1
 432 -269 l 1
EndSplineSet
EndChar

StartChar: yen
Encoding: 165 165 334
Width: 1266
VWidth: 0
Flags: HW
LayerCount: 2
Fore
SplineSet
788 0 m 1
 478 0 l 1
 478 360 l 1
 -10 360 l 1
 -10 619 l 1
 478 619 l 1
 478 655 l 1
 -10 655 l 1
 -10 914 l 1
 385 914 l 1
 -98 1516 l 1
 266 1516 l 1
 631 994 l 1
 1012 1516 l 1
 1359 1516 l 1
 884 914 l 1
 1272 914 l 1
 1272 655 l 1
 788 655 l 1
 788 619 l 1
 1272 619 l 1
 1272 360 l 1
 788 360 l 1
 788 0 l 1
EndSplineSet
EndChar

StartChar: z
Encoding: 122 122 335
Width: 904
VWidth: 0
Flags: HW
LayerCount: 2
Fore
SplineSet
53 755 m 1
 53 998 l 1
 847 998 l 1
 887 907 l 1
 420 242 l 1
 867 242 l 1
 867 0 l 1
 37 0 l 1
 10 82 l 1
 476 755 l 1
 53 755 l 1
EndSplineSet
EndChar

StartChar: zacute
Encoding: 378 378 336
Width: 904
VWidth: 0
Flags: HW
LayerCount: 2
Fore
SplineSet
250 1113 m 0
 250 1124 251 1129 256 1147 c 2
 351 1508 l 1
 376 1589 435 1631 499 1631 c 0
 566 1631 641 1582 641 1494 c 0
 641 1454 625 1418 597 1378 c 1
 376 1087 l 1
 362 1066 342 1047 310 1047 c 0
 260 1047 250 1099 250 1113 c 0
53 752 m 1
 53 996 l 1
 847 996 l 1
 887 907 l 1
 420 241 l 1
 867 241 l 1
 867 0 l 1
 38 0 l 1
 9 79 l 1
 476 752 l 1
 53 752 l 1
EndSplineSet
EndChar

StartChar: zcaron
Encoding: 382 382 337
Width: 904
VWidth: 0
Flags: HW
LayerCount: 2
Fore
SplineSet
144 1576 m 0
 144 1576 144 1576 145 1576 c 0
 148 1576 158 1576 172 1570 c 1
 444 1380 l 1
 718 1571 l 2
 727 1577 733 1578 737 1578 c 0
 742 1578 743 1576 743 1576 c 2
 744 1576 799 1574 799 1523 c 0
 799 1481 786 1488 786 1488 c 1
 521 1082 l 1
 502 1059 477 1047 444 1047 c 0
 412 1047 386 1058 366 1082 c 1
 91 1506 l 1
 91 1523 l 2
 91 1554 113 1576 144 1576 c 0
53 755 m 1
 53 999 l 1
 847 999 l 1
 887 908 l 1
 420 243 l 1
 867 243 l 1
 867 0 l 1
 37 0 l 1
 10 82 l 1
 476 755 l 1
 53 755 l 1
EndSplineSet
EndChar

StartChar: zdotaccent
Encoding: 380 380 338
Width: 904
VWidth: 0
Flags: HW
LayerCount: 2
Fore
SplineSet
445 1047 m 0
 358 1047 264 1106 264 1224 c 0
 264 1344 356 1408 445 1408 c 0
 533 1408 625 1342 625 1224 c 0
 625 1106 530 1047 445 1047 c 0
53 755 m 1
 53 996 l 1
 847 996 l 1
 887 907 l 1
 420 241 l 1
 867 241 l 1
 867 0 l 1
 37 0 l 1
 10 80 l 1
 476 755 l 1
 53 755 l 1
EndSplineSet
EndChar

StartChar: zero
Encoding: 48 48 339
Width: 1239
VWidth: 0
Flags: HW
LayerCount: 2
Fore
SplineSet
1189 758 m 0
 1189 341 1033 -19 620 -19 c 0
 207 -19 50 341 50 758 c 0
 50 1197 222 1536 620 1536 c 0
 1018 1536 1189 1197 1189 758 c 0
896 764 m 0
 896 1090 779 1278 620 1278 c 0
 462 1278 345 1091 345 764 c 0
 345 433 462 239 620 239 c 0
 779 239 896 433 896 764 c 0
EndSplineSet
EndChar
